<svg xmlns="http://www.w3.org/2000/svg" xmlns:xlink="http://www.w3.org/1999/xlink" width="1366" zoomAndPan="magnify" viewBox="0 0 1024.5 524.25" height="699" preserveAspectRatio="xMidYMid meet" version="1.0"><defs><clipPath id="b4ae8e07a0"><path d="M 388.140625 172.554688 L 636 172.554688 L 636 402.472656 L 388.140625 402.472656 Z M 388.140625 172.554688 " clip-rule="nonzero"/></clipPath></defs><g clip-path="url(#b4ae8e07a0)"><path fill="#ffca9e" d="M 623.8125 286.089844 C 625.859375 287.632812 627.578125 289.429688 629.019531 291.492188 C 630.039062 292.941406 631.210938 294.304688 631.695312 296.054688 C 631.890625 296.75 632.0625 297.480469 632.042969 298.191406 C 631.980469 300.199219 631.765625 302.203125 631.695312 304.210938 C 631.535156 308.84375 631 313.421875 629.914062 317.9375 C 629.601562 319.230469 629.664062 319.175781 630.789062 319.8125 C 631.964844 320.480469 633.171875 321.164062 634.15625 322.070312 C 635.835938 323.605469 635.871094 325.738281 635.75 327.816406 C 635.636719 329.792969 635.101562 331.664062 634.34375 333.511719 C 633.335938 335.972656 632.609375 338.542969 633.117188 341.265625 C 633.269531 342.070312 633.5 342.855469 633.652344 343.660156 C 633.910156 345.074219 633.777344 346.488281 633.414062 347.871094 C 633.191406 348.738281 633.269531 349.523438 633.574219 350.398438 C 634.257812 352.371094 634.09375 354.449219 634.15625 356.511719 C 634.246094 359.507812 633.300781 362.25 632.402344 365.007812 C 632.050781 366.082031 631.449219 367.082031 630.859375 368.050781 C 628.953125 371.179688 626.597656 373.9375 623.953125 376.484375 C 620.660156 379.648438 616.820312 382.023438 612.945312 384.328125 C 608.910156 386.734375 604.691406 388.839844 600.273438 390.464844 C 598.359375 391.167969 596.515625 392.199219 594.375 392.152344 C 594.160156 392.148438 593.933594 392.28125 593.734375 392.378906 C 592.085938 393.210938 590.289062 393.496094 588.511719 393.894531 C 585.976562 394.464844 583.46875 395.132812 580.941406 395.707031 C 579.878906 395.949219 578.785156 396.019531 577.714844 396.222656 C 575.023438 396.738281 572.355469 397.394531 569.648438 397.785156 C 566.347656 398.265625 563.023438 398.589844 559.699219 398.898438 C 555.320312 399.3125 551.019531 400.207031 546.679688 400.847656 C 543.917969 401.257812 541.140625 401.539062 538.367188 401.839844 C 535.863281 402.113281 533.359375 402.449219 530.851562 402.546875 C 527.878906 402.667969 524.902344 402.582031 521.921875 402.550781 C 518.949219 402.519531 515.972656 402.503906 513.003906 402.359375 C 509.488281 402.191406 505.976562 401.925781 502.464844 401.648438 C 499.042969 401.382812 495.628906 401.027344 492.207031 400.738281 C 486.914062 400.292969 481.609375 399.945312 476.363281 399.070312 C 473.847656 398.652344 471.320312 398.257812 468.8125 397.796875 C 467.511719 397.558594 466.234375 397.203125 464.949219 396.882812 C 463.050781 396.40625 461.148438 395.949219 459.261719 395.429688 C 457.421875 394.921875 455.609375 394.332031 453.777344 393.808594 C 452.722656 393.511719 451.648438 393.273438 450.582031 393.011719 C 449.695312 392.796875 448.800781 392.609375 447.925781 392.367188 C 445.640625 391.734375 443.363281 391.097656 441.089844 390.425781 C 440.039062 390.117188 439.019531 389.71875 437.980469 389.375 C 436.101562 388.746094 434.207031 388.136719 432.328125 387.503906 C 431.507812 387.226562 430.695312 386.90625 429.882812 386.605469 C 428.214844 385.992188 426.539062 385.410156 424.886719 384.753906 C 424.269531 384.507812 423.667969 384.164062 423.140625 383.757812 C 420.96875 382.085938 418.484375 380.886719 416.238281 379.359375 C 414.8125 378.386719 413.300781 377.558594 411.898438 376.566406 C 409.878906 375.144531 407.9375 373.636719 406.160156 371.917969 C 404.085938 369.910156 402.910156 367.40625 402.085938 364.71875 C 400.074219 358.1875 400.621094 351.695312 402.441406 345.226562 C 402.496094 345.011719 402.542969 344.800781 402.664062 344.3125 C 401.59375 344.972656 400.710938 345.546875 399.800781 346.070312 C 399.011719 346.523438 398.21875 347 397.371094 347.339844 C 395.6875 348.011719 394.171875 347.636719 392.742188 346.542969 C 390.230469 344.617188 389.828125 341.949219 390.035156 339.078125 C 390.363281 334.574219 392.839844 331.15625 395.78125 328.003906 C 396.5625 327.167969 397.40625 326.386719 398.285156 325.660156 C 398.839844 325.199219 398.949219 324.699219 398.761719 324.082031 C 398.65625 323.730469 398.5 323.390625 398.3125 323.078125 C 397.050781 320.921875 396.472656 318.507812 395.65625 316.175781 C 394.945312 314.132812 394.257812 312.089844 394.246094 309.921875 C 394.234375 307.960938 394.347656 305.992188 394.585938 304.046875 C 395.035156 300.40625 396.050781 296.910156 397.785156 293.460938 C 395.882812 293.285156 394.148438 293.050781 392.398438 293.476562 C 391.90625 293.597656 391.425781 293.753906 390.929688 293.84375 C 389.351562 294.140625 388.351562 293.34375 388.273438 291.722656 C 388.257812 291.402344 388.226562 291.054688 388.335938 290.769531 C 389.039062 289.035156 389.660156 287.25 390.53125 285.605469 C 392.339844 282.195312 394.84375 279.261719 397.179688 276.214844 C 397.3125 276.035156 397.414062 275.828125 397.550781 275.597656 C 395.527344 274.859375 393.929688 273.628906 392.667969 271.957031 C 392.429688 271.636719 392.230469 271.269531 392.0625 270.90625 C 390.378906 267.246094 390.613281 263.527344 391.878906 259.839844 C 392.390625 258.332031 393.175781 256.921875 393.886719 255.492188 C 394.414062 254.425781 395.039062 253.410156 395.5625 252.347656 C 395.710938 252.054688 395.746094 251.636719 395.671875 251.3125 C 395.152344 248.808594 394.492188 246.332031 394.070312 243.8125 C 393.609375 241.070312 394.109375 238.34375 394.707031 235.660156 C 395.082031 233.980469 395.453125 232.265625 396.101562 230.675781 C 397.574219 227.082031 399.183594 223.53125 401.441406 220.347656 C 403.214844 217.851562 405.160156 215.476562 407.039062 213.058594 C 408.347656 211.367188 409.664062 209.671875 411.015625 208.003906 C 411.441406 207.472656 412 207.050781 412.457031 206.539062 C 414.933594 203.769531 417.824219 201.457031 420.722656 199.152344 C 424.597656 196.066406 428.992188 193.867188 433.378906 191.636719 C 434.308594 191.164062 435.265625 190.742188 436.179688 190.246094 C 440.101562 188.101562 444.203125 186.34375 448.335938 184.65625 C 452.355469 183.015625 456.492188 181.71875 460.65625 180.519531 C 464.609375 179.382812 468.570312 178.289062 472.5625 177.3125 C 473.886719 176.988281 475.210938 176.707031 476.511719 176.273438 C 477.230469 176.03125 478.050781 176.113281 478.808594 175.949219 C 480.234375 175.644531 481.632812 175.242188 483.125 175.261719 C 484.0625 175.269531 484.984375 174.820312 485.929688 174.710938 C 490.765625 174.132812 495.59375 173.457031 500.441406 173.085938 C 502.882812 172.902344 505.351562 172.460938 507.824219 172.886719 C 508.175781 172.949219 508.546875 172.867188 508.910156 172.847656 C 510.550781 172.757812 512.191406 172.621094 513.832031 172.59375 C 515.734375 172.558594 517.667969 172.429688 519.542969 172.679688 C 522.773438 173.113281 526.003906 172.625 529.238281 172.992188 C 532.914062 173.410156 536.582031 173.972656 540.261719 174.335938 C 544.386719 174.742188 548.277344 176.070312 552.316406 176.773438 C 552.976562 176.890625 553.589844 177.234375 554.234375 177.4375 C 556.484375 178.148438 558.75 178.808594 560.992188 179.542969 C 563.539062 180.386719 566.070312 181.316406 568.613281 182.167969 C 569.34375 182.414062 570.234375 182.359375 570.851562 182.753906 C 572.671875 183.914062 574.84375 184.210938 576.703125 185.25 C 577.605469 185.757812 578.515625 186.257812 579.429688 186.75 C 579.789062 186.941406 580.144531 187.167969 580.53125 187.289062 C 583.210938 188.128906 585.496094 189.703125 587.835938 191.1875 C 588.902344 191.863281 590.019531 192.460938 591.097656 193.125 C 592.753906 194.152344 594.457031 195.128906 596.03125 196.273438 C 598.171875 197.832031 600.265625 199.46875 602.285156 201.179688 C 604.824219 203.339844 607.359375 205.519531 609.726562 207.855469 C 611.539062 209.644531 613.21875 211.609375 614.730469 213.667969 C 616.558594 216.171875 618.160156 218.84375 619.816406 221.464844 C 620.839844 223.085938 621.832031 224.730469 622.757812 226.414062 C 623.347656 227.488281 623.828125 228.632812 624.292969 229.773438 C 625.382812 232.4375 626.539062 235.078125 627.152344 237.925781 C 627.542969 239.742188 627.695312 241.53125 627.402344 243.363281 C 627.300781 243.996094 627.167969 244.628906 627.144531 245.261719 C 627.078125 247.136719 626.480469 248.835938 625.53125 250.433594 C 624.660156 251.890625 624.695312 251.976562 625.953125 253.191406 C 627.375 254.566406 628.550781 256.140625 629.519531 257.859375 C 631.386719 261.179688 630.9375 264.484375 629.203125 267.675781 C 628.730469 268.554688 628.632812 269.242188 628.875 270.230469 C 629.496094 272.761719 629.550781 275.324219 628.117188 277.671875 C 627.667969 278.410156 627.0625 279.046875 626.535156 279.734375 C 625.128906 281.574219 624.304688 283.6875 623.8125 286.089844 Z M 493.121094 183.300781 C 493.117188 183.242188 493.105469 183.1875 493.101562 183.132812 C 491.515625 183.320312 489.929688 183.5 488.34375 183.691406 C 484.039062 184.226562 479.71875 184.644531 475.441406 185.339844 C 472.253906 185.855469 469.027344 186.238281 465.917969 187.246094 C 463.234375 188.113281 460.460938 188.714844 457.746094 189.507812 C 452.308594 191.109375 447.199219 193.554688 442.035156 195.847656 C 439.65625 196.902344 437.375 198.167969 435.058594 199.347656 C 434.53125 199.621094 434.046875 199.964844 433.527344 200.257812 C 431.429688 201.433594 429.265625 202.503906 427.238281 203.789062 C 424.503906 205.523438 421.792969 207.304688 419.4375 209.5625 C 417.796875 211.140625 416.023438 212.597656 414.5 214.28125 C 412.449219 216.539062 410.558594 218.941406 408.648438 221.320312 C 406.808594 223.609375 405.167969 226.023438 404.242188 228.855469 C 403.589844 230.851562 402.878906 232.828125 402.226562 234.832031 C 400.964844 238.691406 400.625 242.644531 401.625 246.59375 C 402.601562 250.460938 404.566406 253.632812 408.605469 255.046875 C 409.421875 255.335938 410.171875 255.777344 410.972656 256.113281 C 412.230469 256.640625 413.464844 257.257812 414.769531 257.617188 C 417.664062 258.417969 420.597656 259.105469 423.523438 259.78125 C 424.984375 260.121094 426.46875 260.402344 427.953125 260.589844 C 430.429688 260.90625 432.921875 261.066406 435.394531 261.402344 C 437.390625 261.671875 439.375 261.859375 441.394531 261.824219 C 442.484375 261.804688 443.570312 261.902344 444.664062 261.882812 C 445.9375 261.859375 447.214844 261.683594 448.476562 261.71875 C 450.757812 261.78125 453.035156 261.628906 455.316406 262.042969 C 457.109375 262.367188 458.992188 262.199219 460.824219 262.332031 C 462.867188 262.476562 464.902344 262.722656 466.945312 262.894531 C 468.65625 263.042969 470.433594 262.917969 472.074219 263.324219 C 474.335938 263.882812 476.652344 263.996094 478.929688 264.398438 C 482.875 265.101562 486.855469 265.585938 490.878906 265.8125 C 496.003906 266.09375 501.125 266.234375 506.257812 266.101562 C 508.675781 266.039062 511.097656 265.925781 513.515625 265.851562 C 515.296875 265.800781 517.082031 265.851562 518.859375 265.726562 C 521.730469 265.527344 524.59375 265.21875 527.457031 264.964844 C 530.988281 264.644531 534.535156 264.703125 538.0625 264.25 C 540.589844 263.925781 543.167969 263.960938 545.722656 263.863281 C 548.691406 263.746094 551.664062 263.738281 554.625 263.542969 C 557.859375 263.335938 561.101562 263.203125 564.304688 262.585938 C 567.621094 261.949219 571 261.644531 574.273438 260.722656 C 575.046875 260.503906 575.898438 260.429688 576.703125 260.460938 C 577.402344 260.492188 578.046875 260.492188 578.703125 260.210938 C 579.0625 260.054688 579.488281 260.046875 579.890625 259.988281 C 580.828125 259.855469 581.769531 259.746094 582.710938 259.601562 C 584.863281 259.28125 587.011719 258.910156 589.175781 258.632812 C 591.84375 258.285156 594.53125 258.03125 597.199219 257.703125 C 598.28125 257.570312 599.328125 257.140625 600.449219 257.457031 C 600.636719 257.507812 600.882812 257.339844 601.101562 257.292969 C 602.085938 257.089844 603.074219 256.90625 604.050781 256.683594 C 606.453125 256.132812 608.851562 255.582031 611.050781 254.414062 C 611.738281 254.054688 612.375 253.574219 613.089844 253.300781 C 613.929688 252.984375 614.59375 252.472656 615.210938 251.855469 C 615.46875 251.59375 615.707031 251.3125 615.988281 251.082031 C 617.917969 249.523438 619.433594 247.691406 619.992188 245.203125 C 620.042969 244.984375 620.113281 244.757812 620.210938 244.554688 C 621.457031 242.015625 620.894531 239.429688 620.195312 236.933594 C 619.507812 234.460938 618.769531 231.984375 617.578125 229.675781 C 616.582031 227.734375 615.824219 225.671875 614.777344 223.765625 C 613.738281 221.863281 612.378906 220.128906 611.339844 218.226562 C 610.210938 216.167969 608.753906 214.375 607.222656 212.640625 C 605.90625 211.144531 604.515625 209.730469 602.941406 208.46875 C 600.921875 206.851562 598.941406 205.183594 596.742188 203.804688 C 595.195312 202.832031 593.621094 201.914062 592.046875 200.976562 C 589.808594 199.644531 587.574219 198.300781 585.3125 197.007812 C 584.304688 196.433594 583.21875 196 582.199219 195.449219 C 580.527344 194.546875 578.9375 193.457031 577.203125 192.699219 C 574.246094 191.40625 571.230469 190.207031 568.183594 189.148438 C 563.832031 187.632812 559.402344 186.421875 554.839844 185.648438 C 549.5 184.742188 544.132812 184.183594 538.742188 183.820312 C 533.761719 183.484375 528.78125 183.164062 523.796875 182.917969 C 519 182.683594 514.195312 182.421875 509.398438 182.421875 C 505.015625 182.421875 500.625 182.742188 496.242188 182.949219 C 495.210938 183.003906 494.171875 183.179688 493.121094 183.300781 Z M 621.210938 289.722656 C 619.5625 290.839844 618.121094 291.78125 616.714844 292.773438 C 614.890625 294.0625 612.917969 295.179688 611.492188 296.964844 C 610.578125 298.101562 609.636719 299.21875 609.28125 300.703125 C 608.785156 302.746094 608.25 304.785156 607.722656 306.824219 C 607.027344 309.496094 604.125 310.542969 601.84375 309.167969 C 600.132812 308.132812 598.804688 306.71875 597.507812 305.25 C 596.519531 304.132812 595.519531 303.023438 594.46875 301.847656 C 593.734375 302.382812 593.121094 302.839844 592.488281 303.285156 C 589.554688 305.359375 586.519531 307.234375 582.875 307.738281 C 581.375 307.945312 579.835938 308.1875 578.34375 308.070312 C 576.324219 307.921875 574.371094 307.804688 572.414062 308.480469 C 571.429688 308.820312 570.386719 309.046875 569.351562 309.164062 C 566.6875 309.449219 564.203125 310.429688 561.621094 311.039062 C 558.226562 311.84375 554.824219 312.273438 551.359375 311.621094 C 550.46875 311.453125 549.5625 311.058594 548.683594 311.117188 C 546.636719 311.253906 544.59375 311.578125 542.554688 311.863281 C 540.894531 312.101562 539.242188 312.433594 537.582031 312.660156 C 533.964844 313.148438 530.308594 313.1875 526.675781 313.464844 C 525.3125 313.566406 523.9375 313.609375 522.582031 313.789062 C 520.574219 314.050781 518.59375 314.101562 516.570312 313.78125 C 514.410156 313.441406 512.203125 313.324219 510.03125 313.050781 C 509.085938 312.929688 508.101562 312.800781 507.234375 312.445312 C 505.914062 311.902344 504.695312 311.394531 503.5625 312.738281 C 503.507812 312.796875 503.390625 312.785156 503.304688 312.828125 C 502.128906 313.421875 500.9375 313.996094 499.785156 314.632812 C 498.707031 315.230469 497.695312 315.941406 496.605469 316.519531 C 494.667969 317.550781 492.6875 318.492188 490.75 319.519531 C 488.652344 320.636719 486.5625 321.773438 484.511719 322.972656 C 481.601562 324.683594 479.367188 327.054688 477.863281 330.089844 C 477.300781 331.234375 476.765625 332.398438 476.1875 333.535156 C 475.636719 334.609375 474.675781 335.070312 473.523438 335.191406 C 471.96875 335.355469 470.761719 334.6875 469.75 333.589844 C 468.125 331.839844 466.675781 329.960938 465.453125 327.902344 C 464.289062 325.9375 463.164062 323.933594 461.460938 322.355469 C 459.785156 320.800781 458.191406 319.128906 456.390625 317.738281 C 454.78125 316.5 453.265625 315.175781 451.964844 313.640625 C 450.25 311.621094 448.609375 309.523438 447.015625 307.40625 C 446.507812 306.734375 445.992188 306.5 445.171875 306.554688 C 443.164062 306.6875 441.152344 306.792969 439.144531 306.792969 C 435.671875 306.792969 432.351562 306.054688 429.128906 304.703125 C 427.769531 304.125 426.21875 303.964844 424.734375 303.75 C 422.792969 303.46875 420.757812 303.574219 418.898438 303.039062 C 416.589844 302.371094 414.410156 301.238281 412.195312 300.261719 C 411.917969 300.140625 411.558594 299.742188 411.582031 299.507812 C 411.613281 299.226562 411.96875 298.824219 412.257812 298.753906 C 413.140625 298.546875 414.050781 298.382812 414.953125 298.375 C 415.863281 298.363281 416.773438 298.570312 417.6875 298.667969 C 420.382812 298.941406 423.03125 299.441406 425.625 300.234375 C 427.78125 300.898438 429.976562 301.300781 432.234375 301.320312 C 434.5625 301.335938 436.890625 301.320312 439.21875 301.351562 C 439.871094 301.363281 440.53125 301.472656 441.355469 301.550781 C 441.140625 301.261719 441.058594 301.097656 440.933594 300.992188 C 439.511719 299.777344 437.835938 299.070312 436.046875 298.625 C 435.074219 298.382812 434.0625 298.316406 433.0625 298.179688 C 429.886719 297.75 426.710938 297.328125 423.535156 296.90625 C 420.726562 296.535156 417.917969 296.183594 415.109375 295.792969 C 412.570312 295.4375 410.042969 295.039062 407.507812 294.636719 C 407.070312 294.570312 406.730469 294.589844 406.390625 294.929688 C 404.644531 296.671875 402.875 298.382812 401.113281 300.117188 C 400.621094 300.605469 400.546875 301.175781 400.585938 301.875 C 400.671875 303.550781 400.804688 305.265625 400.558594 306.910156 C 400.332031 308.386719 400.347656 309.804688 400.484375 311.257812 C 400.546875 311.9375 400.546875 312.628906 400.632812 313.308594 C 400.992188 316.242188 401.023438 319.273438 402.796875 321.851562 C 403.515625 322.898438 404.222656 323.992188 405.109375 324.886719 C 406.984375 326.773438 409.375 327.890625 411.804688 328.839844 C 413.757812 329.609375 415.828125 330.085938 417.816406 330.765625 C 421.105469 331.894531 424.347656 333.152344 427.65625 334.21875 C 430.003906 334.976562 432.40625 335.554688 434.808594 336.113281 C 437.039062 336.632812 439.296875 337.003906 441.542969 337.445312 C 443.832031 337.894531 446.117188 338.355469 448.40625 338.804688 C 449.707031 339.0625 451.027344 339.246094 452.308594 339.574219 C 456.429688 340.625 460.539062 341.738281 464.660156 342.808594 C 467.914062 343.65625 471.253906 343.945312 474.597656 344 C 477.890625 344.050781 481.1875 343.84375 484.480469 343.757812 C 486.398438 343.707031 488.320312 343.660156 490.238281 343.628906 C 493.765625 343.574219 497.285156 343.554688 500.8125 343.480469 C 503.832031 343.417969 506.863281 343.445312 509.863281 343.164062 C 513.089844 342.855469 516.308594 342.335938 519.496094 341.714844 C 524.691406 340.695312 529.953125 340.507812 535.203125 340.152344 C 536.378906 340.074219 537.546875 339.824219 538.710938 339.605469 C 540.863281 339.203125 543 338.660156 545.167969 338.378906 C 547.691406 338.046875 550.242188 337.949219 552.78125 337.621094 C 555.917969 337.210938 558.910156 336.261719 562 335.703125 C 564.429688 335.261719 566.820312 334.613281 569.257812 334.234375 C 571.828125 333.832031 574.425781 333.589844 577.015625 333.359375 C 581.085938 333 585.011719 331.925781 588.964844 331.003906 C 591.28125 330.464844 593.578125 329.808594 595.921875 329.488281 C 597.757812 329.238281 599.460938 328.589844 601.160156 328.019531 C 604.269531 326.980469 607.265625 325.597656 610.300781 324.34375 C 612.542969 323.417969 614.804688 322.539062 617 321.519531 C 619.601562 320.3125 622.003906 318.75 623.386719 316.144531 C 624.625 313.8125 625.644531 311.363281 626.738281 308.953125 C 627.347656 307.601562 627.765625 306.160156 627.511719 304.691406 C 627.1875 302.800781 626.851562 300.867188 626.140625 299.105469 C 625.210938 296.796875 623.925781 294.628906 622.765625 292.417969 C 622.292969 291.503906 621.730469 290.621094 621.210938 289.722656 Z M 626.539062 323.960938 C 626.023438 324.351562 625.535156 324.761719 625.011719 325.105469 C 622.566406 326.734375 619.851562 327.816406 617.15625 328.945312 C 615.390625 329.683594 613.570312 330.324219 611.910156 331.253906 C 609.117188 332.8125 606.3125 334.285156 603.296875 335.402344 C 599.359375 336.863281 595.320312 337.707031 591.148438 338.023438 C 586.410156 338.382812 581.652344 338.382812 576.921875 339.054688 C 573.492188 339.542969 570.171875 340.324219 567.003906 341.679688 C 563.550781 343.152344 560.027344 344.390625 556.308594 344.988281 C 554.730469 345.238281 553.117188 345.257812 551.539062 345.53125 C 547.570312 346.21875 543.566406 346.527344 539.558594 346.867188 C 536.144531 347.15625 532.738281 347.511719 529.320312 347.757812 C 526.949219 347.929688 524.566406 348.070312 522.195312 348.042969 C 519.816406 348.015625 517.449219 347.703125 515.070312 347.625 C 513.613281 347.578125 512.152344 347.742188 510.695312 347.820312 C 510.148438 347.851562 509.605469 347.898438 509.0625 347.964844 C 508.207031 348.074219 507.347656 348.238281 506.488281 348.320312 C 504.945312 348.476562 503.398438 348.613281 501.851562 348.722656 C 499.574219 348.886719 497.296875 349.175781 495.023438 349.121094 C 491.507812 349.03125 487.996094 348.765625 484.496094 348.453125 C 481.175781 348.152344 477.875 347.6875 474.5625 347.328125 C 471.875 347.035156 469.191406 346.738281 466.5 346.539062 C 464.402344 346.382812 462.296875 346.417969 460.199219 346.28125 C 457.597656 346.121094 455 345.878906 452.402344 345.65625 C 448.320312 345.3125 444.601562 343.859375 441.015625 341.96875 C 439.640625 341.242188 438.261719 340.503906 436.820312 339.933594 C 433.332031 338.550781 429.621094 338.320312 425.933594 337.949219 C 423.34375 337.691406 420.75 337.605469 418.171875 337.054688 C 414.4375 336.25 410.820312 335.195312 407.457031 333.367188 C 407.015625 333.125 406.578125 332.863281 406.207031 332.539062 C 405.351562 331.792969 404.523438 331.011719 403.703125 330.214844 C 403.082031 329.613281 402.304688 329.394531 401.765625 329.882812 C 400.816406 330.734375 399.75 331.558594 399.089844 332.617188 C 397.324219 335.476562 395.855469 338.476562 396.039062 342.003906 C 396.152344 344.199219 396.824219 344.496094 398.433594 343.785156 C 399.757812 343.199219 401.007812 342.40625 402.230469 341.605469 C 404.515625 340.117188 406.890625 339.085938 409.714844 339.472656 C 413.261719 339.964844 415.105469 341.691406 416.007812 345.085938 C 416.390625 346.519531 416.386719 348.058594 416.5 349.558594 C 416.589844 350.675781 416.773438 350.890625 417.84375 351.277344 C 419.472656 351.867188 421.140625 352.417969 422.683594 353.195312 C 425.53125 354.632812 427.550781 356.773438 428.335938 360.03125 C 428.941406 362.542969 428.636719 364.945312 428.046875 367.359375 C 427.558594 369.355469 426.761719 371.273438 426.664062 373.363281 C 426.59375 374.859375 426.769531 376.28125 427.621094 377.558594 C 428.210938 378.449219 428.648438 378.671875 429.570312 378.171875 C 430.5625 377.628906 431.574219 377.011719 432.335938 376.195312 C 434.183594 374.238281 435.9375 372.183594 437.640625 370.09375 C 439.816406 367.429688 442.464844 365.46875 445.707031 364.363281 C 449.554688 363.050781 453.515625 362.820312 457.523438 363.351562 C 459.398438 363.605469 461.195312 364.15625 462.832031 365.152344 C 463.921875 365.8125 465.019531 366.46875 466.125 367.109375 C 467.796875 368.09375 469.632812 368.421875 471.519531 368.171875 C 473.878906 367.863281 476.207031 367.375 478.554688 366.984375 C 480.410156 366.675781 482.261719 366.210938 484.125 366.164062 C 487.507812 366.074219 490.90625 366.183594 494.292969 366.328125 C 497.441406 366.457031 500.210938 367.710938 502.835938 369.410156 C 504.546875 370.523438 505.84375 372.046875 507.261719 373.457031 C 508.132812 374.332031 509.132812 374.691406 510.359375 374.597656 C 511.671875 374.5 512.683594 373.761719 513.683594 373.085938 C 515.957031 371.554688 518.1875 369.953125 520.347656 368.265625 C 522.597656 366.507812 525.171875 365.464844 527.832031 364.644531 C 530.011719 363.976562 532.277344 363.597656 534.5 363.066406 C 537.964844 362.234375 541.457031 361.941406 544.992188 362.492188 C 548.464844 363.027344 550.859375 364.8125 551.867188 368.324219 C 552.574219 370.777344 552.730469 373.265625 552.707031 375.792969 C 552.691406 377.757812 552.472656 379.738281 553.042969 381.660156 C 553.441406 383 553.644531 384.410156 554.523438 385.585938 C 555.023438 386.253906 555.625 386.566406 556.40625 386.261719 C 557.378906 385.875 558.398438 385.523438 559.253906 384.949219 C 561.9375 383.152344 563.769531 380.808594 563.660156 377.363281 C 563.628906 376.398438 563.65625 375.433594 563.609375 374.472656 C 563.488281 371.964844 563.890625 369.570312 564.976562 367.289062 C 565.75 365.65625 566.851562 364.300781 568.039062 362.949219 C 570.015625 360.699219 572.515625 359.519531 575.339844 358.902344 C 577.882812 358.34375 580.410156 358.714844 582.914062 359.257812 C 583.578125 359.402344 584.238281 359.605469 584.910156 359.679688 C 587.988281 360.007812 590.917969 359.464844 593.726562 358.148438 C 596.15625 357.011719 598.222656 355.347656 600.367188 353.78125 C 603.742188 351.308594 607.550781 349.785156 611.574219 348.773438 C 612.628906 348.507812 613.753906 348.46875 614.851562 348.433594 C 616.203125 348.394531 617.511719 348.90625 618.238281 349.972656 C 619.199219 351.386719 620.226562 351.480469 621.582031 350.8125 C 621.742188 350.734375 621.925781 350.683594 622.101562 350.640625 C 623.679688 350.28125 624.863281 349.484375 625.769531 348.050781 C 626.765625 346.480469 627.527344 344.960938 627.203125 343.0625 C 627.152344 342.75 627.0625 342.433594 627.0625 342.117188 C 627.070312 341.210938 626.957031 340.257812 627.191406 339.402344 C 627.859375 336.929688 628.734375 334.515625 629.402344 332.042969 C 629.746094 330.773438 630.039062 329.425781 629.976562 328.136719 C 629.886719 326.039062 628.257812 324.96875 626.539062 323.960938 Z M 436.015625 381.960938 C 437.421875 382.488281 438.59375 382.980469 439.792969 383.371094 C 441.492188 383.917969 443.210938 384.390625 444.925781 384.886719 C 447.648438 385.675781 450.363281 386.484375 453.09375 387.246094 C 455.421875 387.894531 457.761719 388.523438 460.113281 389.097656 C 463.484375 389.921875 466.84375 390.78125 470.246094 391.453125 C 473.871094 392.167969 477.523438 392.777344 481.183594 393.277344 C 487.488281 394.148438 493.835938 394.636719 500.203125 394.839844 C 503.117188 394.933594 506.039062 394.976562 508.953125 395.078125 C 512.199219 395.195312 515.441406 395.386719 518.6875 395.488281 C 522.027344 395.585938 525.367188 395.613281 528.703125 395.660156 C 530.988281 395.691406 533.269531 395.78125 535.554688 395.710938 C 539.535156 395.597656 543.511719 395.425781 547.488281 395.191406 C 550.128906 395.03125 552.769531 394.804688 555.390625 394.4375 C 558.242188 394.039062 561.09375 393.585938 563.894531 392.925781 C 568.699219 391.792969 573.621094 391.25 578.359375 389.808594 C 580.757812 389.078125 583.25 388.660156 585.6875 388.058594 C 587.722656 387.554688 589.679688 386.734375 591.8125 386.621094 C 592.074219 386.605469 592.335938 386.449219 592.589844 386.355469 C 593.277344 386.109375 593.949219 385.835938 594.640625 385.617188 C 596.070312 385.15625 597.539062 384.800781 598.933594 384.253906 C 604.351562 382.136719 609.671875 379.785156 614.757812 376.960938 C 616.746094 375.851562 618.628906 374.535156 620.101562 372.742188 C 621.007812 371.644531 621.960938 370.589844 622.75 369.414062 C 624.175781 367.292969 625.414062 365.070312 626.480469 362.726562 C 627.496094 360.496094 627.515625 358.113281 628.089844 355.824219 C 628.117188 355.730469 627.980469 355.59375 627.882812 355.402344 C 627.3125 355.578125 626.75 355.902344 626.195312 355.886719 C 625.429688 355.867188 625.050781 356.230469 624.609375 356.742188 C 623.644531 357.863281 622.53125 358.796875 621 359.0625 C 619.136719 359.386719 617.425781 359.214844 615.90625 357.882812 C 614.652344 356.785156 613.953125 355.425781 613.628906 353.859375 C 613.480469 353.144531 613.171875 352.84375 612.457031 352.796875 C 610.585938 352.667969 608.828125 353.101562 607.074219 353.679688 C 604.761719 354.449219 602.886719 355.90625 601.078125 357.464844 C 598.546875 359.644531 596.316406 362.167969 593.386719 363.871094 C 590.941406 365.296875 588.402344 366.429688 585.5 366.296875 C 583.589844 366.207031 581.675781 365.988281 579.769531 365.75 C 576.484375 365.34375 573.628906 366.195312 571.222656 368.511719 C 569.839844 369.835938 569.121094 371.507812 568.660156 373.292969 C 568.273438 374.789062 568.023438 376.335938 567.828125 377.875 C 567.167969 383.167969 564.445312 387.257812 560.476562 390.632812 C 558.617188 392.222656 556.375 393.027344 554.015625 392.917969 C 551.324219 392.792969 549.171875 391.292969 547.847656 388.960938 C 546.898438 387.289062 546.183594 385.472656 546.046875 383.464844 C 545.929688 381.761719 545.914062 380.089844 546.527344 378.484375 C 547.195312 376.738281 547.9375 375.015625 548.683594 373.300781 C 549.824219 370.695312 548.648438 368.160156 545.898438 367.382812 C 544.273438 366.917969 542.640625 366.476562 541.019531 365.992188 C 539.753906 365.617188 538.476562 365.617188 537.207031 365.867188 C 534.410156 366.410156 531.734375 367.3125 529.074219 368.347656 C 526.886719 369.199219 525.320312 370.761719 523.777344 372.375 C 522.617188 373.589844 521.65625 374.988281 520.5625 376.269531 C 518.730469 378.421875 516.59375 380.1875 513.859375 381.09375 C 512.992188 381.378906 512.105469 381.636719 511.199219 381.761719 C 510.363281 381.875 509.480469 381.90625 508.652344 381.777344 C 506.503906 381.433594 504.613281 380.507812 502.902344 379.132812 C 501.398438 377.921875 500.222656 376.472656 499.449219 374.726562 C 498.660156 372.953125 497.917969 371.175781 495.800781 370.589844 C 495.40625 370.480469 495.011719 370.355469 494.617188 370.238281 C 492.6875 369.671875 490.710938 369.882812 488.742188 369.894531 C 485.488281 369.90625 482.378906 370.539062 479.410156 371.890625 C 478.246094 372.425781 477.082031 372.945312 475.914062 373.484375 C 473.269531 374.703125 470.511719 375.144531 467.621094 374.734375 C 464.578125 374.300781 462.355469 372.722656 460.847656 370.042969 C 459.804688 368.195312 458.28125 366.886719 456.101562 366.679688 C 453.007812 366.394531 449.972656 366.75 447.0625 367.925781 C 444.058594 369.144531 442.113281 371.453125 440.582031 374.199219 C 439.40625 376.316406 438.214844 378.421875 437.007812 380.523438 C 436.773438 380.972656 436.421875 381.390625 436.015625 381.960938 Z M 551.710938 281.800781 C 551.710938 281.710938 551.710938 281.621094 551.710938 281.535156 C 550.988281 281.308594 550.277344 280.984375 549.535156 280.875 C 547.152344 280.53125 544.773438 280.582031 542.460938 281.351562 C 540.769531 281.914062 539.101562 282.5625 537.417969 283.152344 C 534.007812 284.34375 530.601562 285.53125 527.183594 286.707031 C 526.234375 287.03125 525.28125 287.410156 524.300781 287.5625 C 521.863281 287.933594 519.429688 288.058594 516.957031 287.640625 C 512.191406 286.84375 507.867188 285.195312 504.523438 281.539062 C 503.671875 280.601562 502.601562 280.167969 501.386719 280.019531 C 498.640625 279.667969 496 280.300781 493.410156 281.0625 C 490.410156 281.941406 487.878906 283.707031 485.601562 285.78125 C 483.507812 287.695312 481.5 289.710938 478.992188 291.09375 C 478.046875 291.617188 477.039062 292.0625 476.019531 292.421875 C 474.332031 293.023438 472.546875 293.070312 470.773438 293.277344 C 467.691406 293.644531 464.871094 293.003906 462.21875 291.519531 C 460.996094 290.832031 459.9375 289.902344 459.085938 288.742188 C 457.824219 287.035156 456.996094 285.105469 456.136719 283.191406 C 455.371094 281.46875 454.273438 280.128906 452.359375 279.699219 C 451.472656 279.5 450.550781 279.375 449.644531 279.347656 C 445.375 279.238281 441.425781 280.515625 437.597656 282.25 C 434.730469 283.550781 432.046875 285.222656 428.914062 285.953125 C 425.785156 286.683594 422.859375 286.511719 420.074219 284.820312 C 418.695312 283.984375 417.421875 283.023438 416.652344 281.582031 C 415.605469 279.621094 414.96875 277.53125 415.007812 275.277344 C 415.011719 274.960938 414.984375 274.636719 414.9375 274.324219 C 414.6875 272.636719 414.023438 272.054688 412.339844 271.847656 C 410.367188 271.605469 408.652344 272.289062 406.964844 273.167969 C 405.667969 273.84375 404.425781 274.683594 403.050781 275.101562 C 401.769531 275.488281 400.972656 276.121094 400.59375 277.351562 C 400.542969 277.527344 400.46875 277.699219 400.386719 277.859375 C 398.835938 281.019531 397.527344 284.308594 395.546875 287.25 C 394.945312 288.136719 394.523438 289.144531 393.917969 290.273438 C 394.273438 290.191406 394.433594 290.144531 394.597656 290.117188 C 397.414062 289.753906 400.21875 289.25 403.046875 289.050781 C 407.261719 288.753906 411.464844 289.152344 415.621094 289.894531 C 418.597656 290.425781 421.5625 290.976562 424.402344 292.0625 C 428.304688 293.550781 432.28125 294.800781 436.40625 295.472656 C 439.375 295.960938 442.183594 296.953125 444.855469 298.238281 C 449.652344 300.535156 453.550781 303.980469 456.753906 308.195312 C 458.765625 310.847656 460.664062 313.585938 462.605469 316.285156 C 463.9375 318.140625 465.167969 320.085938 466.609375 321.855469 C 468.75 324.476562 471.035156 326.988281 473.269531 329.535156 C 473.375 329.65625 473.5625 329.707031 473.804688 329.84375 C 474.550781 328.566406 475.273438 327.339844 475.984375 326.117188 C 477.453125 323.578125 479.15625 321.242188 481.144531 319.054688 C 484.066406 315.847656 487.675781 313.589844 491.304688 311.421875 C 494.542969 309.480469 498.085938 308.046875 501.519531 306.429688 C 502.589844 305.925781 503.726562 305.554688 504.839844 305.140625 C 509.476562 303.433594 514.09375 301.679688 518.761719 300.050781 C 522.535156 298.734375 526.140625 297.140625 529.363281 294.726562 C 530.972656 293.519531 532.742188 292.53125 534.332031 291.304688 C 538.34375 288.207031 542.664062 285.671875 547.363281 283.769531 C 548.835938 283.167969 550.261719 282.457031 551.710938 281.800781 Z M 621.355469 256.347656 C 620.636719 256.890625 620.011719 257.511719 619.265625 257.90625 C 617.417969 258.882812 615.796875 260.273438 613.734375 260.894531 C 612.296875 261.328125 610.957031 262.121094 609.511719 262.492188 C 606.5625 263.25 603.570312 263.839844 600.589844 264.488281 C 600.277344 264.558594 599.960938 264.605469 599.644531 264.628906 C 598.832031 264.699219 598.015625 264.722656 597.207031 264.816406 C 594.714844 265.117188 592.230469 265.511719 589.726562 265.726562 C 586.910156 265.96875 584.082031 266.046875 581.253906 266.203125 C 580.300781 266.253906 579.351562 266.339844 578.402344 266.421875 C 577.539062 266.5 576.679688 266.652344 575.8125 266.671875 C 574.078125 266.71875 572.335938 266.621094 570.605469 266.726562 C 567.277344 266.929688 563.949219 267.207031 560.625 267.5 C 558.308594 267.703125 555.996094 267.980469 553.6875 268.230469 C 552.730469 268.335938 551.773438 268.449219 550.824219 268.558594 C 548.730469 268.792969 546.640625 269.007812 544.550781 269.257812 C 542.160156 269.546875 539.824219 270.335938 537.367188 270.042969 C 537.148438 270.015625 536.917969 270.109375 536.6875 270.125 C 533.816406 270.308594 530.945312 270.59375 528.070312 270.640625 C 525.152344 270.6875 522.230469 270.488281 519.304688 270.429688 C 514.910156 270.339844 510.511719 270.257812 506.109375 270.214844 C 502.773438 270.183594 499.429688 270.207031 496.089844 270.242188 C 493.984375 270.261719 491.878906 270.367188 489.773438 270.417969 C 487.484375 270.476562 485.195312 270.539062 482.910156 270.554688 C 481.820312 270.558594 480.722656 270.402344 479.625 270.398438 C 477.207031 270.386719 474.792969 270.460938 472.371094 270.441406 C 470.683594 270.425781 468.996094 270.210938 467.316406 270.273438 C 464.332031 270.386719 461.390625 269.980469 458.441406 269.6875 C 456.042969 269.449219 453.667969 268.992188 451.261719 268.738281 C 448.222656 268.40625 445.171875 268.1875 442.128906 267.910156 C 437.03125 267.445312 431.933594 266.964844 426.835938 266.503906 C 425.058594 266.34375 423.265625 266.292969 421.5 266.0625 C 418.015625 265.601562 414.578125 264.949219 411.203125 263.886719 C 409.089844 263.222656 407.039062 262.546875 405.191406 261.285156 C 403.851562 260.367188 402.410156 259.59375 401.082031 258.65625 C 400.332031 258.128906 399.734375 257.394531 398.902344 256.59375 C 398.589844 258.292969 398.328125 259.722656 398.054688 261.144531 C 397.769531 262.617188 397.5 264.074219 398.242188 265.523438 C 398.46875 265.960938 398.566406 266.480469 398.667969 266.972656 C 398.890625 268.125 399.566406 268.917969 400.699219 269.085938 C 401.949219 269.269531 403.234375 269.347656 404.492188 269.269531 C 405.714844 269.191406 406.914062 268.746094 408.136719 268.652344 C 410.480469 268.46875 412.816406 268.605469 415.011719 269.582031 C 416.589844 270.285156 417.925781 271.308594 418.941406 272.71875 C 419.765625 273.867188 420.539062 275.054688 421.378906 276.1875 C 421.765625 276.710938 422.257812 277.164062 422.730469 277.625 C 423.960938 278.835938 425.597656 279.035156 427.148438 279.003906 C 430.878906 278.929688 434.617188 278.820312 438.308594 278.167969 C 442.464844 277.429688 446.644531 276.988281 450.871094 277.070312 C 454.226562 277.132812 457.296875 277.945312 459.851562 280.257812 C 461.019531 281.320312 462.214844 282.34375 463.386719 283.398438 C 465.214844 285.050781 467.414062 285.722656 469.808594 285.96875 C 471.886719 286.183594 473.824219 285.472656 475.800781 285.066406 C 478.371094 284.53125 480.617188 283.160156 482.890625 281.9375 C 486.121094 280.199219 489.410156 278.648438 492.96875 277.734375 C 495.269531 277.140625 497.59375 276.632812 499.925781 276.171875 C 504.058594 275.355469 508.003906 275.871094 511.695312 277.996094 C 514.859375 279.8125 518.253906 280.777344 521.925781 280.730469 C 523.515625 280.707031 525.105469 280.738281 526.691406 280.8125 C 529.132812 280.921875 531.53125 280.640625 533.894531 280.074219 C 536.824219 279.371094 539.738281 278.601562 542.65625 277.828125 C 545.101562 277.179688 547.566406 276.699219 550.101562 276.917969 C 553.558594 277.21875 556.925781 277.96875 560.25 278.988281 C 561.769531 279.453125 563.40625 279.746094 564.992188 279.765625 C 566.691406 279.789062 568.390625 279.449219 569.96875 278.667969 C 573.75 276.808594 577.5625 275.011719 581.359375 273.167969 C 584.335938 271.71875 587.523438 270.929688 590.757812 270.398438 C 593.183594 269.996094 595.648438 270.195312 598.097656 270.425781 C 599.621094 270.566406 601.125 270.535156 602.648438 270.058594 C 605 269.328125 607.222656 268.296875 609.410156 267.238281 C 612.128906 265.929688 614.808594 265.691406 617.640625 266.683594 C 618.921875 267.132812 620.242188 267.46875 621.441406 267.824219 C 622.765625 266.621094 623.363281 265.234375 623.875 263.816406 C 624.28125 262.6875 624.246094 261.582031 623.640625 260.507812 C 622.882812 259.175781 622.175781 257.847656 621.355469 256.347656 Z M 514.9375 307.085938 C 515.914062 306.902344 516.894531 306.734375 517.867188 306.53125 C 522.554688 305.5625 527.257812 306.167969 531.960938 306.328125 C 534.105469 306.394531 536.253906 306.445312 538.402344 306.453125 C 540.691406 306.457031 542.980469 306.410156 545.269531 306.359375 C 547.320312 306.3125 549.375 306.269531 551.421875 306.144531 C 554.019531 305.988281 556.628906 305.480469 559.203125 305.605469 C 562.066406 305.746094 564.835938 305.777344 567.601562 304.878906 C 570.472656 303.949219 573.410156 303.21875 576.308594 302.371094 C 581.128906 300.964844 586.011719 300.035156 591.066406 300.292969 C 591.5 300.3125 591.933594 300.253906 592.597656 300.21875 C 592.214844 299.804688 592.027344 299.558594 591.796875 299.359375 C 591.558594 299.152344 591.25 299.023438 591.023438 298.800781 C 588.605469 296.433594 585.722656 294.945312 582.421875 294.230469 C 580.863281 293.890625 579.238281 293.902344 577.691406 293.628906 C 575.191406 293.191406 572.703125 292.4375 570.355469 291.472656 C 567.578125 290.332031 564.949219 288.820312 562.265625 287.46875 C 560.996094 286.832031 559.726562 286.203125 558.472656 285.539062 C 557.484375 285.019531 556.507812 284.882812 555.453125 285.367188 C 553.664062 286.1875 551.847656 286.953125 550.070312 287.78125 C 548.953125 288.304688 547.832031 288.855469 546.789062 289.507812 C 542.941406 291.910156 539.46875 294.785156 536.1875 297.917969 C 534.273438 299.742188 531.996094 301.136719 529.703125 302.453125 C 526.429688 304.332031 522.753906 304.925781 519.105469 305.578125 C 517.644531 305.84375 516.238281 306.300781 514.9375 307.085938 Z M 603.652344 303.453125 C 603.867188 303.179688 603.992188 303.085938 604.035156 302.964844 C 605.074219 299.90625 606.820312 297.222656 608.554688 294.539062 C 609.757812 292.679688 611.273438 291.09375 612.859375 289.578125 C 616.125 286.464844 619.382812 283.351562 621.507812 279.277344 C 622.394531 277.578125 623.378906 275.933594 624.3125 274.253906 C 624.621094 273.707031 624.667969 273.152344 624.265625 272.539062 C 622.875 272.957031 621.472656 273.289062 620.082031 272.785156 C 618.972656 272.382812 617.90625 271.871094 616.835938 271.363281 C 616.125 271.03125 615.394531 270.617188 614.621094 270.863281 C 613.667969 271.160156 612.714844 271.542969 611.871094 272.070312 C 610.367188 273.015625 608.929688 274.066406 607.503906 275.128906 C 605.664062 276.492188 603.558594 276.980469 601.34375 277.085938 C 599.21875 277.1875 597.179688 276.738281 595.164062 276.0625 C 592.847656 275.292969 590.515625 274.898438 588.035156 275.640625 C 584.957031 276.5625 582.507812 278.398438 580.128906 280.410156 C 578.15625 282.082031 576.320312 283.953125 573.832031 284.925781 C 573.304688 285.128906 572.835938 285.46875 572.144531 285.847656 C 572.925781 286.164062 573.515625 286.382812 574.085938 286.628906 C 576.421875 287.648438 578.738281 288.710938 581.097656 289.691406 C 583.582031 290.722656 586.175781 291.535156 588.601562 292.6875 C 592.617188 294.605469 596.160156 297.292969 599.625 300.0625 C 600.96875 301.144531 602.261719 302.28125 603.652344 303.453125 Z M 409.199219 346.507812 C 409.089844 346.464844 408.980469 346.429688 408.871094 346.386719 C 408.5 347.101562 407.988281 347.777344 407.785156 348.539062 C 407.21875 350.605469 406.730469 352.6875 406.304688 354.789062 C 405.824219 357.175781 405.699219 359.558594 406.480469 361.949219 C 407.261719 364.335938 408.234375 366.660156 410.21875 368.222656 C 412.863281 370.300781 415.550781 372.355469 418.589844 373.875 C 419.394531 374.277344 420.121094 374.832031 420.90625 375.328125 C 421.023438 375.105469 421.089844 374.988281 421.152344 374.871094 C 421.980469 373.238281 422.796875 371.609375 423.636719 369.988281 C 424.3125 368.691406 425.046875 367.433594 425.703125 366.128906 C 426.308594 364.914062 426.183594 363.621094 425.910156 362.359375 C 425.441406 360.195312 424.070312 358.792969 421.945312 358.265625 C 420.492188 357.902344 418.980469 357.75 417.492188 357.53125 C 415.695312 357.269531 413.835938 357.261719 412.285156 356.105469 C 410.792969 355 409.613281 353.691406 409.46875 351.734375 C 409.394531 350.746094 409.382812 349.746094 409.335938 348.753906 C 409.300781 347.996094 409.246094 347.25 409.199219 346.507812 Z M 409.199219 346.507812 " fill-opacity="1" fill-rule="nonzero"/></g><path fill="#ffca9e" d="M 612.964844 243.265625 C 613.136719 244.125 612.90625 244.589844 612.367188 245 C 611.09375 245.964844 609.640625 246.523438 608.109375 246.8125 C 603.527344 247.667969 598.945312 248.574219 594.335938 249.230469 C 591.953125 249.570312 589.488281 249.628906 587.085938 249.460938 C 584.566406 249.289062 582.125 249.480469 579.75 250.171875 C 576.546875 251.097656 573.300781 251.6875 569.988281 251.34375 C 566.289062 250.957031 562.792969 251.671875 559.300781 252.734375 C 556.476562 253.589844 553.574219 253.996094 550.617188 253.683594 C 549.851562 253.605469 549.082031 253.410156 548.359375 253.140625 C 548.054688 253.023438 547.667969 252.570312 547.675781 252.28125 C 547.6875 251.984375 548.09375 251.53125 548.410156 251.453125 C 550.007812 251.054688 551.621094 250.714844 553.242188 250.429688 C 555.957031 249.953125 558.703125 249.789062 561.457031 249.941406 C 563.476562 250.050781 565.359375 249.429688 567.21875 248.804688 C 570.964844 247.535156 574.800781 247.089844 578.722656 247.417969 C 581.503906 247.648438 584.199219 247.277344 586.847656 246.429688 C 589.355469 245.625 591.945312 245.230469 594.5625 245.238281 C 599.035156 245.253906 603.402344 244.492188 607.78125 243.753906 C 609 243.550781 610.214844 243.347656 611.445312 243.195312 C 611.914062 243.140625 612.421875 243.238281 612.964844 243.265625 Z M 612.964844 243.265625 " fill-opacity="1" fill-rule="nonzero"/><path fill="#ffca9e" d="M 431.792969 246.539062 C 434.429688 246.734375 437.066406 246.855469 439.691406 247.140625 C 441.496094 247.339844 443.277344 247.816406 445.082031 248.09375 C 448.042969 248.550781 451.015625 248.277344 453.984375 248.171875 C 455.171875 248.128906 456.378906 248.128906 457.550781 248.28125 C 458.484375 248.402344 459.367188 248.886719 460.300781 249.015625 C 462.605469 249.351562 464.933594 249.554688 467.242188 249.851562 C 467.960938 249.949219 468.679688 250.125 469.367188 250.359375 C 469.609375 250.4375 469.910156 250.800781 469.90625 251.023438 C 469.894531 251.265625 469.601562 251.574219 469.359375 251.714844 C 469.050781 251.886719 468.667969 251.960938 468.308594 252.011719 C 466.09375 252.332031 463.867188 252.601562 461.652344 252.953125 C 459.023438 253.363281 456.488281 253.039062 453.914062 252.402344 C 450.359375 251.53125 446.765625 250.730469 443.054688 251.011719 C 440.953125 251.171875 438.847656 251.300781 436.761719 251.589844 C 434.214844 251.9375 431.746094 251.621094 429.285156 251.003906 C 427.640625 250.589844 425.984375 250.234375 424.34375 249.8125 C 423.507812 249.597656 422.683594 249.320312 421.886719 248.984375 C 421.601562 248.867188 421.417969 248.5 421.1875 248.242188 C 421.453125 248.039062 421.699219 247.710938 421.996094 247.652344 C 423.570312 247.355469 425.144531 247.054688 426.730469 246.890625 C 428.410156 246.722656 430.101562 246.71875 431.785156 246.644531 C 431.789062 246.613281 431.789062 246.578125 431.792969 246.539062 Z M 431.792969 246.539062 " fill-opacity="1" fill-rule="nonzero"/><path fill="#ffca9e" d="M 519.246094 254.394531 C 517.152344 253.8125 515.503906 254.554688 513.859375 255.042969 C 512.808594 255.351562 511.789062 255.402344 510.75 255.320312 C 509.566406 255.21875 508.378906 255.066406 507.207031 254.855469 C 503.324219 254.144531 499.507812 254.382812 495.640625 255.160156 C 493.378906 255.617188 491 255.789062 488.683594 255.304688 C 486.671875 254.875 484.691406 254.304688 482.714844 253.746094 C 482.167969 253.59375 481.4375 253.421875 481.480469 252.664062 C 481.523438 251.945312 482.242188 251.78125 482.796875 251.644531 C 483.589844 251.453125 484.417969 251.359375 485.238281 251.28125 C 488.25 250.988281 491.265625 251.144531 494.277344 251.304688 C 495.089844 251.351562 495.910156 251.519531 496.710938 251.71875 C 499.761719 252.476562 502.792969 252.074219 505.84375 251.699219 C 508.886719 251.320312 511.953125 251.171875 514.992188 251.765625 C 516.691406 252.101562 518.371094 251.765625 520.058594 251.722656 C 521.285156 251.691406 522.519531 251.816406 523.746094 251.9375 C 524.191406 251.980469 524.695312 252.171875 524.71875 252.75 C 524.734375 253.296875 524.304688 253.585938 523.84375 253.667969 C 522.230469 253.957031 520.605469 254.183594 519.246094 254.394531 Z M 519.246094 254.394531 " fill-opacity="1" fill-rule="nonzero"/><path fill="#ffca9e" d="M 407.890625 234.792969 C 407.992188 232.632812 408.425781 230.636719 409.828125 228.886719 C 410.851562 227.605469 411.613281 226.164062 412.238281 224.605469 C 413.390625 221.710938 415.769531 220.023438 418.621094 218.972656 C 419.097656 218.796875 419.703125 218.628906 419.984375 219.167969 C 420.15625 219.496094 420.09375 220.058594 419.933594 220.429688 C 419.101562 222.375 418.0625 224.203125 416.664062 225.808594 C 416.363281 226.148438 416.035156 226.476562 415.660156 226.726562 C 413.6875 228.035156 412.460938 229.757812 412.128906 232.175781 C 411.929688 233.609375 411.375 234.992188 410.941406 236.382812 C 410.746094 237.003906 410.429688 237.59375 409.628906 237.570312 C 408.867188 237.542969 408.496094 236.996094 408.269531 236.382812 C 408.074219 235.871094 408.003906 235.324219 407.890625 234.792969 Z M 407.890625 234.792969 " fill-opacity="1" fill-rule="nonzero"/><path fill="#ffca9e" d="M 576.152344 209.898438 C 576.164062 209.730469 576.160156 209.359375 576.199219 208.992188 C 576.375 207.519531 577.328125 207.054688 578.667969 207.601562 C 580.003906 208.152344 581.039062 209.191406 581.792969 210.394531 C 582.539062 211.585938 583.066406 212.910156 583.339844 214.332031 C 583.546875 215.421875 583.359375 216.421875 582.921875 217.382812 C 582.398438 218.523438 581.289062 218.910156 580.074219 218.539062 C 578.890625 218.179688 578.140625 217.378906 577.597656 216.328125 C 576.585938 214.375 576.226562 212.269531 576.152344 209.898438 Z M 576.152344 209.898438 " fill-opacity="1" fill-rule="nonzero"/><path fill="#ffca9e" d="M 533.035156 216.5 C 532.996094 216.789062 532.945312 217.195312 532.875 217.597656 C 532.703125 218.511719 532.238281 219.300781 531.316406 219.496094 C 530.328125 219.710938 529.261719 219.632812 528.558594 218.742188 C 527.992188 218.03125 527.402344 217.273438 527.109375 216.433594 C 526.332031 214.207031 526.070312 211.894531 526.445312 209.542969 C 526.488281 209.269531 526.535156 208.992188 526.636719 208.742188 C 527.058594 207.609375 528.003906 207.300781 528.890625 208.121094 C 529.585938 208.761719 530.125 209.582031 530.714844 210.339844 C 531.703125 211.621094 532.558594 212.96875 532.816406 214.609375 C 532.894531 215.195312 532.945312 215.785156 533.035156 216.5 Z M 533.035156 216.5 " fill-opacity="1" fill-rule="nonzero"/><path fill="#ffca9e" d="M 471.359375 211.746094 C 470.902344 213.753906 470.820312 215.925781 469.785156 217.875 C 468.835938 219.667969 467.058594 219.699219 466.195312 218.742188 C 465.617188 218.09375 465.222656 217.21875 464.933594 216.382812 C 464.566406 215.335938 464.902344 214.308594 465.367188 213.335938 C 466.203125 211.59375 467.230469 209.984375 468.496094 208.527344 C 468.585938 208.421875 468.683594 208.324219 468.765625 208.21875 C 469.164062 207.734375 469.679688 207.648438 470.257812 207.796875 C 470.839844 207.941406 471.03125 208.429688 471.097656 208.929688 C 471.21875 209.828125 471.269531 210.742188 471.359375 211.746094 Z M 471.359375 211.746094 " fill-opacity="1" fill-rule="nonzero"/><path fill="#ffca9e" d="M 494.601562 215.160156 C 494.449219 213.585938 494.8125 211.910156 495.683594 210.351562 C 495.875 210 496.140625 209.65625 496.453125 209.421875 C 496.988281 209.019531 497.699219 209.179688 497.949219 209.796875 C 498.917969 212.210938 500.007812 214.597656 500.335938 217.207031 C 500.515625 218.621094 500.421875 220.042969 499.042969 221 C 498.414062 221.433594 497.960938 221.476562 497.207031 221.078125 C 494.804688 219.808594 494.460938 217.722656 494.601562 215.160156 Z M 494.601562 215.160156 " fill-opacity="1" fill-rule="nonzero"/><path fill="#ffca9e" d="M 535.90625 198.398438 C 536 197.675781 536.039062 196.9375 536.203125 196.226562 C 536.363281 195.492188 536.726562 194.921875 537.601562 194.753906 C 538.46875 194.585938 538.945312 194.933594 539.421875 195.597656 C 540.769531 197.472656 541.589844 199.605469 542.492188 201.695312 C 542.871094 202.570312 542.984375 203.46875 542.152344 204.210938 C 541.449219 204.84375 540.351562 204.917969 539.332031 204.390625 C 536.90625 203.128906 536.039062 200.984375 535.90625 198.398438 Z M 535.90625 198.398438 " fill-opacity="1" fill-rule="nonzero"/><path fill="#ffca9e" d="M 549.519531 209.164062 C 550.324219 208.542969 551.011719 208.570312 551.753906 208.804688 C 554.640625 209.742188 556.804688 212.625 556.835938 215.757812 C 556.855469 217.691406 555.746094 218.351562 553.90625 217.746094 C 552.652344 217.332031 551.609375 216.429688 551.125 215.226562 C 550.339844 213.296875 549.78125 211.269531 549.519531 209.164062 Z M 549.519531 209.164062 " fill-opacity="1" fill-rule="nonzero"/><path fill="#ffca9e" d="M 437.917969 211.730469 C 437.929688 210.167969 438.566406 208.820312 439.792969 207.839844 C 440.8125 207.023438 441.835938 206.144531 443.242188 206.007812 C 444.214844 205.914062 445.09375 206.570312 445.054688 207.539062 C 444.972656 209.828125 444.40625 211.972656 442.742188 213.660156 C 442.207031 214.195312 441.589844 214.65625 440.753906 214.664062 C 438.550781 214.667969 438.085938 214.066406 437.917969 211.730469 Z M 437.917969 211.730469 " fill-opacity="1" fill-rule="nonzero"/><path fill="#ffca9e" d="M 480.6875 202.804688 C 480.804688 199.3125 482.796875 197.089844 485.679688 195.523438 C 486.5625 195.042969 487.605469 195.761719 487.53125 196.804688 C 487.316406 199.714844 486.3125 202.320312 484.28125 204.457031 C 483.675781 205.101562 482.921875 205.613281 481.976562 205.320312 C 481.207031 205.089844 480.628906 203.867188 480.6875 202.804688 Z M 480.6875 202.804688 " fill-opacity="1" fill-rule="nonzero"/><path fill="#ffca9e" d="M 421.941406 225.4375 C 422.671875 225.46875 422.847656 225.78125 422.785156 226.183594 C 422.730469 226.539062 422.546875 226.875 422.414062 227.214844 C 421.667969 229.175781 420.941406 231.148438 420.167969 233.097656 C 419.867188 233.855469 419.527344 234.621094 419.066406 235.289062 C 418.304688 236.394531 416.917969 236.230469 416.34375 235 C 415.425781 233.023438 415.820312 231.070312 416.960938 229.402344 C 417.796875 228.183594 419.023438 227.207031 420.179688 226.242188 C 420.707031 225.800781 421.480469 225.640625 421.941406 225.4375 Z M 421.941406 225.4375 " fill-opacity="1" fill-rule="nonzero"/><path fill="#ffca9e" d="M 514.429688 200.433594 C 514.136719 201.839844 513.96875 203.109375 513.582031 204.316406 C 513.21875 205.445312 512.171875 205.859375 511.167969 205.433594 C 510.886719 205.316406 510.550781 205.121094 510.433594 204.871094 C 509.648438 203.238281 508.671875 201.636719 509.449219 199.703125 C 509.925781 198.523438 510.375 197.324219 510.84375 196.140625 C 511.089844 195.523438 511.554688 195.179688 512.214844 195.199219 C 512.832031 195.21875 513.042969 195.753906 513.191406 196.21875 C 513.644531 197.644531 514.039062 199.097656 514.429688 200.433594 Z M 514.429688 200.433594 " fill-opacity="1" fill-rule="nonzero"/><path fill="#ffca9e" d="M 558.398438 198.097656 C 558.425781 197.859375 558.417969 197.535156 558.507812 197.230469 C 558.722656 196.503906 559.375 196.210938 560.003906 196.644531 C 562.703125 198.515625 564.523438 200.988281 564.964844 204.316406 C 565.054688 205.007812 564.898438 205.707031 564.183594 206.070312 C 563.507812 206.417969 562.886719 206.253906 562.296875 205.832031 C 559.679688 203.949219 558.671875 201.253906 558.398438 198.097656 Z M 558.398438 198.097656 " fill-opacity="1" fill-rule="nonzero"/><path fill="#ffca9e" d="M 442.136719 329.527344 C 438.304688 329.59375 435.585938 327.707031 435.128906 324.398438 C 435.066406 323.957031 434.847656 323.53125 434.679688 323.109375 C 434.191406 321.875 433.742188 321.644531 432.496094 322.121094 C 431.726562 322.414062 430.996094 322.804688 430.253906 323.160156 C 427.734375 324.375 425.292969 324.242188 423.214844 322.339844 C 421.652344 320.910156 419.945312 320.3125 417.863281 320.320312 C 416.992188 320.320312 416.085938 319.9375 415.257812 319.582031 C 414.71875 319.351562 414.28125 318.855469 414.421875 318.152344 C 414.550781 317.492188 415.089844 317.363281 415.648438 317.226562 C 416.585938 317 417.519531 316.777344 418.429688 316.472656 C 420.863281 315.664062 423.011719 316.140625 424.949219 317.785156 C 425.890625 318.585938 426.925781 319.273438 427.828125 320.109375 C 428.960938 321.160156 430.230469 321.101562 431.558594 320.773438 C 432.132812 320.632812 432.675781 320.367188 433.253906 320.199219 C 434.6875 319.777344 436.074219 319.917969 436.976562 321.1875 C 438.585938 323.445312 440.753906 324.644531 443.4375 325.121094 C 444.1875 325.257812 444.878906 325.699219 445.613281 325.957031 C 446.351562 326.214844 446.585938 326.777344 446.554688 327.460938 C 446.523438 328.15625 446.195312 328.714844 445.46875 328.871094 C 444.179688 329.144531 442.875 329.378906 442.136719 329.527344 Z M 442.136719 329.527344 " fill-opacity="1" fill-rule="nonzero"/><path fill="#ffca9e" d="M 520.09375 323.496094 C 520.933594 322.925781 521.796875 322.878906 522.652344 323.09375 C 523.40625 323.277344 524.179688 323.496094 524.847656 323.867188 C 527.726562 325.460938 530.707031 325.449219 533.757812 324.527344 C 535.519531 323.992188 537.304688 323.625 539.164062 323.710938 C 540.898438 323.789062 542.632812 323.871094 544.371094 323.960938 C 544.640625 323.976562 544.921875 323.992188 545.191406 324.050781 C 545.832031 324.191406 546.261719 324.550781 546.285156 325.261719 C 546.3125 325.945312 545.875 326.265625 545.300781 326.394531 C 544.050781 326.683594 542.800781 327.050781 541.539062 327.160156 C 539.542969 327.332031 537.519531 327.519531 535.558594 326.75 C 534.890625 326.488281 534.238281 326.699219 533.601562 327.070312 C 532.371094 327.78125 531.140625 328.496094 529.832031 329.03125 C 529.054688 329.347656 528.140625 329.441406 527.289062 329.425781 C 525.480469 329.394531 524.105469 328.5 523.453125 326.808594 C 522.898438 325.367188 522.078125 324.359375 520.496094 324.097656 C 520.378906 324.074219 520.277344 323.949219 520.191406 323.851562 C 520.140625 323.792969 520.140625 323.683594 520.09375 323.496094 Z M 520.09375 323.496094 " fill-opacity="1" fill-rule="nonzero"/><path fill="#ffca9e" d="M 601.199219 315.753906 C 600.78125 315.839844 600.363281 315.996094 599.945312 316.003906 C 598.136719 316.03125 596.71875 316.785156 595.464844 318.058594 C 593.914062 319.628906 592.027344 320.757812 590.105469 321.828125 C 588.441406 322.753906 586.644531 322.984375 584.789062 322.804688 C 583.257812 322.660156 582.167969 321.765625 581.390625 320.519531 C 580.6875 319.382812 581.128906 318.410156 582.472656 318.21875 C 583.59375 318.058594 584.753906 318.089844 585.894531 318.082031 C 587.882812 318.078125 589.808594 317.710938 591.644531 316.964844 C 593.128906 316.359375 594.585938 315.695312 596.039062 315.019531 C 597.289062 314.445312 598.570312 314.214844 599.917969 314.523438 C 600.476562 314.65625 601.09375 314.796875 601.199219 315.753906 Z M 601.199219 315.753906 " fill-opacity="1" fill-rule="nonzero"/><path fill="#ffca9e" d="M 517.789062 324.335938 C 517.589844 324.621094 517.449219 324.96875 517.1875 325.171875 C 515.6875 326.371094 514.1875 327.566406 512.636719 328.695312 C 511.207031 329.738281 509.613281 330.386719 507.78125 330.242188 C 505.675781 330.078125 503.925781 329.144531 502.441406 327.710938 C 501.859375 327.148438 501.21875 326.359375 501.636719 325.535156 C 502.066406 324.703125 503.054688 324.832031 503.863281 324.964844 C 505.667969 325.257812 507.460938 325.589844 509.25 325.941406 C 510.457031 326.175781 511.617188 326.019531 512.769531 325.675781 C 514.378906 325.183594 515.980469 324.660156 517.585938 324.148438 C 517.652344 324.21875 517.722656 324.28125 517.789062 324.335938 Z M 517.789062 324.335938 " fill-opacity="1" fill-rule="nonzero"/><path fill="#ffca9e" d="M 468.5625 358.957031 C 467.007812 359.046875 465.554688 358.644531 464.136719 358.074219 C 463.28125 357.730469 462.414062 357.574219 461.46875 357.585938 C 458.792969 357.605469 456.304688 356.863281 454.089844 355.335938 C 452.652344 354.34375 451.175781 354.089844 449.554688 354.792969 C 448.296875 355.34375 447.046875 355.90625 445.773438 356.417969 C 444.667969 356.863281 443.566406 357.34375 442.417969 357.621094 C 440.09375 358.183594 437.804688 356.828125 436.988281 354.496094 C 436.804688 353.980469 436.695312 353.4375 436.582031 352.902344 C 436.398438 352.046875 436.167969 351.242188 435.566406 350.542969 C 434.933594 349.804688 435.316406 348.925781 436.292969 348.742188 C 437.15625 348.582031 437.992188 348.78125 438.582031 349.402344 C 439.296875 350.160156 439.988281 350.976562 440.511719 351.875 C 441.394531 353.378906 442.570312 354.152344 444.339844 353.90625 C 445.289062 353.769531 446.242188 353.632812 447.199219 353.535156 C 448.335938 353.414062 449.480469 353.351562 450.613281 353.238281 C 451.660156 353.132812 452.722656 353.074219 453.738281 352.839844 C 455.636719 352.402344 457.496094 352.601562 459.308594 353.105469 C 461.550781 353.734375 463.746094 354.535156 465.960938 355.257812 C 467.269531 355.6875 468.574219 356.101562 469.875 356.535156 C 470.308594 356.679688 470.753906 356.816406 471.140625 357.046875 C 471.378906 357.191406 471.714844 357.558594 471.667969 357.730469 C 471.566406 358.082031 471.289062 358.5625 470.992188 358.636719 C 470.214844 358.84375 469.382812 358.863281 468.5625 358.957031 Z M 468.5625 358.957031 " fill-opacity="1" fill-rule="nonzero"/><path fill="#ffca9e" d="M 592.738281 346.058594 C 593 345.070312 593.703125 344.988281 594.382812 345.039062 C 595.339844 345.113281 596.316406 345.199219 597.226562 345.472656 C 598.445312 345.839844 599.363281 345.484375 600.230469 344.6875 C 600.667969 344.285156 601.140625 343.921875 601.609375 343.558594 C 602.066406 343.210938 602.59375 342.980469 603.136719 343.292969 C 603.746094 343.644531 603.738281 344.261719 603.679688 344.878906 C 603.34375 348.648438 599.253906 350.527344 596.097656 348.324219 C 595.496094 347.90625 594.988281 347.359375 594.390625 346.941406 C 593.917969 346.613281 593.363281 346.386719 592.738281 346.058594 Z M 592.738281 346.058594 " fill-opacity="1" fill-rule="nonzero"/><path fill="#ffca9e" d="M 589.46875 348.023438 C 588.503906 349.746094 587.511719 351.460938 585.667969 352.453125 C 585.078125 352.773438 584.402344 353.011719 583.742188 353.101562 C 581.359375 353.421875 578.722656 351.542969 578.195312 349.175781 C 578.128906 348.871094 578.191406 348.351562 578.390625 348.199219 C 578.65625 347.996094 579.152344 347.945312 579.496094 348.03125 C 579.921875 348.144531 580.296875 348.457031 580.6875 348.691406 C 582.328125 349.65625 583.976562 349.941406 585.714844 348.875 C 586.410156 348.453125 587.199219 348.175781 587.96875 347.886719 C 588.363281 347.742188 588.808594 347.71875 589.230469 347.648438 C 589.316406 347.777344 589.394531 347.898438 589.46875 348.023438 Z M 589.46875 348.023438 " fill-opacity="1" fill-rule="nonzero"/><path fill="#ffca9e" d="M 505.625 363.085938 C 506.765625 362.949219 507.21875 363.722656 507.78125 364.285156 C 507.972656 364.472656 508.054688 364.765625 508.234375 364.960938 C 509.003906 365.84375 509.898438 366.375 511.128906 365.902344 C 511.640625 365.710938 512.160156 365.542969 512.695312 365.417969 C 513.578125 365.207031 514.105469 365.742188 513.929688 366.625 C 513.609375 368.207031 511.917969 369.734375 510.28125 369.910156 C 508.5625 370.09375 506.785156 369.191406 506.152344 367.597656 C 505.738281 366.554688 505.546875 365.417969 505.363281 364.308594 C 505.289062 363.917969 505.53125 363.472656 505.625 363.085938 Z M 505.625 363.085938 " fill-opacity="1" fill-rule="nonzero"/><path fill="#ffca9e" d="M 499.988281 387.144531 C 498.027344 386.992188 496.070312 386.789062 494.105469 386.710938 C 491.914062 386.621094 489.71875 386.679688 487.523438 386.605469 C 486.386719 386.566406 485.238281 386.472656 484.128906 386.238281 C 480.613281 385.496094 477.066406 385.203125 473.480469 385.433594 C 472.207031 385.519531 470.945312 385.835938 469.675781 385.960938 C 468.636719 386.066406 467.542969 386.238281 466.550781 386.035156 C 464.675781 385.652344 462.847656 385.054688 461.011719 384.476562 C 460.460938 384.304688 459.925781 383.976562 459.460938 383.617188 C 458.683594 383.003906 458.746094 382.351562 459.625 381.914062 C 460.792969 381.324219 462.042969 381.164062 463.355469 381.210938 C 466.304688 381.316406 469.132812 381.984375 471.9375 382.851562 C 474.699219 383.703125 477.539062 383.632812 480.378906 383.277344 C 482.144531 383.058594 483.914062 382.703125 485.6875 382.695312 C 487.597656 382.691406 489.542969 382.851562 491.414062 383.238281 C 494.363281 383.847656 497.265625 384.691406 500.179688 385.457031 C 500.621094 385.570312 501.058594 385.738281 501.449219 385.972656 C 501.636719 386.085938 501.789062 386.394531 501.800781 386.625 C 501.804688 386.761719 501.523438 386.996094 501.335938 387.039062 C 500.894531 387.144531 500.429688 387.160156 499.976562 387.210938 C 499.988281 387.191406 499.988281 387.167969 499.988281 387.144531 Z M 499.988281 387.144531 " fill-opacity="1" fill-rule="nonzero"/><path fill="#ffca9e" d="M 584.179688 382.164062 C 583.859375 382.179688 583.535156 382.183594 583.21875 382.210938 C 582.730469 382.253906 582.351562 382.027344 582.308594 381.578125 C 582.28125 381.289062 582.476562 380.847656 582.714844 380.695312 C 583.449219 380.234375 584.226562 379.824219 585.027344 379.503906 C 587.925781 378.359375 590.910156 377.425781 593.996094 376.996094 C 596.4375 376.65625 598.722656 375.917969 600.914062 374.863281 C 602.730469 373.992188 604.5 373.007812 606.34375 372.210938 C 607.683594 371.636719 609.109375 371.25 610.515625 370.863281 C 610.820312 370.777344 611.359375 370.960938 611.5625 371.210938 C 611.917969 371.644531 611.601562 372.046875 611.191406 372.355469 C 609.003906 374.023438 606.554688 375.125 603.863281 375.644531 C 601.824219 376.035156 599.84375 376.578125 597.953125 377.425781 C 596.113281 378.25 594.316406 379.160156 592.496094 380.027344 C 589.875 381.308594 587.09375 382.007812 584.179688 382.164062 Z M 584.179688 382.164062 " fill-opacity="1" fill-rule="nonzero"/><path fill="#ffca9e" d="M 528.019531 384.78125 C 529.535156 384.78125 531.046875 384.765625 532.558594 384.785156 C 533.15625 384.792969 533.75 384.839844 534.335938 384.933594 C 534.859375 385.015625 535.292969 385.292969 535.367188 385.890625 C 535.433594 386.421875 535.125 386.789062 534.675781 386.960938 C 533.4375 387.4375 532.214844 387.984375 530.929688 388.277344 C 528.925781 388.726562 526.878906 389.023438 524.835938 389.320312 C 522.152344 389.714844 519.535156 389.4375 517.027344 388.355469 C 516.648438 388.191406 516.246094 388.042969 516.273438 387.503906 C 516.292969 387.011719 516.4375 386.605469 516.941406 386.410156 C 517.199219 386.3125 517.433594 386.15625 517.695312 386.085938 C 518.804688 385.800781 519.898438 385.417969 521.023438 385.292969 C 523.34375 385.027344 525.679688 384.902344 528.007812 384.71875 C 528.015625 384.738281 528.019531 384.761719 528.019531 384.78125 Z M 528.019531 384.78125 " fill-opacity="1" fill-rule="nonzero"/><path fill="#ffca9e" d="M 452.992188 295.835938 C 454.085938 296.289062 455.265625 296.597656 456.242188 297.230469 C 457.421875 297.992188 458.535156 298.921875 459.480469 299.957031 C 461.179688 301.8125 462.746094 303.785156 464.339844 305.734375 C 464.890625 306.40625 465.3125 307.179688 465.863281 307.847656 C 466.671875 308.835938 467.585938 309.738281 468.390625 310.730469 C 470 312.722656 471.5625 314.75 473.136719 316.765625 C 473.246094 316.90625 473.308594 317.089844 473.375 317.257812 C 473.65625 317.96875 473.554688 318.640625 473.105469 319.027344 C 472.671875 319.398438 471.675781 319.476562 471.175781 319.054688 C 470.660156 318.617188 470.21875 318.078125 469.800781 317.539062 C 469.097656 316.640625 468.496094 315.660156 467.738281 314.8125 C 466.128906 313.019531 465.0625 310.882812 463.828125 308.855469 C 462.195312 306.167969 460.03125 304.0625 457.265625 302.578125 C 455.152344 301.445312 453.605469 299.710938 452.238281 297.792969 C 452.136719 297.648438 452.019531 297.492188 451.957031 297.324219 C 451.640625 296.503906 452.03125 295.96875 452.992188 295.835938 Z M 452.992188 295.835938 " fill-opacity="1" fill-rule="nonzero"/><path fill="#ffca9e" d="M 517.957031 293.148438 C 518.40625 293.148438 518.5625 293.105469 518.675781 293.152344 C 519.078125 293.316406 519.601562 293.410156 519.828125 293.714844 C 520.15625 294.15625 519.703125 294.519531 519.386719 294.867188 C 518.207031 296.167969 516.648438 296.859375 515.054688 297.417969 C 513.375 298.007812 511.640625 298.441406 509.914062 298.917969 C 507.917969 299.464844 506.382812 300.808594 504.667969 301.855469 C 504.011719 302.257812 503.40625 302.789062 502.695312 303.03125 C 501.007812 303.597656 499.28125 304.058594 497.550781 304.496094 C 497.050781 304.621094 496.355469 304.800781 496.058594 304.203125 C 495.691406 303.46875 496.304688 303.011719 496.832031 302.644531 C 498.847656 301.214844 500.894531 299.898438 503.324219 299.183594 C 505.734375 298.476562 507.980469 297.4375 510.019531 295.828125 C 512.382812 293.972656 515.316406 293.425781 517.957031 293.148438 Z M 517.957031 293.148438 " fill-opacity="1" fill-rule="nonzero"/><path fill="#ffca9e" d="M 441.953125 289.949219 C 444.601562 290.378906 447.183594 291.261719 449.085938 293.539062 C 449.257812 293.75 449.429688 293.984375 449.511719 294.234375 C 449.746094 294.9375 449.277344 295.535156 448.519531 295.464844 C 448.027344 295.417969 447.523438 295.296875 447.074219 295.097656 C 445.207031 294.25 443.351562 293.378906 441.507812 292.480469 C 441.152344 292.308594 440.871094 291.976562 440.566406 291.703125 C 440.238281 291.402344 440.082031 291.058594 440.269531 290.605469 C 440.453125 290.160156 440.785156 290.003906 441.242188 290.003906 C 441.417969 290.003906 441.601562 289.976562 441.953125 289.949219 Z M 441.953125 289.949219 " fill-opacity="1" fill-rule="nonzero"/><path fill="#ffca9e" d="M 558.398438 270.925781 C 559.558594 271.332031 560.792969 271.601562 561.859375 272.183594 C 563.53125 273.105469 565.15625 272.988281 566.894531 272.523438 C 568.90625 271.992188 570.773438 271.269531 572.453125 269.96875 C 574.488281 268.402344 576.855469 268.652344 579.171875 269.238281 C 579.519531 269.328125 579.921875 269.824219 579.984375 270.191406 C 580.03125 270.457031 579.628906 270.90625 579.316406 271.105469 C 578.054688 271.910156 576.617188 272.226562 575.167969 272.46875 C 573.628906 272.71875 572.09375 272.957031 570.550781 273.152344 C 569.027344 273.339844 567.625 273.878906 566.277344 274.582031 C 562.695312 276.464844 561.617188 276.371094 558.433594 273.875 C 557.929688 273.476562 557.417969 273.089844 556.945312 272.65625 C 556.738281 272.457031 556.449219 272.085938 556.511719 271.910156 C 556.621094 271.621094 556.953125 271.347656 557.253906 271.21875 C 557.574219 271.078125 557.96875 271.109375 558.335938 271.066406 C 558.355469 271.015625 558.378906 270.96875 558.398438 270.925781 Z M 558.398438 270.925781 " fill-opacity="1" fill-rule="nonzero"/><path fill="#ffca9e" d="M 471.339844 282.3125 C 469.824219 282.175781 468.546875 281.679688 467.539062 280.539062 C 466.964844 279.890625 466.289062 279.328125 465.730469 278.667969 C 465.496094 278.386719 465.246094 277.828125 465.375 277.609375 C 465.5625 277.285156 466.09375 276.960938 466.453125 276.980469 C 467.214844 277.027344 467.96875 277.28125 468.710938 277.488281 C 469.457031 277.699219 470.179688 278 470.929688 278.183594 C 472.289062 278.519531 473.578125 278.09375 474.792969 277.574219 C 476.085938 277.011719 477.316406 276.308594 478.546875 275.617188 C 480.125 274.734375 481.8125 274.488281 483.582031 274.695312 C 483.835938 274.726562 484.273438 275.042969 484.253906 275.179688 C 484.210938 275.484375 484.003906 275.902344 483.746094 276.011719 C 483 276.339844 482.210938 276.683594 481.410156 276.769531 C 479.441406 276.976562 477.855469 277.785156 476.550781 279.28125 C 475.648438 280.320312 474.589844 281.210938 473.285156 281.726562 C 472.660156 281.976562 471.992188 282.117188 471.339844 282.3125 Z M 471.339844 282.3125 " fill-opacity="1" fill-rule="nonzero"/><path fill="#ffca9e" d="M 439.03125 272.828125 C 438.609375 273.597656 437.808594 273.636719 437.125 273.582031 C 435.703125 273.464844 434.570312 273.992188 433.402344 274.710938 C 432.519531 275.246094 431.5 275.617188 430.5 275.890625 C 428.976562 276.304688 427.625 275.894531 426.453125 274.792969 C 425.550781 273.941406 425 272.90625 424.699219 271.742188 C 424.621094 271.449219 424.730469 270.941406 424.945312 270.78125 C 425.167969 270.613281 425.664062 270.632812 425.953125 270.769531 C 426.398438 270.976562 426.808594 271.3125 427.160156 271.664062 C 428.273438 272.792969 429.636719 273.21875 431.160156 273.121094 C 432.746094 273.023438 434.324219 273.085938 435.796875 272.128906 C 436.957031 271.375 438.347656 271.824219 439.03125 272.828125 Z M 439.03125 272.828125 " fill-opacity="1" fill-rule="nonzero"/><path fill="#ffca9e" d="M 599.824219 294.855469 C 598.175781 294.558594 596.742188 294.152344 595.554688 293.121094 C 594.382812 292.105469 593.253906 291.027344 592.039062 290.0625 C 591.332031 289.5 590.511719 289.074219 589.710938 288.648438 C 588.664062 288.089844 587.570312 287.617188 586.519531 287.066406 C 585.5625 286.570312 585.144531 285.980469 585.304688 285.441406 C 585.445312 284.949219 586.207031 284.71875 587.257812 285.152344 C 588.421875 285.628906 589.785156 286.09375 590.546875 287 C 592.277344 289.035156 594.472656 290.210938 596.808594 291.285156 C 597.757812 291.722656 598.648438 292.296875 599.546875 292.839844 C 599.847656 293.023438 600.164062 293.269531 600.347656 293.5625 C 600.492188 293.796875 600.570312 294.199219 600.464844 294.429688 C 600.371094 294.652344 599.996094 294.753906 599.824219 294.855469 Z M 599.824219 294.855469 " fill-opacity="1" fill-rule="nonzero"/><path fill="#ffca9e" d="M 607.011719 290.691406 C 606.882812 290.457031 606.617188 290.203125 606.640625 289.980469 C 606.679688 289.644531 606.847656 289.261719 607.074219 289 C 608.125 287.792969 609.171875 286.574219 610.308594 285.453125 C 611.296875 284.480469 612.195312 283.476562 612.796875 282.207031 C 613.601562 280.515625 614.8125 279.15625 616.433594 278.183594 C 616.589844 278.089844 616.730469 277.964844 616.898438 277.898438 C 617.3125 277.722656 617.761719 277.4375 618.164062 277.875 C 618.613281 278.371094 618.300781 278.878906 617.96875 279.222656 C 617.082031 280.148438 616.171875 281.0625 615.183594 281.871094 C 613.847656 282.964844 612.765625 284.136719 612.210938 285.859375 C 611.496094 288.082031 609.527344 289.265625 607.691406 290.488281 C 607.539062 290.582031 607.34375 290.597656 607.011719 290.691406 Z M 607.011719 290.691406 " fill-opacity="1" fill-rule="nonzero"/></svg>