<svg xmlns="http://www.w3.org/2000/svg" xmlns:xlink="http://www.w3.org/1999/xlink" width="1366" zoomAndPan="magnify" viewBox="0 0 1024.5 524.25" height="699" preserveAspectRatio="xMidYMid meet" version="1.0"><defs><clipPath id="5cf3188e4c"><path d="M 422.785156 141.917969 L 540 141.917969 L 540 351.617188 L 422.785156 351.617188 Z M 422.785156 141.917969 " clip-rule="nonzero"/></clipPath></defs><path fill="#ffca9e" d="M 477.40625 290.910156 C 477.167969 291.167969 476.925781 291.417969 476.675781 291.65625 C 476.304688 292.011719 476.289062 292.597656 476.644531 292.96875 C 476.828125 293.15625 477.070312 293.253906 477.316406 293.253906 C 477.558594 293.253906 477.777344 293.171875 477.957031 292.996094 C 478.238281 292.726562 478.507812 292.453125 478.773438 292.167969 C 479.117188 291.789062 479.097656 291.203125 478.71875 290.855469 C 478.34375 290.511719 477.757812 290.535156 477.40625 290.910156 Z M 477.40625 290.910156 " fill-opacity="1" fill-rule="nonzero"/><path fill="#ffca9e" d="M 476.277344 294.539062 C 476.339844 294.429688 476.382812 294.300781 476.394531 294.183594 C 476.511719 293.890625 476.5 293.546875 476.296875 293.277344 C 475.984375 292.863281 475.402344 292.789062 475 293.09375 C 473.589844 294.15625 472.039062 294.992188 470.378906 295.59375 C 462.34375 298.503906 453.332031 295.398438 447.957031 287.847656 C 447.660156 287.425781 447.085938 287.328125 446.667969 287.628906 C 446.25 287.929688 446.152344 288.507812 446.453125 288.921875 C 450.839844 295.085938 457.480469 298.527344 464.242188 298.527344 C 466.175781 298.527344 468.125 298.226562 470.027344 297.640625 C 469.339844 298.058594 468.703125 298.394531 468.222656 298.558594 C 465.777344 299.445312 463.210938 299.789062 460.585938 299.558594 C 460.0625 299.503906 459.628906 299.894531 459.582031 300.402344 C 459.539062 300.914062 459.914062 301.359375 460.425781 301.40625 C 461.003906 301.457031 461.582031 301.484375 462.15625 301.484375 C 464.445312 301.484375 466.691406 301.085938 468.847656 300.304688 C 470.636719 299.65625 474.914062 296.90625 476.28125 294.539062 Z M 476.277344 294.539062 " fill-opacity="1" fill-rule="nonzero"/><path fill="#ffca9e" d="M 465.582031 273.871094 C 465.738281 274.066406 465.972656 274.179688 466.210938 274.179688 C 466.300781 274.179688 466.394531 274.164062 466.484375 274.128906 L 476.960938 270.328125 C 477.6875 270.0625 478.230469 269.480469 478.445312 268.726562 C 478.675781 267.953125 478.515625 267.101562 478.019531 266.460938 L 475.640625 263.332031 C 475.152344 262.683594 474.378906 262.34375 473.582031 262.34375 C 472.792969 262.371094 472.09375 262.773438 471.667969 263.4375 L 465.519531 272.945312 C 465.332031 273.230469 465.351562 273.605469 465.570312 273.878906 Z M 473.03125 264.304688 C 473.226562 264.003906 473.503906 263.953125 473.652344 263.945312 C 473.660156 263.945312 473.671875 263.945312 473.679688 263.945312 C 473.945312 263.945312 474.195312 264.074219 474.363281 264.304688 L 476.742188 267.429688 C 476.933594 267.675781 476.988281 267.988281 476.90625 268.273438 C 476.863281 268.429688 476.738281 268.699219 476.410156 268.8125 L 468.171875 271.800781 L 473.023438 264.304688 Z M 473.03125 264.304688 " fill-opacity="1" fill-rule="nonzero"/><path fill="#ffca9e" d="M 477.414062 280.789062 L 466.714844 277.355469 C 466.378906 277.242188 466.015625 277.371094 465.8125 277.65625 C 465.609375 277.941406 465.617188 278.324219 465.828125 278.605469 L 472.800781 287.769531 C 473.273438 288.398438 474 288.761719 474.769531 288.761719 L 474.859375 288.761719 C 475.648438 288.734375 476.347656 288.328125 476.773438 287.664062 L 478.769531 284.578125 C 479.195312 283.917969 479.285156 283.105469 479.011719 282.351562 C 478.738281 281.597656 478.160156 281.035156 477.40625 280.789062 Z M 477.414062 283.707031 L 475.417969 286.800781 C 475.222656 287.097656 474.941406 287.148438 474.796875 287.15625 C 474.496094 287.226562 474.257812 287.035156 474.078125 286.800781 L 468.648438 279.664062 L 476.917969 282.316406 C 477.191406 282.402344 477.398438 282.617188 477.496094 282.890625 C 477.601562 283.167969 477.566406 283.46875 477.414062 283.707031 Z M 477.414062 283.707031 " fill-opacity="1" fill-rule="nonzero"/><path fill="#ffca9e" d="M 477.261719 271.144531 L 466.726562 274.96875 C 466.40625 275.085938 466.195312 275.394531 466.195312 275.734375 C 466.203125 276.078125 466.425781 276.378906 466.753906 276.488281 L 477.617188 279.972656 C 477.859375 280.050781 478.113281 280.089844 478.363281 280.089844 C 478.878906 280.089844 479.382812 279.925781 479.800781 279.597656 C 480.4375 279.109375 480.792969 278.332031 480.757812 277.515625 L 480.570312 273.433594 C 480.535156 272.617188 480.109375 271.863281 479.4375 271.414062 C 478.78125 270.984375 477.992188 270.878906 477.265625 271.144531 Z M 478.957031 273.507812 L 479.144531 277.59375 C 479.160156 277.894531 479.039062 278.15625 478.816406 278.324219 C 478.699219 278.417969 478.441406 278.554688 478.105469 278.445312 L 469.484375 275.679688 L 477.8125 272.65625 C 478.148438 272.539062 478.40625 272.664062 478.539062 272.753906 C 478.789062 272.921875 478.941406 273.203125 478.964844 273.507812 Z M 478.957031 273.507812 " fill-opacity="1" fill-rule="nonzero"/><path fill="#ffca9e" d="M 461.5 279.171875 L 455.351562 288.667969 C 454.917969 289.332031 454.835938 290.148438 455.105469 290.910156 C 455.378906 291.671875 455.972656 292.238281 456.734375 292.472656 L 460.398438 293.613281 C 460.640625 293.6875 460.886719 293.722656 461.121094 293.722656 C 461.640625 293.722656 462.140625 293.554688 462.566406 293.226562 C 463.195312 292.738281 463.550781 291.964844 463.515625 291.15625 L 462.988281 279.582031 C 462.972656 279.234375 462.734375 278.933594 462.394531 278.84375 C 462.058594 278.75 461.695312 278.890625 461.507812 279.175781 Z M 461.578125 291.949219 C 461.457031 292.042969 461.214844 292.179688 460.863281 292.074219 L 457.199219 290.9375 C 456.929688 290.855469 456.710938 290.644531 456.613281 290.367188 C 456.507812 290.085938 456.542969 289.785156 456.699219 289.550781 L 461.484375 282.152344 L 461.90625 291.21875 C 461.917969 291.519531 461.800781 291.78125 461.578125 291.949219 Z M 461.578125 291.949219 " fill-opacity="1" fill-rule="nonzero"/><path fill="#ffca9e" d="M 460.800781 277.699219 C 460.585938 277.425781 460.222656 277.328125 459.902344 277.4375 L 449.417969 281.242188 C 448.699219 281.507812 448.15625 282.085938 447.929688 282.839844 C 447.699219 283.617188 447.859375 284.46875 448.351562 285.117188 L 450.722656 288.242188 C 451.199219 288.867188 451.929688 289.226562 452.691406 289.226562 L 452.78125 289.226562 C 453.5625 289.199219 454.261719 288.796875 454.695312 288.132812 L 460.84375 278.632812 C 461.03125 278.347656 461.011719 277.96875 460.792969 277.699219 Z M 453.355469 287.261719 C 453.160156 287.558594 452.878906 287.617188 452.726562 287.621094 C 452.710938 287.621094 452.707031 287.621094 452.699219 287.621094 C 452.433594 287.621094 452.183594 287.496094 452.007812 287.265625 L 449.632812 284.148438 C 449.445312 283.894531 449.390625 283.589844 449.472656 283.296875 C 449.515625 283.140625 449.640625 282.871094 449.96875 282.757812 L 458.207031 279.769531 L 453.355469 287.265625 Z M 453.355469 287.261719 " fill-opacity="1" fill-rule="nonzero"/><path fill="#ffca9e" d="M 464.285156 278.800781 C 463.957031 278.917969 463.742188 279.238281 463.761719 279.589844 L 464.292969 291.160156 C 464.328125 291.976562 464.753906 292.726562 465.429688 293.179688 C 465.839844 293.449219 466.308594 293.597656 466.777344 293.597656 C 467.046875 293.597656 467.320312 293.546875 467.59375 293.449219 L 471.152344 292.160156 C 471.878906 291.894531 472.421875 291.316406 472.640625 290.5625 C 472.871094 289.785156 472.710938 288.933594 472.214844 288.285156 L 465.199219 279.066406 C 464.988281 278.785156 464.625 278.683594 464.285156 278.800781 Z M 470.9375 289.261719 C 471.125 289.507812 471.179688 289.820312 471.097656 290.109375 C 471.046875 290.261719 470.929688 290.535156 470.601562 290.644531 L 467.042969 291.9375 C 466.722656 292.046875 466.449219 291.921875 466.316406 291.839844 C 466.066406 291.671875 465.910156 291.390625 465.890625 291.085938 L 465.476562 282.082031 L 470.929688 289.257812 Z M 470.9375 289.261719 " fill-opacity="1" fill-rule="nonzero"/><path fill="#ffca9e" d="M 461.1875 272.496094 C 461.339844 272.699219 461.578125 272.820312 461.828125 272.820312 C 461.917969 272.820312 462.007812 272.804688 462.101562 272.769531 C 462.429688 272.652344 462.644531 272.328125 462.628906 271.980469 L 462.101562 260.410156 C 462.066406 259.589844 461.640625 258.84375 460.960938 258.390625 C 460.285156 257.9375 459.53125 257.855469 458.796875 258.117188 L 455.246094 259.410156 C 454.519531 259.667969 453.984375 260.253906 453.757812 261 C 453.527344 261.777344 453.6875 262.628906 454.179688 263.277344 L 461.191406 272.503906 Z M 455.292969 261.457031 C 455.335938 261.300781 455.460938 261.035156 455.789062 260.917969 L 459.34375 259.625 C 459.433594 259.589844 459.523438 259.578125 459.609375 259.578125 C 459.8125 259.578125 459.976562 259.660156 460.070312 259.722656 C 460.320312 259.890625 460.472656 260.171875 460.496094 260.476562 L 460.90625 269.476562 L 455.457031 262.308594 C 455.265625 262.054688 455.210938 261.75 455.292969 261.457031 Z M 455.292969 261.457031 " fill-opacity="1" fill-rule="nonzero"/><path fill="#ffca9e" d="M 464 272.742188 C 464.070312 272.761719 464.136719 272.769531 464.207031 272.769531 C 464.472656 272.769531 464.730469 272.636719 464.878906 272.398438 L 471.027344 262.898438 C 471.460938 262.238281 471.550781 261.414062 471.273438 260.660156 C 471 259.90625 470.40625 259.339844 469.652344 259.101562 L 465.988281 257.964844 C 465.226562 257.726562 464.445312 257.875 463.816406 258.347656 C 463.1875 258.839844 462.832031 259.613281 462.867188 260.429688 L 463.398438 272 C 463.414062 272.351562 463.648438 272.652344 463.992188 272.742188 Z M 464.808594 259.621094 C 464.890625 259.550781 465.058594 259.460938 465.269531 259.460938 C 465.347656 259.460938 465.421875 259.472656 465.511719 259.5 L 469.183594 260.640625 C 469.457031 260.722656 469.671875 260.933594 469.769531 261.210938 C 469.867188 261.492188 469.839844 261.789062 469.6875 262.027344 L 464.898438 269.425781 L 464.480469 260.359375 C 464.464844 260.058594 464.585938 259.792969 464.808594 259.625 Z M 464.808594 259.621094 " fill-opacity="1" fill-rule="nonzero"/><path fill="#ffca9e" d="M 446.953125 280.15625 C 447.367188 280.425781 447.832031 280.566406 448.300781 280.566406 C 448.574219 280.566406 448.851562 280.515625 449.117188 280.417969 L 459.601562 276.617188 C 459.929688 276.496094 460.140625 276.183594 460.132812 275.839844 C 460.125 275.5 459.894531 275.191406 459.566406 275.09375 L 448.753906 271.742188 C 447.992188 271.507812 447.210938 271.652344 446.582031 272.128906 C 445.957031 272.617188 445.601562 273.390625 445.632812 274.207031 L 445.816406 278.128906 C 445.851562 278.945312 446.277344 279.699219 446.945312 280.148438 Z M 447.574219 273.40625 C 447.660156 273.335938 447.828125 273.246094 448.035156 273.246094 C 448.113281 273.246094 448.1875 273.257812 448.28125 273.285156 L 456.808594 275.929688 L 448.574219 278.917969 C 448.230469 279.039062 447.972656 278.910156 447.847656 278.820312 C 447.597656 278.652344 447.441406 278.375 447.421875 278.066406 L 447.238281 274.144531 C 447.226562 273.84375 447.34375 273.578125 447.566406 273.410156 Z M 447.574219 273.40625 " fill-opacity="1" fill-rule="nonzero"/><path fill="#ffca9e" d="M 448.90625 270.921875 L 459.71875 274.269531 C 459.796875 274.292969 459.878906 274.304688 459.957031 274.304688 C 460.214844 274.304688 460.460938 274.179688 460.613281 273.964844 C 460.816406 273.675781 460.800781 273.292969 460.59375 273.015625 L 453.578125 263.785156 C 453.082031 263.136719 452.335938 262.808594 451.519531 262.800781 C 450.738281 262.832031 450.039062 263.234375 449.605469 263.898438 L 447.519531 267.121094 C 447.085938 267.785156 447.003906 268.601562 447.273438 269.363281 C 447.546875 270.125 448.140625 270.691406 448.894531 270.921875 Z M 448.878906 267.996094 L 450.960938 264.769531 C 451.15625 264.46875 451.433594 264.414062 451.589844 264.40625 C 451.929688 264.339844 452.132812 264.527344 452.308594 264.757812 L 457.800781 271.988281 L 449.382812 269.378906 C 449.109375 269.292969 448.902344 269.085938 448.796875 268.804688 C 448.691406 268.527344 448.726562 268.226562 448.878906 267.988281 Z M 448.878906 267.996094 " fill-opacity="1" fill-rule="nonzero"/><path fill="#ffca9e" d="M 471.78125 283.03125 C 471.933594 283.625 473.21875 284.59375 473.449219 283.664062 C 473.476562 282.9375 471.71875 281.835938 471.78125 283.03125 Z M 471.78125 283.03125 " fill-opacity="1" fill-rule="nonzero"/><path fill="#ffca9e" d="M 474.585938 283.128906 C 474.824219 283.691406 476.226562 284.46875 476.324219 283.503906 C 476.25 282.777344 474.363281 281.941406 474.585938 283.128906 Z M 474.585938 283.128906 " fill-opacity="1" fill-rule="nonzero"/><path fill="#ffca9e" d="M 473.539062 284.753906 C 473.671875 285.347656 474.914062 286.378906 475.1875 285.460938 C 475.242188 284.738281 473.53125 283.554688 473.539062 284.753906 Z M 473.539062 284.753906 " fill-opacity="1" fill-rule="nonzero"/><path fill="#ffca9e" d="M 454.777344 268.929688 C 454.667969 268.332031 453.453125 267.261719 453.152344 268.175781 C 453.074219 268.894531 454.75 270.132812 454.777344 268.929688 Z M 454.777344 268.929688 " fill-opacity="1" fill-rule="nonzero"/><path fill="#ffca9e" d="M 452.761719 268.917969 C 452.566406 268.335938 451.21875 267.457031 451.050781 268.40625 C 451.070312 269.132812 452.902344 270.109375 452.761719 268.917969 Z M 452.761719 268.917969 " fill-opacity="1" fill-rule="nonzero"/><path fill="#ffca9e" d="M 453.144531 267.089844 C 453.054688 266.488281 451.886719 265.363281 451.554688 266.257812 C 451.449219 266.96875 453.074219 268.28125 453.144531 267.089844 Z M 453.144531 267.089844 " fill-opacity="1" fill-rule="nonzero"/><path fill="#ffca9e" d="M 467.417969 287.949219 C 467.84375 287.386719 466.992188 285.453125 466.378906 286.449219 C 466.175781 287.015625 466.707031 288.566406 467.417969 287.949219 Z M 467.417969 287.949219 " fill-opacity="1" fill-rule="nonzero"/><path fill="#ffca9e" d="M 469.902344 289.535156 C 470.246094 288.90625 469.136719 287.113281 468.667969 288.195312 C 468.550781 288.789062 469.289062 290.246094 469.902344 289.535156 Z M 469.902344 289.535156 " fill-opacity="1" fill-rule="nonzero"/><path fill="#ffca9e" d="M 466.886719 288.871094 C 466.664062 289.429688 467.125 290.992188 467.867188 290.414062 C 468.3125 289.871094 467.542969 287.902344 466.886719 288.871094 Z M 466.886719 288.871094 " fill-opacity="1" fill-rule="nonzero"/><path fill="#ffca9e" d="M 459.140625 263.457031 C 458.671875 263.988281 459.386719 265.976562 460.070312 265.027344 C 460.304688 264.484375 459.894531 262.898438 459.140625 263.457031 Z M 459.140625 263.457031 " fill-opacity="1" fill-rule="nonzero"/><path fill="#ffca9e" d="M 458.402344 263.816406 C 458.5625 263.234375 457.925781 261.726562 457.261719 262.390625 C 456.878906 262.992188 457.855469 264.855469 458.402344 263.816406 Z M 458.402344 263.816406 " fill-opacity="1" fill-rule="nonzero"/><path fill="#ffca9e" d="M 459.742188 262.578125 C 460.007812 262.042969 459.648438 260.449219 458.875 260.964844 C 458.386719 261.476562 459.015625 263.492188 459.742188 262.578125 Z M 459.742188 262.578125 " fill-opacity="1" fill-rule="nonzero"/><path fill="#ffca9e" d="M 459.460938 285.890625 C 458.964844 286.207031 458.484375 287.734375 459.417969 287.714844 C 460.097656 287.539062 460.550781 285.507812 459.460938 285.890625 Z M 459.460938 285.890625 " fill-opacity="1" fill-rule="nonzero"/><path fill="#ffca9e" d="M 460.285156 288.683594 C 459.839844 289.066406 459.582031 290.667969 460.496094 290.5 C 461.136719 290.226562 461.304688 288.140625 460.285156 288.683594 Z M 460.285156 288.683594 " fill-opacity="1" fill-rule="nonzero"/><path fill="#ffca9e" d="M 458.441406 288.089844 C 457.933594 288.382812 457.382812 289.890625 458.324219 289.90625 C 459.007812 289.765625 459.550781 287.753906 458.441406 288.089844 Z M 458.441406 288.089844 " fill-opacity="1" fill-rule="nonzero"/><path fill="#ffca9e" d="M 466.992188 265.28125 C 467.507812 265.007812 468.101562 263.515625 467.167969 263.472656 C 466.476562 263.589844 465.875 265.585938 466.992188 265.28125 Z M 466.992188 265.28125 " fill-opacity="1" fill-rule="nonzero"/><path fill="#ffca9e" d="M 466.351562 263.292969 C 466.820312 262.941406 467.203125 261.371094 466.265625 261.46875 C 465.605469 261.691406 465.289062 263.757812 466.351562 263.292969 Z M 466.351562 263.292969 " fill-opacity="1" fill-rule="nonzero"/><path fill="#ffca9e" d="M 468.164062 263.171875 C 468.695312 262.921875 469.351562 261.460938 468.417969 261.378906 C 467.71875 261.46875 467.042969 263.429688 468.164062 263.171875 Z M 468.164062 263.171875 " fill-opacity="1" fill-rule="nonzero"/><path fill="#ffca9e" d="M 474.21875 276.847656 C 474.679688 277.238281 476.25 277.273438 475.90625 276.355469 C 475.515625 275.742188 473.492188 275.890625 474.21875 276.847656 Z M 474.21875 276.847656 " fill-opacity="1" fill-rule="nonzero"/><path fill="#ffca9e" d="M 478.097656 274.492188 C 477.628906 273.941406 475.648438 274.390625 476.5 275.226562 C 477.007812 275.546875 478.558594 275.34375 478.097656 274.492188 Z M 478.097656 274.492188 " fill-opacity="1" fill-rule="nonzero"/><path fill="#ffca9e" d="M 476.589844 277.207031 C 477.03125 277.621094 478.609375 277.726562 478.300781 276.796875 C 477.9375 276.167969 475.90625 276.226562 476.589844 277.207031 Z M 476.589844 277.207031 " fill-opacity="1" fill-rule="nonzero"/><path fill="#ffca9e" d="M 452.710938 275.464844 C 452.28125 275.039062 450.707031 274.882812 450.988281 275.820312 C 451.332031 276.460938 453.367188 276.46875 452.710938 275.464844 Z M 452.710938 275.464844 " fill-opacity="1" fill-rule="nonzero"/><path fill="#ffca9e" d="M 449.445312 277.277344 C 449.878906 277.863281 451.882812 277.566406 451.09375 276.671875 C 450.609375 276.308594 449.039062 276.398438 449.445312 277.277344 Z M 449.445312 277.277344 " fill-opacity="1" fill-rule="nonzero"/><path fill="#ffca9e" d="M 450.367188 274.917969 C 449.957031 274.472656 448.390625 274.257812 448.628906 275.199219 C 448.949219 275.855469 450.980469 275.953125 450.367188 274.917969 Z M 450.367188 274.917969 " fill-opacity="1" fill-rule="nonzero"/><path fill="#ffca9e" d="M 471.984375 269.636719 C 472.570312 269.71875 473.890625 268.867188 473.128906 268.28125 C 472.484375 267.972656 470.886719 269.222656 471.984375 269.636719 Z M 471.984375 269.636719 " fill-opacity="1" fill-rule="nonzero"/><path fill="#ffca9e" d="M 473.03125 266.976562 C 473.617188 266.976562 474.796875 265.929688 473.964844 265.460938 C 473.289062 265.253906 471.886719 266.730469 473.03125 266.976562 Z M 473.03125 266.976562 " fill-opacity="1" fill-rule="nonzero"/><path fill="#ffca9e" d="M 474.132812 268.625 C 474.710938 268.734375 476.066406 267.941406 475.332031 267.320312 C 474.707031 266.984375 473.050781 268.164062 474.132812 268.625 Z M 474.132812 268.625 " fill-opacity="1" fill-rule="nonzero"/><path fill="#ffca9e" d="M 454.378906 281.675781 C 453.800781 281.550781 452.425781 282.296875 453.144531 282.9375 C 453.765625 283.296875 455.457031 282.171875 454.378906 281.675781 Z M 454.378906 281.675781 " fill-opacity="1" fill-rule="nonzero"/><path fill="#ffca9e" d="M 452.628906 285.054688 C 453.292969 285.320312 454.800781 283.945312 453.675781 283.617188 C 453.089844 283.574219 451.832031 284.523438 452.628906 285.054688 Z M 452.628906 285.054688 " fill-opacity="1" fill-rule="nonzero"/><path fill="#ffca9e" d="M 452.160156 282.519531 C 451.589844 282.367188 450.179688 283.050781 450.871094 283.726562 C 451.476562 284.113281 453.214844 283.066406 452.160156 282.519531 Z M 452.160156 282.519531 " fill-opacity="1" fill-rule="nonzero"/><path fill="#ffca9e" d="M 496.191406 267.277344 C 495.855469 268.589844 495.847656 270.277344 495.421875 271.476562 C 494.683594 272.722656 493.363281 272.167969 491.917969 272.191406 C 490.921875 272.148438 489.914062 272.140625 488.910156 272.15625 C 488.46875 272.15625 488.421875 272.832031 488.855469 272.894531 C 490.285156 273.148438 491.875 273.320312 493.328125 273.453125 C 493.761719 273.503906 494.5 273.578125 495.085938 273.3125 C 497.445312 272.289062 496.742188 269.378906 496.929688 267.347656 C 496.945312 266.90625 496.265625 266.835938 496.191406 267.269531 Z M 496.191406 267.277344 " fill-opacity="1" fill-rule="nonzero"/><path fill="#ffca9e" d="M 496.617188 239.449219 C 497.089844 240.710938 498.046875 242.105469 498.382812 243.335938 C 498.484375 244.78125 497.082031 245.074219 495.910156 245.925781 C 495.066406 246.460938 494.234375 247.027344 493.417969 247.613281 C 493.054688 247.859375 493.398438 248.453125 493.796875 248.257812 C 499.316406 245.472656 501.683594 245.046875 497.265625 239.097656 C 497.027344 238.730469 496.425781 239.0625 496.617188 239.460938 Z M 496.617188 239.449219 " fill-opacity="1" fill-rule="nonzero"/><g clip-path="url(#5cf3188e4c)"><path fill="#ffca9e" d="M 535.980469 142.105469 C 535.667969 141.882812 535.257812 141.855469 534.914062 142.03125 L 507.476562 155.753906 C 502.242188 158.371094 498.480469 163.367188 497.402344 169.125 L 492.921875 193.21875 C 485.460938 192.703125 477.882812 192.507812 472.074219 192.507812 C 470.683594 192.507812 469.316406 192.523438 467.964844 192.535156 C 468.675781 187.328125 468.492188 181.167969 466.796875 173.929688 C 466.726562 173.628906 466.523438 173.371094 466.253906 173.230469 C 465.972656 173.089844 465.652344 173.078125 465.367188 173.203125 C 464.855469 173.417969 452.851562 178.605469 448.539062 190.574219 C 448.320312 191.175781 448.167969 191.796875 448 192.402344 C 440.050781 181.515625 425.761719 182.457031 425.121094 182.5 C 424.8125 182.519531 424.527344 182.679688 424.347656 182.933594 C 424.164062 183.183594 424.101562 183.503906 424.179688 183.796875 C 425.441406 188.84375 427.179688 192.933594 429.164062 196.3125 C 425.113281 197.429688 423.144531 198.679688 422.90625 200.261719 C 422.894531 200.375 422.851562 200.480469 422.851562 200.597656 C 422.851562 200.613281 422.851562 200.625 422.851562 200.640625 C 422.851562 200.652344 422.851562 200.667969 422.851562 200.675781 L 433.15625 332.160156 C 433.15625 332.433594 433.238281 332.683594 433.300781 332.941406 C 433.265625 333.0625 433.246094 333.1875 433.253906 333.3125 L 433.734375 340.992188 C 433.734375 347.683594 453.488281 351.300781 472.066406 351.300781 C 490.648438 351.300781 510.402344 347.691406 510.402344 341.054688 L 510.875 332.957031 C 510.875 332.957031 510.863281 332.902344 510.863281 332.867188 C 510.902344 332.65625 510.980469 332.453125 510.980469 332.246094 L 521.289062 200.675781 C 521.289062 200.675781 521.289062 200.648438 521.289062 200.640625 C 521.289062 200.625 521.289062 200.613281 521.289062 200.597656 C 521.289062 200.484375 521.253906 200.382812 521.242188 200.269531 C 520.6875 197.234375 512.730469 195.300781 502.785156 194.121094 L 506.777344 171.988281 C 507.300781 169.078125 509.199219 166.542969 511.851562 165.21875 L 539.375 151.453125 C 539.703125 151.285156 539.925781 150.957031 539.953125 150.585938 C 539.96875 150.363281 540.296875 145.085938 535.996094 142.101562 Z M 537.71875 148.730469 C 536.394531 147.355469 536.023438 145.730469 535.917969 144.851562 C 537.042969 146.105469 537.523438 147.601562 537.71875 148.730469 Z M 472.066406 194.609375 C 479.800781 194.609375 486.632812 194.867188 492.539062 195.28125 L 490.535156 206.054688 C 485.097656 206.390625 478.957031 206.601562 472.066406 206.601562 C 468.914062 206.601562 465.945312 206.550781 463.089844 206.46875 C 465.003906 203.347656 466.691406 199.4375 467.613281 194.636719 C 469.078125 194.617188 470.566406 194.601562 472.066406 194.601562 Z M 517.542969 221.601562 C 514.582031 219.476562 507.265625 218.011719 498.632812 217.085938 L 500.390625 207.347656 C 508.410156 206.515625 515.476562 205.238281 518.972656 203.339844 Z M 503.722656 243.558594 L 496.957031 230.570312 C 499.191406 230.351562 501.347656 230.09375 503.394531 229.808594 L 506.757812 236.273438 C 506.910156 236.566406 506.925781 236.914062 506.820312 237.171875 L 503.726562 243.566406 Z M 508.445312 253.839844 L 506.324219 270.453125 C 506.28125 270.78125 506.101562 271.066406 505.863281 271.21875 L 499.671875 274.710938 L 501.660156 259.117188 C 501.703125 258.796875 501.675781 258.480469 501.585938 258.175781 L 508.433594 253.730469 C 508.433594 253.761719 508.445312 253.796875 508.4375 253.832031 Z M 483.046875 268.582031 C 482.558594 267.242188 481.921875 265.972656 481.226562 264.75 L 482.257812 256.652344 C 482.277344 256.457031 482.382812 256.285156 482.539062 256.164062 C 482.691406 256.046875 482.894531 255.984375 483.082031 256.019531 L 499.429688 258.105469 C 499.625 258.125 499.796875 258.230469 499.925781 258.382812 C 500.042969 258.539062 500.097656 258.734375 500.070312 258.929688 L 497.984375 275.277344 C 497.957031 275.472656 497.859375 275.644531 497.703125 275.765625 C 497.550781 275.882812 497.355469 275.945312 497.160156 275.910156 L 484.386719 274.277344 C 484.171875 272.363281 483.730469 270.453125 483.054688 268.582031 Z M 500.621094 256.898438 C 500.320312 256.703125 499.992188 256.546875 499.628906 256.507812 L 484.589844 254.585938 L 489.929688 250.621094 C 490.144531 250.484375 490.402344 250.421875 490.683594 250.449219 L 507.300781 252.570312 L 500.628906 256.898438 Z M 495.902344 249.492188 L 490.886719 248.851562 C 490.242188 248.765625 489.601562 248.914062 489.015625 249.296875 L 485.875 251.628906 L 479.117188 238.652344 C 478.929688 238.289062 479.066406 237.84375 479.429688 237.652344 L 492.28125 230.96875 C 493.273438 230.890625 494.257812 230.8125 495.226562 230.730469 L 502.644531 244.984375 C 502.738281 245.15625 502.757812 245.359375 502.695312 245.546875 C 502.632812 245.738281 502.507812 245.890625 502.332031 245.980469 L 496.148438 249.199219 C 496.023438 249.261719 495.972656 249.386719 495.898438 249.5 Z M 462.234375 253.074219 C 459.914062 253.058594 457.605469 253.433594 455.371094 254.238281 C 453.480469 254.921875 451.734375 255.890625 450.171875 257.085938 C 449.007812 256.675781 447.617188 256.394531 446.632812 255.863281 C 445.515625 254.941406 446.261719 253.722656 446.457031 252.289062 C 446.652344 251.308594 446.8125 250.316406 446.945312 249.324219 C 447.015625 248.890625 446.355469 248.738281 446.226562 249.15625 C 444.550781 254.753906 443.277344 256.835938 449.292969 257.8125 C 448.941406 258.113281 448.585938 258.40625 448.257812 258.734375 L 443.324219 257.460938 C 442.925781 257.359375 442.6875 256.953125 442.792969 256.5625 L 446.90625 240.605469 C 446.953125 240.417969 447.078125 240.257812 447.246094 240.152344 C 447.414062 240.046875 447.625 240.027344 447.804688 240.074219 L 463.761719 244.1875 C 464.152344 244.292969 464.394531 244.695312 464.292969 245.085938 Z M 438.296875 249.109375 C 438.179688 248.871094 438.160156 248.597656 438.222656 248.339844 L 442.394531 232.117188 L 445.859375 239.273438 C 445.621094 239.546875 445.433594 239.847656 445.339844 240.203125 L 441.558594 254.886719 L 438.292969 249.101562 Z M 448.203125 238.519531 C 447.890625 238.4375 447.574219 238.429688 447.261719 238.476562 L 443.703125 231.128906 C 443.734375 231.128906 443.769531 231.128906 443.804688 231.128906 L 460.027344 235.300781 C 460.339844 235.386719 460.605469 235.601562 460.730469 235.851562 L 463.417969 242.429688 L 448.203125 238.511719 Z M 427.039062 223.742188 C 427.039062 222.152344 435.613281 219.546875 452.152344 218.3125 L 453.195312 222.855469 C 453.304688 223.34375 453.738281 223.671875 454.21875 223.671875 C 454.296875 223.671875 454.375 223.667969 454.457031 223.644531 C 455.023438 223.519531 455.378906 222.953125 455.246094 222.390625 L 454.28125 218.171875 C 459.503906 217.839844 465.410156 217.621094 472.082031 217.621094 C 478.089844 217.621094 483.480469 217.789062 488.316406 218.074219 L 487.144531 224.390625 C 487.136719 224.441406 487.144531 224.488281 487.144531 224.539062 L 481.761719 227.34375 C 481.195312 227.644531 480.742188 228.132812 480.476562 228.777344 L 480.148438 229.753906 C 477.574219 229.824219 474.914062 229.863281 472.082031 229.863281 C 442.515625 229.863281 427.046875 225.878906 427.046875 223.742188 Z M 425.167969 203.339844 C 427.886719 204.8125 432.75 205.917969 438.550781 206.71875 C 442.828125 209.691406 446.941406 210.84375 449.515625 211.296875 C 450.121094 212.863281 450.800781 214.4375 451.628906 216.042969 L 451.742188 216.527344 C 440.546875 217.371094 430.25 218.984375 426.601562 221.605469 L 425.167969 203.347656 Z M 459.300781 208.429688 C 457.144531 211.128906 454.996094 212.882812 453.613281 213.839844 C 453.550781 211.953125 453.558594 210.035156 453.632812 208.144531 C 455.539062 208.253906 457.4375 208.351562 459.300781 208.429688 Z M 453.820312 216.203125 C 455.246094 215.296875 458.597656 212.867188 461.730469 208.519531 C 465.476562 208.644531 469.023438 208.703125 472.066406 208.703125 C 477.15625 208.703125 483.605469 208.546875 490.136719 208.164062 L 488.628906 216.269531 C 482.929688 215.925781 477.15625 215.765625 472.058594 215.765625 C 466.476562 215.765625 460.082031 215.953125 453.851562 216.367188 L 453.816406 216.199219 Z M 451.679688 211.144531 C 451.238281 210.0625 450.863281 208.996094 450.542969 207.941406 C 450.9375 207.96875 451.332031 207.996094 451.726562 208.023438 C 451.6875 209.070312 451.671875 210.113281 451.679688 211.144531 Z M 448.679688 208.988281 C 447.335938 208.679688 445.71875 208.171875 443.953125 207.375 C 445.390625 207.523438 446.855469 207.65625 448.335938 207.773438 C 448.449219 208.179688 448.546875 208.574219 448.679688 208.988281 Z M 495.988281 219.917969 L 489.460938 223.316406 L 490.410156 218.207031 C 492.457031 218.347656 494.394531 218.5 496.210938 218.675781 L 495.988281 219.925781 Z M 481.972656 229.335938 C 482.078125 229.089844 482.257812 228.886719 482.496094 228.761719 L 495.632812 221.921875 L 494.5625 227.847656 L 494.339844 228.386719 C 493.984375 228.386719 493.628906 228.453125 493.300781 228.628906 L 492.300781 229.144531 C 489.113281 229.390625 485.628906 229.578125 481.839844 229.703125 L 481.964844 229.335938 Z M 488.289062 231.238281 L 479.84375 235.636719 L 481.210938 231.566406 C 483.542969 231.492188 485.914062 231.386719 488.28125 231.246094 Z M 496.523438 228.777344 L 497.007812 226.101562 L 498.953125 221.335938 C 498.953125 221.335938 499.003906 221.382812 499.015625 221.410156 L 502.484375 228.078125 C 500.671875 228.328125 498.667969 228.558594 496.519531 228.769531 Z M 500.449219 220.679688 C 500 219.8125 499.148438 219.347656 498.242188 219.269531 L 498.3125 218.890625 C 510.699219 220.246094 517.109375 222.375 517.109375 223.742188 C 517.109375 224.882812 512.695312 226.527344 504.175781 227.832031 Z M 496.539062 216.875 C 494.648438 216.695312 492.707031 216.539062 490.753906 216.398438 L 492.308594 208.023438 C 494.296875 207.890625 496.28125 207.738281 498.222656 207.558594 L 496.539062 216.867188 Z M 492.699219 205.917969 L 494.648438 195.441406 C 496.636719 195.601562 498.554688 195.769531 500.316406 195.957031 L 498.613281 205.40625 C 496.753906 205.589844 494.800781 205.761719 492.707031 205.910156 Z M 465.03125 175.695312 C 468.195312 190.511719 464.851562 200.3125 460.78125 206.40625 C 458.324219 206.320312 456.007812 206.203125 453.785156 206.0625 C 454.296875 199.949219 455.617188 193.652344 459.414062 188.796875 C 459.601562 188.570312 459.585938 188.238281 459.371094 188.035156 C 459.148438 187.824219 458.796875 187.832031 458.582031 188.054688 C 454.179688 193.023438 452.417969 199.433594 451.882812 205.957031 C 451.21875 205.910156 450.609375 205.859375 449.976562 205.8125 C 448.742188 200.632812 448.894531 195.773438 450.5 191.308594 C 453.738281 182.289062 461.988281 177.285156 465.03125 175.699219 Z M 447.378906 195.28125 C 447.140625 196.84375 447.023438 198.433594 447.074219 200.066406 C 446.054688 198.679688 444.964844 197.34375 443.757812 196.097656 C 441.636719 194.101562 439.214844 192.242188 436.351562 191.382812 C 435.710938 191.183594 435.339844 192.152344 435.953125 192.425781 C 440.984375 194.820312 444.449219 199.433594 447.46875 203.988281 C 447.5625 204.535156 447.636719 205.078125 447.761719 205.628906 C 444.636719 205.359375 441.84375 205.039062 439.347656 204.6875 C 434.488281 201.175781 429.457031 195.113281 426.542969 184.566406 C 430.335938 184.605469 441.605469 185.589844 447.371094 195.273438 Z M 430.320312 198.183594 C 431.878906 200.519531 433.550781 202.46875 435.261719 204.058594 C 428.527344 202.886719 424.980469 201.554688 424.960938 200.617188 L 424.960938 200.597656 C 424.972656 200.550781 425.40625 199.46875 430.328125 198.183594 Z M 452.148438 347.746094 C 452.25 347.113281 452.019531 346.261719 451.804688 345.746094 C 451.03125 344.746094 450.421875 346.300781 450.5 347.476562 C 449.789062 347.34375 449.109375 347.210938 448.449219 347.070312 C 448.539062 345.808594 448.433594 344.542969 448.125 343.273438 C 446.933594 341.703125 446.773438 345.359375 446.8125 346.699219 C 445.984375 346.503906 445.195312 346.296875 444.449219 346.085938 C 444.53125 344.433594 444.425781 342.777344 444.125 341.125 C 442.871094 339.351562 442.785156 343.839844 442.820312 345.597656 C 441.949219 345.3125 441.167969 345.019531 440.449219 344.726562 C 440.492188 342.988281 440.398438 341.25 440.128906 339.511719 C 438.96875 337.816406 438.816406 341.6875 438.816406 343.972656 C 436.882812 342.953125 435.828125 341.914062 435.828125 340.964844 L 435.515625 335.894531 C 441.320312 340.203125 457.054688 342.5 472.066406 342.5 C 482.089844 342.5 492.414062 341.472656 499.925781 339.523438 L 499.925781 346.042969 C 499.175781 346.261719 498.375 346.46875 497.535156 346.671875 C 497.59375 344.863281 497.5 343.058594 497.214844 341.257812 C 495.742188 339.105469 495.890625 345.882812 495.925781 347.050781 C 495.15625 347.210938 494.367188 347.371094 493.539062 347.515625 C 493.59375 345.96875 493.503906 344.417969 493.214844 342.867188 C 491.835938 340.914062 491.871094 346.546875 491.925781 347.773438 C 491.148438 347.902344 490.363281 348.019531 489.542969 348.132812 C 489.59375 346.964844 489.503906 345.792969 489.222656 344.628906 C 487.941406 342.945312 487.855469 347.265625 487.925781 348.339844 C 483.296875 348.890625 478 349.234375 472.074219 349.234375 C 464.320312 349.234375 457.625 348.65625 452.152344 347.769531 Z M 504.078125 338.21875 L 504.078125 344.566406 C 503.324219 344.894531 502.472656 345.207031 501.53125 345.519531 L 501.53125 339.0625 C 502.4375 338.800781 503.28125 338.511719 504.078125 338.21875 Z M 508.308594 341.003906 C 508.308594 341.878906 507.398438 342.839844 505.6875 343.789062 L 505.6875 337.585938 C 506.839844 337.074219 507.796875 336.515625 508.601562 335.929688 Z M 508.886719 332.175781 C 508.886719 335.601562 494.882812 340.375 472.074219 340.375 C 449.265625 340.375 435.261719 335.59375 435.261719 332.089844 L 426.957031 226.125 C 429.664062 227.832031 435.253906 229.097656 442.019531 229.984375 C 441.488281 230.347656 441.0625 230.875 440.894531 231.539062 L 436.671875 247.941406 C 436.511719 248.5625 436.574219 249.226562 436.882812 249.855469 L 441.425781 257.910156 C 441.503906 258.042969 441.613281 258.148438 441.738281 258.214844 C 442.046875 258.585938 442.4375 258.902344 442.933594 259.027344 L 447.03125 260.082031 C 446.324219 260.910156 445.703125 261.8125 445.132812 262.769531 C 445.125 262.773438 445.109375 262.78125 445.105469 262.789062 C 439.722656 268.917969 438.222656 277.808594 441.179688 285.976562 C 441.542969 286.980469 441.976562 287.972656 442.492188 288.976562 L 444.289062 291.910156 C 447.402344 296.277344 451.847656 299.425781 456.800781 300.78125 C 456.886719 300.800781 456.96875 300.808594 457.046875 300.808594 C 457.453125 300.808594 457.828125 300.535156 457.941406 300.125 C 458.074219 299.628906 457.78125 299.117188 457.289062 298.984375 C 452.753906 297.75 448.671875 294.855469 445.835938 290.890625 L 444.113281 288.070312 C 443.660156 287.191406 443.261719 286.277344 442.925781 285.347656 C 441.53125 281.507812 441.214844 277.507812 441.886719 273.753906 C 441.773438 276.839844 442.25 279.972656 443.351562 282.996094 C 443.714844 284 444.148438 284.984375 444.636719 285.933594 C 444.804688 286.253906 445.125 286.4375 445.460938 286.4375 C 445.605469 286.4375 445.746094 286.402344 445.886719 286.332031 C 446.339844 286.09375 446.519531 285.535156 446.285156 285.082031 C 445.828125 284.203125 445.433594 283.289062 445.097656 282.359375 C 443.171875 277.054688 443.261719 271.386719 445.339844 266.398438 C 447.40625 261.433594 451.203125 257.734375 456.027344 255.988281 C 461.660156 253.945312 467.886719 254.84375 473.113281 258.460938 C 473.527344 258.753906 474.113281 258.648438 474.40625 258.222656 C 474.691406 257.804688 474.59375 257.226562 474.167969 256.933594 C 470.984375 254.734375 467.460938 253.492188 463.894531 253.175781 L 465.871094 245.492188 C 465.988281 245.039062 465.917969 244.59375 465.777344 244.171875 C 465.777344 244.082031 465.8125 244 465.777344 243.914062 L 462.21875 235.210938 C 461.871094 234.484375 461.21875 233.953125 460.445312 233.757812 L 448.574219 230.703125 C 456.371094 231.40625 464.898438 231.722656 472.089844 231.722656 C 474.449219 231.722656 476.953125 231.6875 479.527344 231.617188 L 477.53125 237.535156 C 477.511719 237.589844 477.546875 237.640625 477.546875 237.695312 C 477.394531 238.246094 477.429688 238.855469 477.707031 239.40625 L 484.582031 252.613281 L 481.609375 254.816406 C 481.574219 254.84375 481.574219 254.894531 481.546875 254.921875 C 481.085938 255.292969 480.765625 255.824219 480.6875 256.449219 L 479.898438 262.636719 C 478.921875 261.273438 477.847656 259.996094 476.617188 258.878906 C 476.242188 258.539062 475.65625 258.566406 475.304688 258.941406 C 474.964844 259.320312 474.992188 259.90625 475.367188 260.253906 C 478.015625 262.664062 480.074219 265.761719 481.324219 269.222656 C 483.792969 276.035156 482.921875 283.433594 478.976562 289.003906 C 478.683594 289.421875 478.78125 290.003906 479.199219 290.296875 C 479.367188 290.40625 479.550781 290.464844 479.738281 290.464844 C 480.023438 290.464844 480.316406 290.332031 480.5 290.074219 C 483.394531 285.984375 484.730469 280.992188 484.5 275.910156 L 496.976562 277.503906 C 497.082031 277.515625 497.179688 277.523438 497.277344 277.523438 C 497.601562 277.523438 497.90625 277.433594 498.199219 277.308594 C 498.3125 277.300781 498.421875 277.277344 498.519531 277.222656 L 506.707031 272.609375 C 507.386719 272.167969 507.832031 271.464844 507.929688 270.660156 L 510.050781 254.050781 C 510.140625 253.332031 509.945312 252.613281 509.5 252.039062 C 509.054688 251.46875 508.410156 251.097656 507.691406 251.007812 L 498.453125 249.828125 L 503.09375 247.410156 C 503.460938 247.214844 503.734375 246.910156 503.957031 246.566406 C 504.054688 246.492188 504.148438 246.414062 504.203125 246.296875 L 508.300781 237.835938 C 508.605469 237.089844 508.566406 236.257812 508.195312 235.539062 L 505.089844 229.5625 C 510.511719 228.710938 514.902344 227.582031 517.207031 226.128906 L 508.898438 332.183594 Z M 519.1875 200.597656 L 519.1875 200.613281 C 519.152344 201.867188 512.792969 203.851562 500.78125 205.191406 L 502.402344 196.207031 C 513.351562 197.535156 519.160156 199.398438 519.179688 200.589844 Z M 510.902344 163.347656 C 507.664062 164.964844 505.347656 168.058594 504.707031 171.625 L 500.683594 193.890625 C 498.84375 193.695312 496.945312 193.527344 495.03125 193.375 L 499.058594 171.703125 C 500.363281 171.996094 501.691406 172.191406 503.050781 172.210938 C 504.914062 171.375 501.132812 170.445312 499.359375 170.101562 L 499.46875 169.515625 C 499.582031 168.910156 499.734375 168.316406 499.910156 167.730469 C 501.25 168.273438 502.632812 168.691406 504.082031 168.929688 C 506.164062 168.34375 501.996094 166.726562 500.46875 166.203125 C 500.777344 165.453125 501.132812 164.726562 501.542969 164.039062 C 502.738281 164.894531 503.980469 165.679688 505.328125 166.320312 C 507.421875 166.292969 504.105469 163.828125 502.445312 162.691406 C 502.9375 162.011719 503.492188 161.386719 504.082031 160.792969 C 505.011719 161.949219 506.015625 163.046875 507.160156 164.03125 C 509.222656 164.566406 506.554688 161.195312 505.277344 159.6875 C 505.835938 159.226562 506.4375 158.808594 507.050781 158.425781 C 507.886719 159.683594 508.824219 160.882812 509.898438 161.976562 C 511.859375 162.667969 509.640625 159.269531 508.46875 157.617188 L 533.8125 144.949219 C 533.9375 146.191406 534.472656 148.597656 536.5625 150.53125 L 510.894531 163.367188 Z M 510.902344 163.347656 " fill-opacity="1" fill-rule="nonzero"/></g><path fill="#ffca9e" d="M 507.558594 290.484375 C 506.394531 301.855469 505.457031 313.289062 504.550781 324.6875 C 504.34375 326.5625 504.648438 328.28125 503.21875 329.46875 C 497.402344 332.949219 490.320312 334.226562 483.554688 334.214844 C 482.941406 334.199219 482.914062 335.140625 483.515625 335.175781 C 489.9375 335.59375 496.519531 334.402344 502.367188 331.632812 C 504.355469 330.980469 506.039062 328.839844 505.933594 326.695312 C 506.925781 314.667969 507.832031 302.601562 508.523438 290.5625 C 508.566406 289.941406 507.617188 289.898438 507.558594 290.484375 Z M 507.558594 290.484375 " fill-opacity="1" fill-rule="nonzero"/><path fill="#ffca9e" d="M 447.867188 334.242188 C 444.878906 333.726562 441.824219 332.398438 439.378906 330.710938 C 438.921875 330.332031 438.640625 329.84375 438.59375 329.160156 C 438.332031 326.75 438 324.359375 437.578125 321.972656 C 437.496094 321.398438 436.59375 321.480469 436.625 322.070312 C 436.664062 323.679688 436.742188 325.292969 436.859375 326.90625 C 437.042969 328.664062 436.796875 330.710938 438.375 331.957031 C 441.257812 333.871094 444.355469 335.105469 447.792969 335.203125 C 448.378906 335.226562 448.453125 334.316406 447.875 334.242188 Z M 447.867188 334.242188 " fill-opacity="1" fill-rule="nonzero"/><path fill="#ffca9e" d="M 492.167969 295.601562 C 494.410156 295.601562 496.230469 293.777344 496.230469 291.539062 C 496.230469 289.296875 494.410156 287.476562 492.167969 287.476562 C 489.929688 287.476562 488.105469 289.296875 488.105469 291.539062 C 488.105469 293.777344 489.929688 295.601562 492.167969 295.601562 Z M 492.167969 289.082031 C 493.523438 289.082031 494.625 290.183594 494.625 291.539062 C 494.625 292.894531 493.523438 293.996094 492.167969 293.996094 C 490.816406 293.996094 489.710938 292.894531 489.710938 291.539062 C 489.710938 290.183594 490.816406 289.082031 492.167969 289.082031 Z M 492.167969 289.082031 " fill-opacity="1" fill-rule="nonzero"/><path fill="#ffca9e" d="M 474.34375 321.550781 C 472.101562 321.550781 470.28125 323.375 470.28125 325.613281 C 470.28125 327.855469 472.101562 329.675781 474.34375 329.675781 C 476.582031 329.675781 478.40625 327.855469 478.40625 325.613281 C 478.40625 323.375 476.582031 321.550781 474.34375 321.550781 Z M 474.34375 328.070312 C 472.988281 328.070312 471.886719 326.96875 471.886719 325.613281 C 471.886719 324.261719 472.988281 323.15625 474.34375 323.15625 C 475.695312 323.15625 476.800781 324.261719 476.800781 325.613281 C 476.800781 326.96875 475.695312 328.070312 474.34375 328.070312 Z M 474.34375 328.070312 " fill-opacity="1" fill-rule="nonzero"/><path fill="#ffca9e" d="M 443.742188 309.167969 C 445.984375 309.167969 447.804688 307.347656 447.804688 305.105469 C 447.804688 302.867188 445.984375 301.046875 443.742188 301.046875 C 441.503906 301.046875 439.679688 302.867188 439.679688 305.105469 C 439.679688 307.347656 441.503906 309.167969 443.742188 309.167969 Z M 443.742188 302.652344 C 445.097656 302.652344 446.199219 303.753906 446.199219 305.105469 C 446.199219 306.460938 445.097656 307.5625 443.742188 307.5625 C 442.390625 307.5625 441.285156 306.460938 441.285156 305.105469 C 441.285156 303.753906 442.390625 302.652344 443.742188 302.652344 Z M 443.742188 302.652344 " fill-opacity="1" fill-rule="nonzero"/><path fill="#ffca9e" d="M 487.703125 316.03125 C 489.054688 316.03125 490.160156 314.929688 490.160156 313.574219 C 490.160156 312.21875 489.054688 311.117188 487.703125 311.117188 C 486.347656 311.117188 485.246094 312.21875 485.246094 313.574219 C 485.246094 314.929688 486.347656 316.03125 487.703125 316.03125 Z M 487.703125 312.34375 C 488.378906 312.34375 488.921875 312.890625 488.921875 313.566406 C 488.921875 314.242188 488.378906 314.789062 487.703125 314.789062 C 487.023438 314.789062 486.480469 314.242188 486.480469 313.566406 C 486.480469 312.890625 487.023438 312.34375 487.703125 312.34375 Z M 487.703125 312.34375 " fill-opacity="1" fill-rule="nonzero"/><path fill="#ffca9e" d="M 452.460938 320.351562 C 451.105469 320.351562 450.003906 321.453125 450.003906 322.808594 C 450.003906 324.164062 451.105469 325.265625 452.460938 325.265625 C 453.816406 325.265625 454.917969 324.164062 454.917969 322.808594 C 454.917969 321.453125 453.816406 320.351562 452.460938 320.351562 Z M 452.460938 324.035156 C 451.785156 324.035156 451.238281 323.492188 451.238281 322.816406 C 451.238281 322.136719 451.785156 321.59375 452.460938 321.59375 C 453.136719 321.59375 453.683594 322.136719 453.683594 322.816406 C 453.683594 323.492188 453.136719 324.035156 452.460938 324.035156 Z M 452.460938 324.035156 " fill-opacity="1" fill-rule="nonzero"/><path fill="#ffca9e" d="M 439.046875 263.25 C 439.046875 261.894531 437.941406 260.792969 436.589844 260.792969 C 435.234375 260.792969 434.132812 261.894531 434.132812 263.25 C 434.132812 264.601562 435.234375 265.707031 436.589844 265.707031 C 437.941406 265.707031 439.046875 264.601562 439.046875 263.25 Z M 436.589844 264.46875 C 435.910156 264.46875 435.367188 263.925781 435.367188 263.25 C 435.367188 262.570312 435.910156 262.027344 436.589844 262.027344 C 437.265625 262.027344 437.808594 262.570312 437.808594 263.25 C 437.808594 263.925781 437.265625 264.46875 436.589844 264.46875 Z M 436.589844 264.46875 " fill-opacity="1" fill-rule="nonzero"/><path fill="#ffca9e" d="M 476.277344 247.789062 C 476.277344 246.433594 475.171875 245.332031 473.820312 245.332031 C 472.464844 245.332031 471.363281 246.433594 471.363281 247.789062 C 471.363281 249.144531 472.464844 250.246094 473.820312 250.246094 C 475.171875 250.246094 476.277344 249.144531 476.277344 247.789062 Z M 473.820312 249.011719 C 473.148438 249.011719 472.597656 248.464844 472.597656 247.789062 C 472.597656 247.113281 473.140625 246.566406 473.820312 246.566406 C 474.496094 246.566406 475.039062 247.113281 475.039062 247.789062 C 475.039062 248.464844 474.496094 249.011719 473.820312 249.011719 Z M 473.820312 249.011719 " fill-opacity="1" fill-rule="nonzero"/></svg>