<svg xmlns="http://www.w3.org/2000/svg" xmlns:xlink="http://www.w3.org/1999/xlink" width="1366" zoomAndPan="magnify" viewBox="0 0 1024.5 524.25" height="699" preserveAspectRatio="xMidYMid meet" version="1.0"><defs><clipPath id="d0e35747a3"><path d="M 399.21875 157.050781 L 624.644531 157.050781 L 624.644531 366.75 L 399.21875 366.75 Z M 399.21875 157.050781 " clip-rule="nonzero"/></clipPath></defs><g clip-path="url(#d0e35747a3)"><path fill="#000000" d="M 613.765625 260.386719 C 615.628906 261.789062 617.191406 263.425781 618.503906 265.304688 C 619.433594 266.621094 620.496094 267.863281 620.941406 269.457031 C 621.117188 270.089844 621.273438 270.753906 621.253906 271.402344 C 621.195312 273.230469 621.003906 275.054688 620.941406 276.882812 C 620.792969 281.097656 620.308594 285.265625 619.320312 289.375 C 619.03125 290.554688 619.089844 290.5 620.113281 291.082031 C 621.183594 291.691406 622.28125 292.3125 623.179688 293.136719 C 624.707031 294.535156 624.738281 296.476562 624.628906 298.367188 C 624.527344 300.164062 624.039062 301.867188 623.351562 303.550781 C 622.433594 305.792969 621.773438 308.132812 622.234375 310.609375 C 622.371094 311.339844 622.582031 312.054688 622.71875 312.785156 C 622.957031 314.074219 622.832031 315.359375 622.503906 316.621094 C 622.300781 317.410156 622.371094 318.121094 622.648438 318.921875 C 623.269531 320.714844 623.125 322.609375 623.179688 324.484375 C 623.261719 327.210938 622.398438 329.707031 621.582031 332.21875 C 621.261719 333.195312 620.714844 334.105469 620.179688 334.988281 C 618.445312 337.835938 616.296875 340.347656 613.890625 342.664062 C 610.894531 345.542969 607.402344 347.703125 603.871094 349.800781 C 600.199219 351.992188 596.363281 353.910156 592.339844 355.390625 C 590.597656 356.027344 588.917969 356.96875 586.96875 356.925781 C 586.773438 356.921875 586.570312 357.039062 586.390625 357.128906 C 584.886719 357.886719 583.25 358.148438 581.632812 358.507812 C 579.328125 359.027344 577.042969 359.636719 574.742188 360.160156 C 573.777344 360.378906 572.785156 360.445312 571.808594 360.628906 C 569.359375 361.097656 566.929688 361.695312 564.464844 362.050781 C 561.460938 362.488281 558.433594 362.785156 555.410156 363.066406 C 551.425781 363.441406 547.511719 364.253906 543.558594 364.839844 C 541.046875 365.210938 538.519531 365.464844 535.992188 365.742188 C 533.714844 365.988281 531.4375 366.292969 529.152344 366.382812 C 526.449219 366.492188 523.738281 366.417969 521.027344 366.390625 C 518.320312 366.359375 515.609375 366.347656 512.910156 366.214844 C 509.707031 366.0625 506.511719 365.816406 503.316406 365.566406 C 500.199219 365.324219 497.09375 365 493.980469 364.738281 C 489.164062 364.335938 484.335938 364.015625 479.5625 363.222656 C 477.269531 362.839844 474.972656 362.480469 472.6875 362.0625 C 471.503906 361.84375 470.339844 361.519531 469.167969 361.230469 C 467.445312 360.796875 465.710938 360.378906 463.996094 359.90625 C 462.320312 359.445312 460.671875 358.910156 459.003906 358.433594 C 458.042969 358.160156 457.066406 357.941406 456.097656 357.703125 C 455.289062 357.511719 454.472656 357.339844 453.675781 357.121094 C 451.597656 356.542969 449.523438 355.964844 447.457031 355.351562 C 446.5 355.070312 445.570312 354.707031 444.625 354.394531 C 442.914062 353.824219 441.191406 353.269531 439.480469 352.691406 C 438.734375 352.441406 437.996094 352.148438 437.253906 351.875 C 435.738281 351.316406 434.210938 350.785156 432.707031 350.191406 C 432.144531 349.96875 431.597656 349.652344 431.117188 349.28125 C 429.140625 347.761719 426.882812 346.671875 424.835938 345.277344 C 423.539062 344.394531 422.164062 343.640625 420.882812 342.738281 C 419.050781 341.445312 417.28125 340.070312 415.664062 338.507812 C 413.773438 336.679688 412.703125 334.402344 411.953125 331.953125 C 410.121094 326.007812 410.621094 320.101562 412.277344 314.214844 C 412.328125 314.019531 412.371094 313.824219 412.480469 313.382812 C 411.507812 313.980469 410.703125 314.503906 409.875 314.980469 C 409.15625 315.394531 408.433594 315.824219 407.664062 316.136719 C 406.132812 316.75 404.753906 316.40625 403.449219 315.410156 C 401.164062 313.65625 400.796875 311.230469 400.988281 308.617188 C 401.285156 304.515625 403.539062 301.40625 406.21875 298.539062 C 406.925781 297.777344 407.695312 297.0625 408.496094 296.402344 C 409 295.984375 409.101562 295.527344 408.929688 294.96875 C 408.832031 294.648438 408.691406 294.339844 408.519531 294.054688 C 407.375 292.089844 406.847656 289.894531 406.105469 287.773438 C 405.457031 285.914062 404.828125 284.050781 404.820312 282.078125 C 404.808594 280.296875 404.910156 278.503906 405.128906 276.734375 C 405.539062 273.417969 406.460938 270.238281 408.039062 267.097656 C 406.308594 266.9375 404.730469 266.722656 403.136719 267.113281 C 402.6875 267.222656 402.25 267.363281 401.800781 267.445312 C 400.363281 267.714844 399.457031 266.988281 399.382812 265.515625 C 399.371094 265.226562 399.339844 264.90625 399.441406 264.648438 C 400.078125 263.070312 400.644531 261.445312 401.4375 259.945312 C 403.082031 256.84375 405.363281 254.171875 407.488281 251.398438 C 407.613281 251.238281 407.703125 251.046875 407.824219 250.839844 C 405.984375 250.167969 404.53125 249.046875 403.382812 247.523438 C 403.164062 247.234375 402.984375 246.902344 402.832031 246.566406 C 401.300781 243.238281 401.515625 239.851562 402.664062 236.496094 C 403.132812 235.125 403.84375 233.839844 404.492188 232.539062 C 404.972656 231.566406 405.542969 230.644531 406.019531 229.675781 C 406.152344 229.410156 406.183594 229.027344 406.117188 228.734375 C 405.640625 226.457031 405.042969 224.203125 404.65625 221.910156 C 404.238281 219.414062 404.695312 216.929688 405.238281 214.492188 C 405.582031 212.957031 405.917969 211.398438 406.507812 209.953125 C 407.847656 206.679688 409.3125 203.449219 411.367188 200.550781 C 412.980469 198.277344 414.753906 196.117188 416.460938 193.917969 C 417.65625 192.375 418.855469 190.835938 420.082031 189.316406 C 420.472656 188.832031 420.980469 188.449219 421.394531 187.980469 C 423.648438 185.460938 426.277344 183.359375 428.917969 181.261719 C 432.445312 178.453125 436.445312 176.449219 440.4375 174.417969 C 441.28125 173.992188 442.152344 173.605469 442.984375 173.152344 C 446.554688 171.203125 450.289062 169.601562 454.050781 168.066406 C 457.707031 166.570312 461.476562 165.390625 465.265625 164.304688 C 468.859375 163.265625 472.464844 162.273438 476.097656 161.382812 C 477.308594 161.089844 478.511719 160.832031 479.695312 160.4375 C 480.351562 160.21875 481.097656 160.289062 481.785156 160.140625 C 483.085938 159.867188 484.355469 159.5 485.714844 159.515625 C 486.566406 159.523438 487.40625 159.113281 488.269531 159.015625 C 492.667969 158.488281 497.0625 157.875 501.476562 157.535156 C 503.695312 157.367188 505.945312 156.964844 508.195312 157.355469 C 508.515625 157.410156 508.851562 157.335938 509.183594 157.316406 C 510.679688 157.234375 512.171875 157.113281 513.664062 157.089844 C 515.394531 157.054688 517.15625 156.9375 518.863281 157.164062 C 521.800781 157.558594 524.742188 157.117188 527.683594 157.449219 C 531.03125 157.832031 534.371094 158.34375 537.71875 158.671875 C 541.472656 159.042969 545.015625 160.25 548.691406 160.894531 C 549.289062 160.996094 549.851562 161.3125 550.4375 161.496094 C 552.484375 162.144531 554.546875 162.742188 556.585938 163.414062 C 558.90625 164.179688 561.207031 165.027344 563.523438 165.800781 C 564.191406 166.023438 565 165.976562 565.558594 166.332031 C 567.21875 167.390625 569.191406 167.660156 570.886719 168.605469 C 571.707031 169.066406 572.535156 169.523438 573.367188 169.972656 C 573.695312 170.148438 574.019531 170.351562 574.371094 170.460938 C 576.8125 171.226562 578.890625 172.660156 581.019531 174.007812 C 581.992188 174.628906 583.007812 175.167969 583.988281 175.773438 C 585.496094 176.710938 587.046875 177.601562 588.476562 178.640625 C 590.425781 180.058594 592.335938 181.546875 594.171875 183.105469 C 596.480469 185.070312 598.789062 187.054688 600.941406 189.179688 C 602.59375 190.8125 604.125 192.597656 605.5 194.472656 C 607.164062 196.75 608.617188 199.179688 610.125 201.570312 C 611.058594 203.042969 611.960938 204.542969 612.804688 206.074219 C 613.339844 207.050781 613.777344 208.09375 614.203125 209.128906 C 615.195312 211.554688 616.246094 213.957031 616.800781 216.550781 C 617.160156 218.203125 617.296875 219.832031 617.03125 221.5 C 616.941406 222.074219 616.816406 222.652344 616.796875 223.226562 C 616.734375 224.933594 616.195312 226.480469 615.328125 227.933594 C 614.535156 229.261719 614.566406 229.335938 615.714844 230.445312 C 617.007812 231.695312 618.078125 233.128906 618.957031 234.691406 C 620.660156 237.71875 620.25 240.722656 618.671875 243.628906 C 618.238281 244.429688 618.152344 245.054688 618.371094 245.953125 C 618.9375 248.257812 618.984375 250.589844 617.683594 252.726562 C 617.273438 253.398438 616.722656 253.976562 616.242188 254.605469 C 614.960938 256.277344 614.210938 258.199219 613.765625 260.386719 Z M 494.8125 166.832031 C 494.808594 166.78125 494.796875 166.726562 494.792969 166.679688 C 493.351562 166.851562 491.90625 167.011719 490.464844 167.191406 C 486.546875 167.675781 482.613281 168.054688 478.71875 168.6875 C 475.820312 169.160156 472.882812 169.503906 470.054688 170.421875 C 467.609375 171.214844 465.085938 171.761719 462.617188 172.484375 C 457.664062 173.9375 453.015625 176.164062 448.316406 178.25 C 446.152344 179.210938 444.074219 180.363281 441.96875 181.4375 C 441.488281 181.683594 441.042969 182 440.574219 182.265625 C 438.660156 183.335938 436.691406 184.308594 434.847656 185.480469 C 432.359375 187.058594 429.890625 188.679688 427.746094 190.734375 C 426.253906 192.171875 424.640625 193.5 423.253906 195.03125 C 421.390625 197.085938 419.667969 199.273438 417.925781 201.4375 C 416.253906 203.519531 414.757812 205.714844 413.917969 208.292969 C 413.324219 210.109375 412.675781 211.914062 412.082031 213.734375 C 410.9375 217.25 410.625 220.84375 411.535156 224.4375 C 412.425781 227.957031 414.210938 230.84375 417.886719 232.132812 C 418.628906 232.394531 419.316406 232.800781 420.042969 233.105469 C 421.1875 233.585938 422.3125 234.144531 423.5 234.472656 C 426.136719 235.203125 428.804688 235.828125 431.464844 236.441406 C 432.796875 236.753906 434.148438 237.007812 435.5 237.179688 C 437.753906 237.464844 440.023438 237.613281 442.269531 237.917969 C 444.089844 238.164062 445.894531 238.335938 447.730469 238.300781 C 448.726562 238.285156 449.714844 238.375 450.707031 238.355469 C 451.867188 238.335938 453.027344 238.175781 454.179688 238.207031 C 456.253906 238.265625 458.328125 238.125 460.40625 238.503906 C 462.035156 238.796875 463.75 238.644531 465.417969 238.761719 C 467.277344 238.898438 469.128906 239.121094 470.988281 239.277344 C 472.546875 239.410156 474.164062 239.296875 475.65625 239.667969 C 477.714844 240.175781 479.824219 240.28125 481.894531 240.648438 C 485.488281 241.285156 489.109375 241.726562 492.773438 241.929688 C 497.4375 242.1875 502.097656 242.316406 506.769531 242.199219 C 508.972656 242.140625 511.171875 242.035156 513.375 241.96875 C 514.996094 241.921875 516.621094 241.96875 518.238281 241.855469 C 520.851562 241.675781 523.457031 241.394531 526.0625 241.160156 C 529.277344 240.871094 532.507812 240.921875 535.71875 240.507812 C 538.019531 240.214844 540.363281 240.246094 542.6875 240.15625 C 545.390625 240.050781 548.097656 240.042969 550.792969 239.867188 C 553.738281 239.675781 556.683594 239.558594 559.601562 238.996094 C 562.621094 238.417969 565.699219 238.140625 568.675781 237.300781 C 569.378906 237.097656 570.152344 237.03125 570.886719 237.0625 C 571.523438 237.089844 572.109375 237.089844 572.707031 236.832031 C 573.035156 236.691406 573.421875 236.683594 573.785156 236.632812 C 574.644531 236.507812 575.5 236.410156 576.355469 236.28125 C 578.3125 235.984375 580.269531 235.648438 582.238281 235.398438 C 584.667969 235.082031 587.113281 234.851562 589.542969 234.550781 C 590.527344 234.429688 591.476562 234.042969 592.5 234.328125 C 592.671875 234.375 592.894531 234.222656 593.09375 234.179688 C 593.988281 233.992188 594.886719 233.828125 595.777344 233.621094 C 597.964844 233.125 600.148438 232.621094 602.148438 231.558594 C 602.773438 231.230469 603.351562 230.792969 604.003906 230.546875 C 604.769531 230.253906 605.375 229.789062 605.9375 229.226562 C 606.167969 228.992188 606.386719 228.734375 606.644531 228.523438 C 608.398438 227.105469 609.777344 225.4375 610.289062 223.175781 C 610.335938 222.972656 610.398438 222.769531 610.488281 222.585938 C 611.617188 220.273438 611.109375 217.917969 610.472656 215.644531 C 609.84375 213.394531 609.175781 211.140625 608.089844 209.039062 C 607.183594 207.277344 606.492188 205.398438 605.542969 203.660156 C 604.59375 201.929688 603.359375 200.351562 602.410156 198.621094 C 601.382812 196.746094 600.058594 195.117188 598.664062 193.535156 C 597.464844 192.175781 596.199219 190.886719 594.769531 189.742188 C 592.929688 188.265625 591.125 186.75 589.125 185.496094 C 587.714844 184.609375 586.285156 183.773438 584.855469 182.921875 C 582.8125 181.707031 580.78125 180.488281 578.722656 179.308594 C 577.804688 178.785156 576.816406 178.390625 575.890625 177.890625 C 574.367188 177.066406 572.921875 176.078125 571.34375 175.386719 C 568.652344 174.210938 565.90625 173.121094 563.132812 172.15625 C 559.171875 170.777344 555.140625 169.671875 550.988281 168.96875 C 546.128906 168.144531 541.242188 167.636719 536.335938 167.304688 C 531.804688 167 527.269531 166.710938 522.734375 166.484375 C 518.367188 166.273438 513.992188 166.035156 509.628906 166.035156 C 505.636719 166.035156 501.640625 166.324219 497.652344 166.515625 C 496.714844 166.5625 495.769531 166.722656 494.8125 166.832031 Z M 611.394531 263.691406 C 609.898438 264.710938 608.585938 265.566406 607.304688 266.46875 C 605.644531 267.644531 603.847656 268.664062 602.550781 270.285156 C 601.71875 271.320312 600.863281 272.339844 600.539062 273.691406 C 600.085938 275.550781 599.601562 277.402344 599.121094 279.257812 C 598.488281 281.695312 595.84375 282.644531 593.769531 281.394531 C 592.210938 280.453125 591.003906 279.164062 589.824219 277.828125 C 588.925781 276.808594 588.011719 275.800781 587.054688 274.730469 C 586.390625 275.214844 585.828125 275.636719 585.253906 276.039062 C 582.585938 277.925781 579.820312 279.632812 576.503906 280.089844 C 575.136719 280.28125 573.738281 280.5 572.378906 280.394531 C 570.542969 280.257812 568.765625 280.152344 566.980469 280.765625 C 566.085938 281.074219 565.136719 281.285156 564.195312 281.390625 C 561.769531 281.652344 559.511719 282.539062 557.160156 283.097656 C 554.070312 283.828125 550.972656 284.21875 547.820312 283.625 C 547.007812 283.472656 546.183594 283.117188 545.386719 283.167969 C 543.519531 283.292969 541.660156 283.585938 539.808594 283.847656 C 538.292969 284.0625 536.792969 284.367188 535.28125 284.570312 C 531.988281 285.019531 528.660156 285.050781 525.355469 285.304688 C 524.113281 285.398438 522.863281 285.4375 521.625 285.597656 C 519.800781 285.835938 517.996094 285.882812 516.15625 285.59375 C 514.1875 285.285156 512.179688 285.175781 510.203125 284.925781 C 509.339844 284.816406 508.449219 284.699219 507.65625 284.375 C 506.453125 283.882812 505.347656 283.421875 504.316406 284.640625 C 504.265625 284.695312 504.15625 284.683594 504.082031 284.722656 C 503.011719 285.265625 501.925781 285.789062 500.875 286.367188 C 499.898438 286.910156 498.972656 287.558594 497.984375 288.085938 C 496.21875 289.023438 494.417969 289.878906 492.652344 290.816406 C 490.746094 291.832031 488.84375 292.863281 486.976562 293.957031 C 484.328125 295.515625 482.296875 297.671875 480.925781 300.4375 C 480.414062 301.476562 479.925781 302.539062 479.398438 303.570312 C 478.898438 304.550781 478.023438 304.96875 476.972656 305.078125 C 475.5625 305.230469 474.464844 304.621094 473.539062 303.621094 C 472.0625 302.03125 470.742188 300.316406 469.632812 298.445312 C 468.570312 296.65625 467.546875 294.832031 465.996094 293.398438 C 464.472656 291.980469 463.019531 290.457031 461.378906 289.195312 C 459.914062 288.066406 458.535156 286.863281 457.351562 285.464844 C 455.792969 283.625 454.296875 281.71875 452.847656 279.792969 C 452.386719 279.179688 451.914062 278.964844 451.167969 279.015625 C 449.34375 279.136719 447.511719 279.230469 445.6875 279.230469 C 442.523438 279.230469 439.503906 278.558594 436.570312 277.328125 C 435.332031 276.804688 433.921875 276.65625 432.570312 276.460938 C 430.800781 276.207031 428.949219 276.300781 427.257812 275.816406 C 425.15625 275.207031 423.171875 274.175781 421.15625 273.285156 C 420.902344 273.175781 420.574219 272.816406 420.597656 272.601562 C 420.628906 272.34375 420.953125 271.976562 421.210938 271.914062 C 422.015625 271.726562 422.84375 271.578125 423.667969 271.570312 C 424.496094 271.558594 425.320312 271.75 426.152344 271.835938 C 428.609375 272.085938 431.019531 272.539062 433.378906 273.261719 C 435.34375 273.867188 437.339844 274.230469 439.394531 274.25 C 441.515625 274.265625 443.632812 274.25 445.753906 274.28125 C 446.347656 274.289062 446.945312 274.390625 447.699219 274.460938 C 447.503906 274.199219 447.425781 274.046875 447.3125 273.953125 C 446.019531 272.847656 444.492188 272.203125 442.867188 271.796875 C 441.980469 271.578125 441.058594 271.515625 440.148438 271.394531 C 437.257812 271.003906 434.367188 270.617188 431.476562 270.230469 C 428.921875 269.894531 426.363281 269.574219 423.808594 269.21875 C 421.5 268.894531 419.195312 268.535156 416.890625 268.167969 C 416.492188 268.105469 416.179688 268.125 415.871094 268.433594 C 414.285156 270.019531 412.671875 271.578125 411.070312 273.15625 C 410.621094 273.597656 410.554688 274.117188 410.589844 274.753906 C 410.667969 276.28125 410.789062 277.839844 410.566406 279.339844 C 410.359375 280.679688 410.375 281.972656 410.5 283.296875 C 410.554688 283.914062 410.554688 284.542969 410.632812 285.160156 C 410.960938 287.832031 410.988281 290.589844 412.601562 292.9375 C 413.257812 293.890625 413.898438 294.886719 414.707031 295.699219 C 416.414062 297.417969 418.585938 298.433594 420.800781 299.300781 C 422.578125 300 424.460938 300.429688 426.273438 301.050781 C 429.265625 302.078125 432.21875 303.222656 435.226562 304.191406 C 437.363281 304.882812 439.550781 305.410156 441.738281 305.917969 C 443.769531 306.390625 445.824219 306.726562 447.867188 307.132812 C 449.953125 307.542969 452.03125 307.960938 454.113281 308.367188 C 455.296875 308.601562 456.5 308.769531 457.664062 309.066406 C 461.417969 310.023438 465.15625 311.035156 468.910156 312.011719 C 471.871094 312.78125 474.910156 313.046875 477.953125 313.097656 C 480.949219 313.144531 483.949219 312.953125 486.945312 312.878906 C 488.691406 312.828125 490.441406 312.785156 492.1875 312.757812 C 495.398438 312.710938 498.601562 312.691406 501.8125 312.625 C 504.5625 312.566406 507.320312 312.59375 510.050781 312.335938 C 512.988281 312.054688 515.917969 311.582031 518.820312 311.019531 C 523.546875 310.089844 528.335938 309.917969 533.117188 309.597656 C 534.1875 309.523438 535.246094 309.296875 536.308594 309.097656 C 538.265625 308.730469 540.210938 308.234375 542.183594 307.980469 C 544.480469 307.679688 546.804688 307.589844 549.113281 307.289062 C 551.96875 306.917969 554.691406 306.054688 557.503906 305.542969 C 559.714844 305.144531 561.894531 304.554688 564.109375 304.207031 C 566.449219 303.839844 568.8125 303.621094 571.171875 303.414062 C 574.875 303.085938 578.449219 302.105469 582.046875 301.269531 C 584.15625 300.777344 586.246094 300.179688 588.378906 299.890625 C 590.050781 299.660156 591.601562 299.070312 593.148438 298.554688 C 595.976562 297.605469 598.703125 296.347656 601.464844 295.203125 C 603.503906 294.363281 605.566406 293.5625 607.5625 292.636719 C 609.929688 291.539062 612.117188 290.117188 613.378906 287.742188 C 614.503906 285.621094 615.433594 283.390625 616.425781 281.199219 C 616.984375 279.96875 617.363281 278.65625 617.128906 277.320312 C 616.835938 275.597656 616.53125 273.835938 615.886719 272.234375 C 615.039062 270.132812 613.867188 268.160156 612.8125 266.148438 C 612.378906 265.316406 611.871094 264.511719 611.394531 263.691406 Z M 616.246094 294.859375 C 615.777344 295.214844 615.332031 295.585938 614.859375 295.898438 C 612.632812 297.382812 610.160156 298.367188 607.703125 299.394531 C 606.097656 300.066406 604.441406 300.648438 602.929688 301.496094 C 600.390625 302.914062 597.835938 304.253906 595.09375 305.273438 C 591.507812 306.601562 587.832031 307.371094 584.035156 307.65625 C 579.722656 307.984375 575.390625 307.984375 571.085938 308.597656 C 567.964844 309.039062 564.941406 309.753906 562.058594 310.984375 C 558.914062 312.324219 555.710938 313.453125 552.324219 313.996094 C 550.886719 314.222656 549.417969 314.242188 547.980469 314.488281 C 544.371094 315.117188 540.726562 315.398438 537.078125 315.707031 C 533.972656 315.96875 530.871094 316.292969 527.761719 316.515625 C 525.601562 316.671875 523.433594 316.800781 521.273438 316.777344 C 519.109375 316.753906 516.957031 316.46875 514.792969 316.398438 C 513.464844 316.355469 512.132812 316.5 510.804688 316.574219 C 510.3125 316.601562 509.816406 316.644531 509.324219 316.707031 C 508.542969 316.804688 507.761719 316.953125 506.976562 317.027344 C 505.574219 317.171875 504.167969 317.296875 502.757812 317.394531 C 500.6875 317.542969 498.613281 317.808594 496.542969 317.757812 C 493.34375 317.675781 490.148438 317.433594 486.960938 317.148438 C 483.941406 316.875 480.9375 316.453125 477.921875 316.125 C 475.476562 315.859375 473.03125 315.589844 470.582031 315.40625 C 468.675781 315.265625 466.757812 315.296875 464.847656 315.175781 C 462.480469 315.027344 460.113281 314.808594 457.75 314.605469 C 454.035156 314.289062 450.652344 312.96875 447.386719 311.246094 C 446.136719 310.585938 444.882812 309.914062 443.570312 309.394531 C 440.394531 308.136719 437.015625 307.925781 433.660156 307.589844 C 431.304688 307.355469 428.941406 307.273438 426.597656 306.777344 C 423.195312 306.042969 419.90625 305.082031 416.84375 303.417969 C 416.441406 303.199219 416.042969 302.960938 415.707031 302.667969 C 414.925781 301.988281 414.175781 301.273438 413.425781 300.550781 C 412.863281 300.003906 412.152344 299.804688 411.664062 300.246094 C 410.796875 301.019531 409.828125 301.773438 409.226562 302.738281 C 407.621094 305.339844 406.285156 308.070312 406.449219 311.28125 C 406.554688 313.277344 407.164062 313.546875 408.628906 312.902344 C 409.835938 312.367188 410.972656 311.644531 412.085938 310.917969 C 414.164062 309.5625 416.328125 308.625 418.898438 308.976562 C 422.125 309.425781 423.804688 310.992188 424.628906 314.085938 C 424.976562 315.386719 424.96875 316.792969 425.074219 318.15625 C 425.15625 319.175781 425.320312 319.367188 426.296875 319.722656 C 427.78125 320.257812 429.296875 320.757812 430.699219 321.464844 C 433.292969 322.773438 435.132812 324.722656 435.847656 327.6875 C 436.398438 329.972656 436.121094 332.160156 435.585938 334.359375 C 435.136719 336.175781 434.414062 337.921875 434.324219 339.824219 C 434.261719 341.183594 434.417969 342.476562 435.195312 343.640625 C 435.730469 344.449219 436.132812 344.65625 436.96875 344.199219 C 437.871094 343.703125 438.792969 343.144531 439.488281 342.402344 C 441.167969 340.617188 442.765625 338.75 444.316406 336.847656 C 446.292969 334.421875 448.707031 332.636719 451.660156 331.628906 C 455.160156 330.433594 458.765625 330.226562 462.410156 330.710938 C 464.121094 330.941406 465.753906 331.445312 467.242188 332.347656 C 468.238281 332.953125 469.238281 333.546875 470.238281 334.128906 C 471.761719 335.023438 473.4375 335.324219 475.152344 335.097656 C 477.296875 334.816406 479.417969 334.375 481.554688 334.015625 C 483.242188 333.734375 484.929688 333.3125 486.625 333.269531 C 489.707031 333.1875 492.796875 333.289062 495.878906 333.417969 C 498.746094 333.535156 501.265625 334.675781 503.652344 336.222656 C 505.214844 337.234375 506.394531 338.625 507.683594 339.910156 C 508.476562 340.703125 509.382812 341.03125 510.503906 340.945312 C 511.695312 340.855469 512.617188 340.183594 513.527344 339.570312 C 515.59375 338.179688 517.625 336.71875 519.59375 335.183594 C 521.640625 333.582031 523.984375 332.632812 526.40625 331.886719 C 528.386719 331.277344 530.453125 330.933594 532.472656 330.449219 C 535.625 329.695312 538.808594 329.425781 542.023438 329.925781 C 545.1875 330.417969 547.363281 332.039062 548.28125 335.234375 C 548.925781 337.46875 549.066406 339.734375 549.046875 342.035156 C 549.035156 343.824219 548.832031 345.625 549.351562 347.375 C 549.714844 348.59375 549.898438 349.878906 550.699219 350.945312 C 551.152344 351.554688 551.703125 351.839844 552.414062 351.5625 C 553.300781 351.207031 554.226562 350.890625 555.007812 350.367188 C 557.445312 348.730469 559.117188 346.601562 559.015625 343.460938 C 558.988281 342.585938 559.011719 341.707031 558.96875 340.832031 C 558.859375 338.550781 559.226562 336.371094 560.214844 334.292969 C 560.917969 332.808594 561.921875 331.570312 563 330.34375 C 564.796875 328.296875 567.078125 327.21875 569.644531 326.660156 C 571.960938 326.152344 574.261719 326.488281 576.539062 326.984375 C 577.144531 327.117188 577.742188 327.300781 578.355469 327.367188 C 581.160156 327.667969 583.828125 327.171875 586.378906 325.976562 C 588.589844 324.9375 590.476562 323.425781 592.425781 322 C 595.496094 319.75 598.964844 318.359375 602.625 317.441406 C 603.585938 317.199219 604.609375 317.164062 605.609375 317.132812 C 606.839844 317.09375 608.027344 317.5625 608.6875 318.53125 C 609.5625 319.820312 610.5 319.90625 611.734375 319.296875 C 611.878906 319.226562 612.046875 319.179688 612.207031 319.140625 C 613.644531 318.8125 614.71875 318.089844 615.546875 316.78125 C 616.449219 315.355469 617.144531 313.972656 616.851562 312.246094 C 616.800781 311.960938 616.722656 311.667969 616.722656 311.382812 C 616.730469 310.554688 616.625 309.691406 616.839844 308.910156 C 617.449219 306.660156 618.242188 304.464844 618.851562 302.214844 C 619.167969 301.058594 619.433594 299.832031 619.375 298.65625 C 619.292969 296.75 617.8125 295.777344 616.246094 294.859375 Z M 442.835938 347.648438 C 444.117188 348.125 445.183594 348.574219 446.277344 348.929688 C 447.820312 349.429688 449.386719 349.859375 450.945312 350.308594 C 453.421875 351.027344 455.898438 351.765625 458.378906 352.460938 C 460.5 353.050781 462.628906 353.621094 464.769531 354.144531 C 467.839844 354.894531 470.894531 355.675781 473.992188 356.289062 C 477.292969 356.9375 480.617188 357.492188 483.945312 357.949219 C 489.6875 358.742188 495.464844 359.183594 501.257812 359.371094 C 503.910156 359.457031 506.570312 359.492188 509.222656 359.589844 C 512.175781 359.691406 515.128906 359.867188 518.082031 359.960938 C 521.121094 360.050781 524.160156 360.074219 527.199219 360.117188 C 529.277344 360.144531 531.355469 360.226562 533.433594 360.164062 C 537.058594 360.058594 540.675781 359.902344 544.296875 359.6875 C 546.699219 359.546875 549.105469 359.335938 551.488281 359.003906 C 554.082031 358.640625 556.679688 358.226562 559.230469 357.628906 C 563.601562 356.597656 568.078125 356.101562 572.394531 354.789062 C 574.578125 354.125 576.84375 353.742188 579.066406 353.195312 C 580.914062 352.738281 582.699219 351.992188 584.640625 351.890625 C 584.878906 351.875 585.113281 351.730469 585.347656 351.644531 C 585.972656 351.421875 586.585938 351.175781 587.210938 350.976562 C 588.515625 350.558594 589.851562 350.234375 591.121094 349.734375 C 596.054688 347.808594 600.894531 345.667969 605.523438 343.09375 C 607.332031 342.085938 609.046875 340.886719 610.386719 339.257812 C 611.210938 338.257812 612.082031 337.296875 612.796875 336.226562 C 614.097656 334.296875 615.222656 332.277344 616.195312 330.140625 C 617.117188 328.109375 617.136719 325.941406 617.660156 323.859375 C 617.683594 323.773438 617.558594 323.648438 617.46875 323.472656 C 616.949219 323.636719 616.4375 323.929688 615.933594 323.914062 C 615.238281 323.894531 614.890625 324.230469 614.492188 324.695312 C 613.613281 325.714844 612.597656 326.5625 611.207031 326.808594 C 609.507812 327.101562 607.953125 326.945312 606.566406 325.730469 C 605.425781 324.734375 604.789062 323.496094 604.496094 322.070312 C 604.363281 321.417969 604.082031 321.148438 603.429688 321.105469 C 601.726562 320.984375 600.125 321.378906 598.53125 321.910156 C 596.425781 322.609375 594.71875 323.933594 593.070312 325.351562 C 590.769531 327.335938 588.738281 329.632812 586.070312 331.183594 C 583.84375 332.480469 581.535156 333.511719 578.894531 333.390625 C 577.152344 333.308594 575.414062 333.109375 573.675781 332.894531 C 570.6875 332.523438 568.089844 333.296875 565.898438 335.40625 C 564.640625 336.613281 563.984375 338.136719 563.566406 339.757812 C 563.214844 341.121094 562.988281 342.53125 562.8125 343.925781 C 562.207031 348.746094 559.730469 352.46875 556.121094 355.542969 C 554.425781 356.988281 552.386719 357.71875 550.238281 357.621094 C 547.789062 357.503906 545.828125 356.140625 544.625 354.019531 C 543.757812 352.496094 543.109375 350.84375 542.984375 349.015625 C 542.878906 347.464844 542.863281 345.945312 543.421875 344.484375 C 544.03125 342.894531 544.707031 341.328125 545.386719 339.765625 C 546.421875 337.394531 545.351562 335.085938 542.851562 334.378906 C 541.371094 333.953125 539.882812 333.554688 538.410156 333.113281 C 537.257812 332.769531 536.09375 332.769531 534.9375 333 C 532.394531 333.492188 529.957031 334.316406 527.539062 335.257812 C 525.542969 336.03125 524.117188 337.453125 522.714844 338.925781 C 521.660156 340.027344 520.785156 341.300781 519.789062 342.46875 C 518.121094 344.425781 516.175781 346.035156 513.6875 346.855469 C 512.898438 347.117188 512.089844 347.351562 511.269531 347.464844 C 510.507812 347.570312 509.703125 347.597656 508.945312 347.480469 C 506.992188 347.167969 505.269531 346.324219 503.714844 345.074219 C 502.347656 343.96875 501.277344 342.652344 500.570312 341.066406 C 499.855469 339.449219 499.179688 337.832031 497.253906 337.296875 C 496.890625 337.199219 496.535156 337.085938 496.171875 336.980469 C 494.417969 336.460938 492.621094 336.65625 490.828125 336.664062 C 487.863281 336.675781 485.035156 337.25 482.332031 338.480469 C 481.273438 338.96875 480.210938 339.441406 479.152344 339.933594 C 476.746094 341.039062 474.234375 341.445312 471.605469 341.070312 C 468.832031 340.675781 466.8125 339.238281 465.4375 336.796875 C 464.492188 335.121094 463.101562 333.925781 461.117188 333.742188 C 458.304688 333.480469 455.539062 333.800781 452.890625 334.871094 C 450.15625 335.980469 448.386719 338.082031 446.992188 340.585938 C 445.921875 342.511719 444.839844 344.425781 443.742188 346.339844 C 443.527344 346.746094 443.207031 347.128906 442.835938 347.648438 Z M 548.140625 256.484375 C 548.140625 256.402344 548.140625 256.320312 548.140625 256.242188 C 547.484375 256.035156 546.835938 255.742188 546.160156 255.640625 C 543.992188 255.328125 541.824219 255.375 539.722656 256.074219 C 538.179688 256.589844 536.664062 257.179688 535.132812 257.714844 C 532.027344 258.800781 528.925781 259.878906 525.816406 260.949219 C 524.949219 261.242188 524.085938 261.589844 523.191406 261.730469 C 520.972656 262.066406 518.757812 262.179688 516.507812 261.800781 C 512.171875 261.074219 508.234375 259.574219 505.191406 256.246094 C 504.414062 255.394531 503.441406 255 502.335938 254.863281 C 499.835938 254.542969 497.433594 255.117188 495.074219 255.8125 C 492.34375 256.613281 490.042969 258.21875 487.96875 260.109375 C 486.0625 261.847656 484.234375 263.683594 481.953125 264.945312 C 481.09375 265.417969 480.175781 265.824219 479.246094 266.152344 C 477.710938 266.699219 476.085938 266.742188 474.472656 266.933594 C 471.667969 267.265625 469.097656 266.679688 466.6875 265.328125 C 465.574219 264.707031 464.609375 263.859375 463.832031 262.804688 C 462.6875 261.25 461.933594 259.492188 461.152344 257.75 C 460.453125 256.183594 459.453125 254.960938 457.714844 254.570312 C 456.90625 254.390625 456.066406 254.277344 455.242188 254.253906 C 451.355469 254.152344 447.757812 255.3125 444.277344 256.894531 C 441.667969 258.078125 439.222656 259.597656 436.375 260.265625 C 433.527344 260.929688 430.863281 260.773438 428.328125 259.234375 C 427.070312 258.472656 425.910156 257.597656 425.210938 256.285156 C 424.261719 254.5 423.679688 252.597656 423.714844 250.546875 C 423.71875 250.257812 423.695312 249.964844 423.652344 249.679688 C 423.425781 248.140625 422.820312 247.613281 421.289062 247.425781 C 419.492188 247.207031 417.929688 247.828125 416.394531 248.628906 C 415.214844 249.242188 414.085938 250.007812 412.832031 250.386719 C 411.667969 250.738281 410.941406 251.3125 410.597656 252.4375 C 410.550781 252.59375 410.484375 252.75 410.40625 252.898438 C 408.996094 255.773438 407.804688 258.765625 406.003906 261.445312 C 405.457031 262.253906 405.070312 263.171875 404.519531 264.199219 C 404.84375 264.121094 404.992188 264.078125 405.136719 264.054688 C 407.703125 263.722656 410.253906 263.265625 412.828125 263.085938 C 416.667969 262.8125 420.488281 263.175781 424.277344 263.851562 C 426.980469 264.335938 429.683594 264.835938 432.265625 265.824219 C 435.816406 267.179688 439.4375 268.316406 443.195312 268.929688 C 445.894531 269.371094 448.449219 270.273438 450.882812 271.445312 C 455.25 273.539062 458.796875 276.671875 461.710938 280.507812 C 463.542969 282.921875 465.269531 285.414062 467.039062 287.871094 C 468.253906 289.558594 469.371094 291.328125 470.683594 292.941406 C 472.632812 295.328125 474.710938 297.613281 476.746094 299.933594 C 476.839844 300.042969 477.011719 300.089844 477.230469 300.210938 C 477.910156 299.046875 478.566406 297.933594 479.214844 296.820312 C 480.550781 294.511719 482.101562 292.386719 483.914062 290.390625 C 486.570312 287.472656 489.859375 285.417969 493.15625 283.445312 C 496.105469 281.679688 499.332031 280.371094 502.457031 278.902344 C 503.429688 278.441406 504.46875 278.101562 505.480469 277.726562 C 509.699219 276.171875 513.902344 274.578125 518.148438 273.09375 C 521.582031 271.898438 524.863281 270.445312 527.796875 268.25 C 529.261719 267.152344 530.875 266.25 532.320312 265.132812 C 535.972656 262.3125 539.90625 260.007812 544.183594 258.277344 C 545.523438 257.730469 546.820312 257.082031 548.140625 256.484375 Z M 611.527344 233.316406 C 610.871094 233.8125 610.304688 234.378906 609.625 234.734375 C 607.941406 235.625 606.46875 236.890625 604.589844 237.457031 C 603.28125 237.851562 602.066406 238.574219 600.746094 238.910156 C 598.066406 239.601562 595.339844 240.136719 592.628906 240.726562 C 592.34375 240.789062 592.054688 240.832031 591.769531 240.855469 C 591.027344 240.917969 590.285156 240.941406 589.546875 241.027344 C 587.277344 241.296875 585.019531 241.660156 582.742188 241.855469 C 580.179688 242.074219 577.601562 242.144531 575.027344 242.289062 C 574.164062 242.335938 573.296875 242.410156 572.429688 242.488281 C 571.648438 242.558594 570.867188 242.695312 570.078125 242.714844 C 568.5 242.757812 566.910156 242.667969 565.335938 242.761719 C 562.304688 242.949219 559.277344 243.199219 556.253906 243.46875 C 554.144531 243.652344 552.039062 243.90625 549.9375 244.132812 C 549.066406 244.226562 548.195312 244.332031 547.332031 244.433594 C 545.429688 244.648438 543.527344 244.839844 541.625 245.070312 C 539.445312 245.332031 537.320312 246.050781 535.085938 245.78125 C 534.886719 245.757812 534.675781 245.84375 534.464844 245.859375 C 531.851562 246.027344 529.238281 246.28125 526.625 246.324219 C 523.964844 246.367188 521.308594 246.1875 518.644531 246.136719 C 514.644531 246.054688 510.640625 245.976562 506.636719 245.941406 C 503.597656 245.910156 500.554688 245.929688 497.515625 245.964844 C 495.597656 245.984375 493.679688 246.078125 491.765625 246.125 C 489.679688 246.179688 487.597656 246.234375 485.519531 246.25 C 484.527344 246.253906 483.527344 246.109375 482.527344 246.105469 C 480.328125 246.097656 478.128906 246.164062 475.929688 246.144531 C 474.390625 246.128906 472.855469 245.933594 471.324219 245.992188 C 468.609375 246.097656 465.929688 245.726562 463.25 245.460938 C 461.066406 245.242188 458.902344 244.828125 456.714844 244.59375 C 453.945312 244.292969 451.167969 244.09375 448.402344 243.84375 C 443.761719 243.417969 439.125 242.980469 434.480469 242.5625 C 432.863281 242.417969 431.234375 242.367188 429.625 242.160156 C 426.453125 241.742188 423.324219 241.144531 420.253906 240.179688 C 418.332031 239.578125 416.460938 238.957031 414.78125 237.8125 C 413.5625 236.976562 412.25 236.273438 411.039062 235.421875 C 410.359375 234.941406 409.8125 234.269531 409.058594 233.542969 C 408.773438 235.085938 408.535156 236.390625 408.285156 237.683594 C 408.023438 239.023438 407.78125 240.351562 408.457031 241.667969 C 408.664062 242.070312 408.753906 242.539062 408.84375 242.988281 C 409.046875 244.039062 409.660156 244.761719 410.691406 244.914062 C 411.828125 245.078125 413 245.152344 414.144531 245.078125 C 415.257812 245.007812 416.347656 244.605469 417.460938 244.519531 C 419.597656 244.351562 421.722656 244.476562 423.71875 245.363281 C 425.15625 246 426.371094 246.933594 427.296875 248.21875 C 428.046875 249.265625 428.75 250.34375 429.515625 251.375 C 429.867188 251.851562 430.316406 252.265625 430.742188 252.683594 C 431.867188 253.785156 433.355469 253.96875 434.765625 253.9375 C 438.164062 253.871094 441.5625 253.773438 444.925781 253.179688 C 448.707031 252.507812 452.511719 252.105469 456.359375 252.179688 C 459.410156 252.238281 462.207031 252.972656 464.53125 255.082031 C 465.59375 256.046875 466.683594 256.976562 467.746094 257.9375 C 469.414062 259.441406 471.414062 260.054688 473.59375 260.277344 C 475.484375 260.472656 477.25 259.828125 479.046875 259.457031 C 481.386719 258.972656 483.433594 257.71875 485.5 256.605469 C 488.441406 255.027344 491.4375 253.617188 494.675781 252.785156 C 496.765625 252.242188 498.882812 251.78125 501.003906 251.363281 C 504.765625 250.621094 508.355469 251.085938 511.71875 253.019531 C 514.597656 254.675781 517.6875 255.550781 521.03125 255.507812 C 522.476562 255.488281 523.921875 255.519531 525.367188 255.585938 C 527.589844 255.683594 529.773438 255.429688 531.921875 254.914062 C 534.589844 254.273438 537.242188 253.574219 539.898438 252.871094 C 542.125 252.28125 544.367188 251.84375 546.675781 252.042969 C 549.824219 252.3125 552.886719 252.996094 555.910156 253.925781 C 557.292969 254.347656 558.78125 254.613281 560.226562 254.632812 C 561.773438 254.652344 563.320312 254.34375 564.753906 253.636719 C 568.199219 251.941406 571.671875 250.304688 575.125 248.628906 C 577.835938 247.308594 580.734375 246.589844 583.679688 246.105469 C 585.886719 245.742188 588.128906 245.921875 590.359375 246.128906 C 591.746094 246.257812 593.113281 246.230469 594.503906 245.796875 C 596.644531 245.132812 598.664062 244.195312 600.65625 243.230469 C 603.128906 242.039062 605.570312 241.820312 608.148438 242.726562 C 609.3125 243.132812 610.515625 243.4375 611.605469 243.761719 C 612.8125 242.667969 613.355469 241.40625 613.820312 240.113281 C 614.191406 239.085938 614.160156 238.082031 613.605469 237.105469 C 612.917969 235.890625 612.273438 234.683594 611.527344 233.316406 Z M 514.667969 279.496094 C 515.558594 279.332031 516.453125 279.179688 517.335938 278.992188 C 521.601562 278.113281 525.882812 278.664062 530.164062 278.808594 C 532.117188 278.867188 534.070312 278.917969 536.027344 278.921875 C 538.109375 278.925781 540.191406 278.882812 542.273438 278.835938 C 544.144531 278.792969 546.011719 278.753906 547.878906 278.640625 C 550.242188 278.496094 552.613281 278.035156 554.957031 278.152344 C 557.566406 278.277344 560.085938 278.308594 562.601562 277.488281 C 565.21875 276.644531 567.890625 275.976562 570.527344 275.207031 C 574.914062 273.925781 579.359375 273.082031 583.960938 273.3125 C 584.355469 273.332031 584.75 273.28125 585.351562 273.246094 C 585.003906 272.871094 584.835938 272.648438 584.625 272.46875 C 584.40625 272.277344 584.125 272.160156 583.921875 271.957031 C 581.71875 269.804688 579.09375 268.449219 576.09375 267.796875 C 574.671875 267.488281 573.191406 267.496094 571.785156 267.25 C 569.511719 266.851562 567.246094 266.167969 565.109375 265.285156 C 562.582031 264.25 560.191406 262.875 557.746094 261.644531 C 556.589844 261.0625 555.433594 260.492188 554.292969 259.886719 C 553.394531 259.414062 552.503906 259.289062 551.542969 259.730469 C 549.917969 260.476562 548.261719 261.171875 546.644531 261.929688 C 545.628906 262.40625 544.609375 262.902344 543.660156 263.5 C 540.160156 265.6875 536.996094 268.300781 534.011719 271.15625 C 532.269531 272.816406 530.195312 274.085938 528.109375 275.28125 C 525.128906 276.992188 521.78125 277.53125 518.464844 278.128906 C 517.132812 278.371094 515.851562 278.785156 514.667969 279.496094 Z M 595.417969 276.191406 C 595.609375 275.945312 595.726562 275.859375 595.761719 275.75 C 596.710938 272.960938 598.296875 270.523438 599.878906 268.078125 C 600.972656 266.386719 602.351562 264.945312 603.796875 263.566406 C 606.769531 260.730469 609.730469 257.894531 611.667969 254.1875 C 612.476562 252.640625 613.367188 251.144531 614.21875 249.617188 C 614.5 249.117188 614.542969 248.613281 614.175781 248.054688 C 612.914062 248.4375 611.632812 248.738281 610.367188 248.28125 C 609.359375 247.914062 608.390625 247.449219 607.414062 246.988281 C 606.769531 246.683594 606.101562 246.304688 605.398438 246.53125 C 604.53125 246.800781 603.664062 247.148438 602.898438 247.628906 C 601.527344 248.488281 600.21875 249.445312 598.921875 250.410156 C 597.246094 251.652344 595.332031 252.097656 593.3125 252.195312 C 591.378906 252.285156 589.523438 251.875 587.6875 251.261719 C 585.582031 250.5625 583.460938 250.203125 581.199219 250.875 C 578.398438 251.71875 576.167969 253.386719 574.003906 255.21875 C 572.207031 256.742188 570.539062 258.441406 568.273438 259.328125 C 567.792969 259.511719 567.367188 259.820312 566.738281 260.167969 C 567.449219 260.453125 567.984375 260.65625 568.503906 260.878906 C 570.628906 261.804688 572.742188 262.777344 574.886719 263.664062 C 577.148438 264.605469 579.507812 265.34375 581.714844 266.394531 C 585.371094 268.140625 588.597656 270.585938 591.75 273.105469 C 592.972656 274.089844 594.152344 275.125 595.417969 276.191406 Z M 418.429688 315.378906 C 418.332031 315.339844 418.230469 315.308594 418.132812 315.269531 C 417.792969 315.921875 417.328125 316.535156 417.140625 317.230469 C 416.628906 319.105469 416.179688 321.003906 415.796875 322.917969 C 415.359375 325.089844 415.246094 327.257812 415.953125 329.433594 C 416.667969 331.605469 417.550781 333.722656 419.359375 335.144531 C 421.765625 337.035156 424.210938 338.90625 426.976562 340.289062 C 427.710938 340.65625 428.371094 341.160156 429.082031 341.613281 C 429.191406 341.40625 429.25 341.300781 429.308594 341.191406 C 430.0625 339.710938 430.804688 338.226562 431.570312 336.75 C 432.183594 335.570312 432.855469 334.425781 433.449219 333.238281 C 434 332.132812 433.886719 330.953125 433.640625 329.808594 C 433.210938 327.839844 431.964844 326.558594 430.03125 326.078125 C 428.707031 325.75 427.332031 325.613281 425.976562 325.414062 C 424.34375 325.175781 422.648438 325.167969 421.238281 324.113281 C 419.882812 323.105469 418.804688 321.917969 418.671875 320.132812 C 418.605469 319.234375 418.597656 318.328125 418.554688 317.421875 C 418.519531 316.734375 418.472656 316.054688 418.429688 315.378906 Z M 418.429688 315.378906 " fill-opacity="1" fill-rule="nonzero"/></g><path fill="#000000" d="M 603.890625 221.410156 C 604.046875 222.195312 603.839844 222.617188 603.347656 222.988281 C 602.1875 223.867188 600.867188 224.378906 599.472656 224.640625 C 595.300781 225.417969 591.132812 226.242188 586.9375 226.839844 C 584.769531 227.148438 582.523438 227.203125 580.335938 227.050781 C 578.042969 226.894531 575.824219 227.070312 573.660156 227.695312 C 570.742188 228.539062 567.789062 229.078125 564.773438 228.761719 C 561.40625 228.410156 558.226562 229.0625 555.050781 230.027344 C 552.476562 230.808594 549.835938 231.179688 547.144531 230.894531 C 546.445312 230.820312 545.746094 230.644531 545.089844 230.398438 C 544.808594 230.292969 544.457031 229.878906 544.46875 229.617188 C 544.476562 229.347656 544.847656 228.933594 545.132812 228.863281 C 546.589844 228.5 548.058594 228.191406 549.53125 227.929688 C 552.003906 227.496094 554.503906 227.351562 557.007812 227.488281 C 558.847656 227.585938 560.5625 227.023438 562.253906 226.449219 C 565.664062 225.296875 569.15625 224.890625 572.726562 225.191406 C 575.257812 225.398438 577.710938 225.0625 580.121094 224.292969 C 582.402344 223.558594 584.757812 223.199219 587.140625 223.207031 C 591.210938 223.222656 595.1875 222.527344 599.171875 221.855469 C 600.28125 221.671875 601.390625 221.484375 602.507812 221.347656 C 602.933594 221.296875 603.394531 221.386719 603.890625 221.410156 Z M 603.890625 221.410156 " fill-opacity="1" fill-rule="nonzero"/><path fill="#000000" d="M 438.996094 224.390625 C 441.390625 224.566406 443.792969 224.675781 446.179688 224.9375 C 447.824219 225.121094 449.449219 225.550781 451.089844 225.804688 C 453.785156 226.222656 456.492188 225.96875 459.191406 225.875 C 460.273438 225.835938 461.371094 225.835938 462.4375 225.976562 C 463.285156 226.085938 464.089844 226.527344 464.941406 226.644531 C 467.039062 226.949219 469.15625 227.136719 471.257812 227.40625 C 471.914062 227.492188 472.566406 227.652344 473.191406 227.867188 C 473.410156 227.941406 473.6875 228.269531 473.683594 228.472656 C 473.671875 228.691406 473.40625 228.972656 473.183594 229.101562 C 472.902344 229.257812 472.554688 229.324219 472.226562 229.371094 C 470.210938 229.660156 468.183594 229.910156 466.167969 230.226562 C 463.777344 230.601562 461.46875 230.308594 459.125 229.726562 C 455.890625 228.933594 452.621094 228.207031 449.242188 228.460938 C 447.332031 228.605469 445.414062 228.722656 443.515625 228.984375 C 441.195312 229.304688 438.953125 229.015625 436.710938 228.453125 C 435.214844 228.078125 433.707031 227.753906 432.214844 227.367188 C 431.453125 227.175781 430.699219 226.921875 429.976562 226.617188 C 429.714844 226.507812 429.550781 226.175781 429.339844 225.941406 C 429.582031 225.757812 429.804688 225.457031 430.078125 225.40625 C 431.507812 225.132812 432.941406 224.859375 434.386719 224.710938 C 435.914062 224.558594 437.453125 224.554688 438.984375 224.488281 C 438.988281 224.457031 438.988281 224.425781 438.996094 224.390625 Z M 438.996094 224.390625 " fill-opacity="1" fill-rule="nonzero"/><path fill="#000000" d="M 518.589844 231.539062 C 516.683594 231.011719 515.1875 231.6875 513.6875 232.128906 C 512.734375 232.410156 511.804688 232.457031 510.859375 232.382812 C 509.777344 232.292969 508.699219 232.152344 507.632812 231.957031 C 504.101562 231.3125 500.625 231.53125 497.105469 232.238281 C 495.046875 232.652344 492.882812 232.808594 490.773438 232.367188 C 488.945312 231.976562 487.140625 231.457031 485.339844 230.949219 C 484.84375 230.8125 484.179688 230.65625 484.21875 229.964844 C 484.253906 229.308594 484.910156 229.160156 485.414062 229.039062 C 486.136719 228.863281 486.890625 228.777344 487.636719 228.707031 C 490.378906 228.4375 493.125 228.582031 495.863281 228.730469 C 496.605469 228.773438 497.351562 228.925781 498.082031 229.105469 C 500.859375 229.792969 503.617188 229.429688 506.394531 229.085938 C 509.160156 228.742188 511.953125 228.605469 514.71875 229.148438 C 516.265625 229.453125 517.792969 229.148438 519.328125 229.109375 C 520.445312 229.082031 521.570312 229.195312 522.6875 229.304688 C 523.089844 229.34375 523.550781 229.519531 523.570312 230.042969 C 523.585938 230.539062 523.195312 230.800781 522.777344 230.878906 C 521.308594 231.140625 519.828125 231.347656 518.589844 231.539062 Z M 518.589844 231.539062 " fill-opacity="1" fill-rule="nonzero"/><path fill="#000000" d="M 417.238281 213.699219 C 417.332031 211.730469 417.726562 209.914062 419 208.320312 C 419.933594 207.15625 420.628906 205.84375 421.195312 204.425781 C 422.246094 201.792969 424.410156 200.257812 427.003906 199.300781 C 427.4375 199.140625 427.988281 198.988281 428.246094 199.476562 C 428.402344 199.777344 428.347656 200.289062 428.199219 200.628906 C 427.441406 202.394531 426.496094 204.0625 425.222656 205.519531 C 424.949219 205.828125 424.652344 206.128906 424.308594 206.359375 C 422.515625 207.546875 421.398438 209.117188 421.09375 211.316406 C 420.914062 212.621094 420.410156 213.882812 420.015625 215.148438 C 419.839844 215.710938 419.546875 216.25 418.820312 216.226562 C 418.125 216.203125 417.789062 215.703125 417.585938 215.148438 C 417.402344 214.679688 417.339844 214.179688 417.238281 213.699219 Z M 417.238281 213.699219 " fill-opacity="1" fill-rule="nonzero"/><path fill="#000000" d="M 570.386719 191.039062 C 570.394531 190.886719 570.390625 190.550781 570.429688 190.21875 C 570.585938 188.875 571.457031 188.453125 572.675781 188.953125 C 573.890625 189.453125 574.832031 190.398438 575.519531 191.492188 C 576.199219 192.574219 576.679688 193.785156 576.925781 195.078125 C 577.117188 196.066406 576.945312 196.980469 576.546875 197.855469 C 576.070312 198.890625 575.0625 199.242188 573.953125 198.90625 C 572.878906 198.578125 572.195312 197.851562 571.699219 196.894531 C 570.78125 195.117188 570.453125 193.199219 570.386719 191.039062 Z M 570.386719 191.039062 " fill-opacity="1" fill-rule="nonzero"/><path fill="#000000" d="M 531.140625 197.050781 C 531.105469 197.3125 531.0625 197.683594 530.996094 198.050781 C 530.835938 198.882812 530.414062 199.601562 529.578125 199.777344 C 528.679688 199.972656 527.707031 199.898438 527.066406 199.089844 C 526.554688 198.445312 526.015625 197.753906 525.75 196.988281 C 525.039062 194.964844 524.800781 192.855469 525.144531 190.714844 C 525.183594 190.46875 525.226562 190.21875 525.316406 189.988281 C 525.703125 188.957031 526.5625 188.675781 527.371094 189.421875 C 528.003906 190.007812 528.492188 190.753906 529.03125 191.445312 C 529.929688 192.609375 530.710938 193.835938 530.941406 195.328125 C 531.015625 195.863281 531.0625 196.398438 531.140625 197.050781 Z M 531.140625 197.050781 " fill-opacity="1" fill-rule="nonzero"/><path fill="#000000" d="M 475.003906 192.722656 C 474.589844 194.550781 474.515625 196.527344 473.574219 198.300781 C 472.707031 199.933594 471.089844 199.960938 470.304688 199.089844 C 469.777344 198.5 469.421875 197.703125 469.15625 196.941406 C 468.824219 195.992188 469.128906 195.054688 469.550781 194.167969 C 470.3125 192.585938 471.25 191.121094 472.398438 189.792969 C 472.480469 189.699219 472.570312 189.609375 472.644531 189.511719 C 473.007812 189.070312 473.480469 188.996094 474 189.128906 C 474.535156 189.261719 474.707031 189.703125 474.765625 190.160156 C 474.875 190.976562 474.925781 191.808594 475.003906 192.722656 Z M 475.003906 192.722656 " fill-opacity="1" fill-rule="nonzero"/><path fill="#000000" d="M 496.160156 195.828125 C 496.019531 194.398438 496.355469 192.871094 497.144531 191.453125 C 497.320312 191.136719 497.5625 190.820312 497.847656 190.605469 C 498.332031 190.242188 498.980469 190.386719 499.207031 190.949219 C 500.085938 193.148438 501.082031 195.320312 501.378906 197.691406 C 501.542969 198.980469 501.457031 200.273438 500.203125 201.144531 C 499.628906 201.539062 499.214844 201.578125 498.53125 201.21875 C 496.34375 200.0625 496.03125 198.164062 496.160156 195.828125 Z M 496.160156 195.828125 " fill-opacity="1" fill-rule="nonzero"/><path fill="#000000" d="M 533.753906 180.574219 C 533.839844 179.914062 533.875 179.246094 534.023438 178.597656 C 534.171875 177.929688 534.5 177.410156 535.296875 177.257812 C 536.089844 177.105469 536.519531 177.417969 536.953125 178.023438 C 538.179688 179.730469 538.925781 181.671875 539.75 183.574219 C 540.09375 184.371094 540.195312 185.191406 539.441406 185.867188 C 538.800781 186.441406 537.800781 186.507812 536.871094 186.027344 C 534.667969 184.882812 533.875 182.925781 533.753906 180.574219 Z M 533.753906 180.574219 " fill-opacity="1" fill-rule="nonzero"/><path fill="#000000" d="M 546.148438 190.375 C 546.878906 189.808594 547.5 189.832031 548.175781 190.046875 C 550.808594 190.898438 552.777344 193.523438 552.804688 196.375 C 552.824219 198.136719 551.8125 198.734375 550.136719 198.183594 C 548.996094 197.808594 548.046875 196.984375 547.605469 195.890625 C 546.894531 194.136719 546.382812 192.289062 546.148438 190.375 Z M 546.148438 190.375 " fill-opacity="1" fill-rule="nonzero"/><path fill="#000000" d="M 444.570312 192.707031 C 444.578125 191.285156 445.15625 190.058594 446.277344 189.164062 C 447.203125 188.425781 448.136719 187.625 449.414062 187.5 C 450.300781 187.414062 451.097656 188.011719 451.066406 188.894531 C 450.988281 190.976562 450.476562 192.925781 448.957031 194.464844 C 448.472656 194.953125 447.910156 195.371094 447.152344 195.375 C 445.144531 195.382812 444.71875 194.835938 444.570312 192.707031 Z M 444.570312 192.707031 " fill-opacity="1" fill-rule="nonzero"/><path fill="#000000" d="M 483.496094 184.585938 C 483.605469 181.40625 485.414062 179.382812 488.039062 177.957031 C 488.84375 177.519531 489.789062 178.175781 489.722656 179.121094 C 489.527344 181.769531 488.617188 184.144531 486.765625 186.089844 C 486.214844 186.675781 485.53125 187.140625 484.667969 186.875 C 483.96875 186.664062 483.441406 185.550781 483.496094 184.585938 Z M 483.496094 184.585938 " fill-opacity="1" fill-rule="nonzero"/><path fill="#000000" d="M 430.023438 205.183594 C 430.691406 205.210938 430.851562 205.496094 430.796875 205.863281 C 430.742188 206.1875 430.578125 206.492188 430.457031 206.800781 C 429.777344 208.589844 429.117188 210.382812 428.414062 212.15625 C 428.136719 212.84375 427.828125 213.542969 427.410156 214.152344 C 426.714844 215.15625 425.453125 215.007812 424.933594 213.886719 C 424.09375 212.089844 424.457031 210.308594 425.492188 208.792969 C 426.253906 207.683594 427.371094 206.796875 428.421875 205.914062 C 428.902344 205.515625 429.605469 205.367188 430.023438 205.183594 Z M 430.023438 205.183594 " fill-opacity="1" fill-rule="nonzero"/><path fill="#000000" d="M 514.207031 182.425781 C 513.941406 183.707031 513.789062 184.863281 513.4375 185.960938 C 513.105469 186.988281 512.152344 187.363281 511.238281 186.976562 C 510.984375 186.867188 510.679688 186.691406 510.570312 186.464844 C 509.855469 184.980469 508.964844 183.519531 509.675781 181.761719 C 510.105469 180.6875 510.515625 179.597656 510.945312 178.519531 C 511.167969 177.957031 511.589844 177.644531 512.191406 177.660156 C 512.75 177.679688 512.945312 178.164062 513.078125 178.589844 C 513.492188 179.886719 513.851562 181.210938 514.207031 182.425781 Z M 514.207031 182.425781 " fill-opacity="1" fill-rule="nonzero"/><path fill="#000000" d="M 554.226562 180.300781 C 554.25 180.082031 554.246094 179.789062 554.328125 179.511719 C 554.519531 178.851562 555.117188 178.585938 555.6875 178.980469 C 558.144531 180.683594 559.800781 182.929688 560.203125 185.960938 C 560.285156 186.589844 560.144531 187.226562 559.492188 187.558594 C 558.878906 187.871094 558.3125 187.726562 557.773438 187.339844 C 555.390625 185.628906 554.472656 183.171875 554.226562 180.300781 Z M 554.226562 180.300781 " fill-opacity="1" fill-rule="nonzero"/><path fill="#000000" d="M 448.40625 299.921875 C 444.921875 299.984375 442.449219 298.269531 442.027344 295.257812 C 441.972656 294.851562 441.773438 294.46875 441.621094 294.082031 C 441.175781 292.960938 440.769531 292.75 439.632812 293.183594 C 438.933594 293.449219 438.265625 293.808594 437.589844 294.128906 C 435.300781 295.234375 433.078125 295.113281 431.1875 293.382812 C 429.765625 292.082031 428.207031 291.539062 426.316406 291.542969 C 425.523438 291.542969 424.699219 291.195312 423.941406 290.871094 C 423.453125 290.664062 423.054688 290.210938 423.183594 289.570312 C 423.300781 288.96875 423.789062 288.851562 424.300781 288.726562 C 425.152344 288.523438 426 288.320312 426.828125 288.042969 C 429.046875 287.304688 431 287.738281 432.765625 289.238281 C 433.621094 289.964844 434.5625 290.59375 435.386719 291.351562 C 436.417969 292.308594 437.574219 292.257812 438.78125 291.957031 C 439.304688 291.828125 439.796875 291.585938 440.320312 291.433594 C 441.628906 291.046875 442.890625 291.175781 443.710938 292.332031 C 445.175781 294.386719 447.152344 295.480469 449.589844 295.914062 C 450.273438 296.039062 450.902344 296.441406 451.574219 296.675781 C 452.246094 296.90625 452.457031 297.421875 452.429688 298.042969 C 452.402344 298.675781 452.101562 299.183594 451.441406 299.328125 C 450.265625 299.574219 449.082031 299.789062 448.40625 299.921875 Z M 448.40625 299.921875 " fill-opacity="1" fill-rule="nonzero"/><path fill="#000000" d="M 519.363281 294.433594 C 520.128906 293.917969 520.914062 293.875 521.691406 294.066406 C 522.378906 294.234375 523.082031 294.433594 523.691406 294.773438 C 526.308594 296.222656 529.019531 296.214844 531.796875 295.371094 C 533.402344 294.886719 535.027344 294.554688 536.71875 294.628906 C 538.300781 294.699219 539.878906 294.777344 541.457031 294.859375 C 541.703125 294.871094 541.960938 294.886719 542.203125 294.9375 C 542.789062 295.066406 543.179688 295.394531 543.203125 296.042969 C 543.226562 296.664062 542.828125 296.953125 542.304688 297.074219 C 541.167969 297.335938 540.03125 297.667969 538.878906 297.769531 C 537.0625 297.925781 535.222656 298.097656 533.4375 297.398438 C 532.832031 297.160156 532.234375 297.351562 531.65625 297.6875 C 530.539062 298.335938 529.414062 298.984375 528.226562 299.472656 C 527.519531 299.761719 526.6875 299.847656 525.910156 299.832031 C 524.265625 299.804688 523.015625 298.992188 522.421875 297.449219 C 521.914062 296.136719 521.167969 295.21875 519.726562 294.980469 C 519.625 294.960938 519.527344 294.847656 519.453125 294.757812 C 519.40625 294.707031 519.40625 294.605469 519.363281 294.433594 Z M 519.363281 294.433594 " fill-opacity="1" fill-rule="nonzero"/><path fill="#000000" d="M 593.179688 287.386719 C 592.800781 287.46875 592.421875 287.609375 592.039062 287.613281 C 590.394531 287.636719 589.105469 288.328125 587.964844 289.484375 C 586.550781 290.914062 584.835938 291.941406 583.085938 292.917969 C 581.570312 293.757812 579.9375 293.96875 578.246094 293.808594 C 576.855469 293.671875 575.859375 292.859375 575.152344 291.722656 C 574.515625 290.691406 574.914062 289.808594 576.136719 289.632812 C 577.160156 289.484375 578.214844 289.511719 579.25 289.507812 C 581.0625 289.503906 582.8125 289.167969 584.488281 288.488281 C 585.839844 287.9375 587.164062 287.335938 588.488281 286.71875 C 589.625 286.199219 590.789062 285.988281 592.015625 286.269531 C 592.523438 286.386719 593.085938 286.515625 593.179688 287.386719 Z M 593.179688 287.386719 " fill-opacity="1" fill-rule="nonzero"/><path fill="#000000" d="M 517.265625 295.199219 C 517.085938 295.457031 516.957031 295.777344 516.71875 295.960938 C 515.351562 297.050781 513.988281 298.140625 512.574219 299.167969 C 511.273438 300.117188 509.820312 300.707031 508.15625 300.574219 C 506.242188 300.425781 504.648438 299.574219 503.296875 298.273438 C 502.765625 297.757812 502.183594 297.039062 502.566406 296.289062 C 502.953125 295.53125 503.855469 295.652344 504.589844 295.769531 C 506.230469 296.039062 507.863281 296.339844 509.492188 296.660156 C 510.59375 296.875 511.648438 296.730469 512.695312 296.417969 C 514.160156 295.96875 515.621094 295.496094 517.078125 295.027344 C 517.140625 295.089844 517.203125 295.148438 517.265625 295.199219 Z M 517.265625 295.199219 " fill-opacity="1" fill-rule="nonzero"/><path fill="#000000" d="M 472.460938 326.710938 C 471.042969 326.792969 469.722656 326.425781 468.433594 325.90625 C 467.652344 325.59375 466.863281 325.453125 466.003906 325.460938 C 463.566406 325.480469 461.304688 324.804688 459.289062 323.417969 C 457.980469 322.511719 456.632812 322.28125 455.160156 322.921875 C 454.011719 323.421875 452.875 323.933594 451.714844 324.402344 C 450.710938 324.804688 449.710938 325.242188 448.664062 325.496094 C 446.546875 326.007812 444.464844 324.769531 443.722656 322.648438 C 443.554688 322.179688 443.457031 321.683594 443.351562 321.199219 C 443.183594 320.417969 442.976562 319.6875 442.429688 319.050781 C 441.851562 318.378906 442.199219 317.582031 443.089844 317.414062 C 443.875 317.265625 444.636719 317.449219 445.171875 318.011719 C 445.824219 318.703125 446.453125 319.445312 446.925781 320.261719 C 447.730469 321.632812 448.800781 322.335938 450.414062 322.113281 C 451.277344 321.988281 452.144531 321.867188 453.015625 321.773438 C 454.050781 321.664062 455.09375 321.609375 456.125 321.503906 C 457.074219 321.410156 458.042969 321.355469 458.96875 321.144531 C 460.695312 320.742188 462.386719 320.925781 464.039062 321.386719 C 466.078125 321.957031 468.074219 322.683594 470.09375 323.34375 C 471.28125 323.734375 472.46875 324.109375 473.65625 324.503906 C 474.050781 324.636719 474.453125 324.761719 474.804688 324.972656 C 475.023438 325.105469 475.328125 325.4375 475.285156 325.59375 C 475.195312 325.914062 474.945312 326.351562 474.671875 326.417969 C 473.964844 326.605469 473.207031 326.625 472.460938 326.710938 Z M 472.460938 326.710938 " fill-opacity="1" fill-rule="nonzero"/><path fill="#000000" d="M 585.480469 314.96875 C 585.71875 314.070312 586.359375 313.996094 586.980469 314.042969 C 587.851562 314.109375 588.738281 314.191406 589.566406 314.4375 C 590.675781 314.769531 591.511719 314.445312 592.300781 313.722656 C 592.699219 313.359375 593.128906 313.023438 593.554688 312.695312 C 593.96875 312.378906 594.449219 312.167969 594.945312 312.453125 C 595.5 312.773438 595.492188 313.332031 595.441406 313.894531 C 595.136719 317.328125 591.410156 319.035156 588.539062 317.035156 C 587.992188 316.652344 587.53125 316.152344 586.984375 315.773438 C 586.554688 315.472656 586.050781 315.269531 585.480469 314.96875 Z M 585.480469 314.96875 " fill-opacity="1" fill-rule="nonzero"/><path fill="#000000" d="M 582.503906 316.757812 C 581.628906 318.328125 580.726562 319.886719 579.046875 320.789062 C 578.507812 321.082031 577.894531 321.300781 577.292969 321.378906 C 575.125 321.671875 572.726562 319.964844 572.246094 317.808594 C 572.183594 317.527344 572.242188 317.058594 572.421875 316.917969 C 572.664062 316.734375 573.117188 316.6875 573.429688 316.765625 C 573.816406 316.867188 574.15625 317.152344 574.515625 317.367188 C 576.007812 318.246094 577.507812 318.503906 579.089844 317.53125 C 579.722656 317.148438 580.441406 316.894531 581.140625 316.632812 C 581.5 316.5 581.90625 316.480469 582.289062 316.414062 C 582.367188 316.535156 582.4375 316.644531 582.503906 316.757812 Z M 582.503906 316.757812 " fill-opacity="1" fill-rule="nonzero"/><path fill="#000000" d="M 506.195312 330.46875 C 507.230469 330.34375 507.644531 331.050781 508.15625 331.558594 C 508.328125 331.730469 508.40625 331.996094 508.566406 332.175781 C 509.269531 332.980469 510.082031 333.460938 511.203125 333.03125 C 511.667969 332.855469 512.144531 332.703125 512.628906 332.589844 C 513.433594 332.398438 513.910156 332.882812 513.75 333.6875 C 513.460938 335.128906 511.917969 336.519531 510.429688 336.679688 C 508.867188 336.847656 507.25 336.023438 506.671875 334.574219 C 506.296875 333.625 506.121094 332.589844 505.957031 331.582031 C 505.890625 331.226562 506.109375 330.820312 506.195312 330.46875 Z M 506.195312 330.46875 " fill-opacity="1" fill-rule="nonzero"/><path fill="#000000" d="M 501.0625 352.363281 C 499.277344 352.226562 497.496094 352.039062 495.707031 351.96875 C 493.714844 351.890625 491.71875 351.941406 489.71875 351.875 C 488.683594 351.839844 487.636719 351.753906 486.628906 351.542969 C 483.425781 350.867188 480.199219 350.601562 476.9375 350.808594 C 475.777344 350.886719 474.628906 351.175781 473.472656 351.289062 C 472.527344 351.382812 471.535156 351.542969 470.628906 351.355469 C 468.921875 351.007812 467.257812 350.460938 465.589844 349.9375 C 465.085938 349.78125 464.601562 349.480469 464.175781 349.152344 C 463.46875 348.597656 463.523438 348.003906 464.324219 347.605469 C 465.390625 347.066406 466.527344 346.921875 467.71875 346.964844 C 470.40625 347.0625 472.980469 347.671875 475.53125 348.460938 C 478.042969 349.234375 480.632812 349.167969 483.214844 348.84375 C 484.820312 348.644531 486.433594 348.320312 488.046875 348.316406 C 489.785156 348.3125 491.554688 348.460938 493.257812 348.8125 C 495.945312 349.363281 498.585938 350.132812 501.238281 350.828125 C 501.636719 350.933594 502.035156 351.085938 502.394531 351.300781 C 502.566406 351.402344 502.703125 351.683594 502.710938 351.894531 C 502.71875 352.015625 502.460938 352.230469 502.289062 352.269531 C 501.890625 352.363281 501.464844 352.378906 501.050781 352.425781 C 501.0625 352.40625 501.0625 352.386719 501.0625 352.363281 Z M 501.0625 352.363281 " fill-opacity="1" fill-rule="nonzero"/><path fill="#000000" d="M 577.691406 347.832031 C 577.402344 347.847656 577.105469 347.851562 576.816406 347.875 C 576.375 347.914062 576.027344 347.707031 575.988281 347.300781 C 575.964844 347.039062 576.140625 346.632812 576.359375 346.496094 C 577.027344 346.078125 577.734375 345.703125 578.460938 345.410156 C 581.101562 344.371094 583.816406 343.519531 586.628906 343.128906 C 588.847656 342.820312 590.925781 342.148438 592.925781 341.1875 C 594.574219 340.394531 596.1875 339.5 597.867188 338.773438 C 599.082031 338.25 600.382812 337.898438 601.660156 337.546875 C 601.941406 337.46875 602.429688 337.636719 602.617188 337.863281 C 602.941406 338.257812 602.648438 338.625 602.277344 338.90625 C 600.285156 340.421875 598.054688 341.425781 595.605469 341.898438 C 593.75 342.253906 591.949219 342.75 590.226562 343.519531 C 588.554688 344.269531 586.917969 345.097656 585.261719 345.886719 C 582.875 347.050781 580.34375 347.6875 577.691406 347.832031 Z M 577.691406 347.832031 " fill-opacity="1" fill-rule="nonzero"/><path fill="#000000" d="M 526.578125 350.214844 C 527.957031 350.214844 529.332031 350.199219 530.710938 350.21875 C 531.25 350.222656 531.792969 350.265625 532.328125 350.351562 C 532.800781 350.429688 533.195312 350.679688 533.261719 351.222656 C 533.324219 351.707031 533.042969 352.039062 532.636719 352.199219 C 531.507812 352.628906 530.394531 353.128906 529.226562 353.394531 C 527.398438 353.804688 525.539062 354.078125 523.679688 354.347656 C 521.234375 354.703125 518.851562 354.453125 516.570312 353.46875 C 516.226562 353.320312 515.863281 353.183594 515.886719 352.691406 C 515.90625 352.246094 516.03125 351.875 516.496094 351.699219 C 516.726562 351.609375 516.941406 351.464844 517.179688 351.402344 C 518.1875 351.140625 519.1875 350.792969 520.207031 350.679688 C 522.320312 350.4375 524.445312 350.324219 526.566406 350.15625 C 526.570312 350.175781 526.578125 350.195312 526.578125 350.214844 Z M 526.578125 350.214844 " fill-opacity="1" fill-rule="nonzero"/><path fill="#000000" d="M 458.289062 269.257812 C 459.28125 269.671875 460.359375 269.953125 461.246094 270.527344 C 462.320312 271.222656 463.335938 272.066406 464.195312 273.011719 C 465.742188 274.699219 467.167969 276.496094 468.617188 278.269531 C 469.117188 278.878906 469.503906 279.582031 470.003906 280.191406 C 470.738281 281.089844 471.570312 281.914062 472.304688 282.816406 C 473.769531 284.628906 475.191406 286.472656 476.621094 288.308594 C 476.722656 288.4375 476.777344 288.605469 476.839844 288.757812 C 477.097656 289.402344 477.003906 290.015625 476.59375 290.367188 C 476.199219 290.707031 475.296875 290.777344 474.839844 290.390625 C 474.367188 289.992188 473.96875 289.503906 473.589844 289.011719 C 472.945312 288.195312 472.398438 287.300781 471.710938 286.53125 C 470.246094 284.898438 469.273438 282.953125 468.152344 281.109375 C 466.664062 278.664062 464.695312 276.746094 462.179688 275.398438 C 460.253906 274.363281 458.84375 272.785156 457.605469 271.039062 C 457.507812 270.90625 457.402344 270.765625 457.347656 270.613281 C 457.058594 269.867188 457.414062 269.382812 458.289062 269.257812 Z M 458.289062 269.257812 " fill-opacity="1" fill-rule="nonzero"/><path fill="#000000" d="M 517.417969 266.8125 C 517.824219 266.8125 517.96875 266.773438 518.074219 266.816406 C 518.441406 266.964844 518.914062 267.050781 519.121094 267.328125 C 519.417969 267.730469 519.003906 268.058594 518.71875 268.378906 C 517.644531 269.5625 516.226562 270.191406 514.777344 270.699219 C 513.246094 271.234375 511.667969 271.628906 510.097656 272.0625 C 508.28125 272.5625 506.882812 273.785156 505.324219 274.734375 C 504.722656 275.101562 504.171875 275.585938 503.527344 275.804688 C 501.988281 276.324219 500.421875 276.742188 498.847656 277.140625 C 498.390625 277.257812 497.757812 277.417969 497.484375 276.875 C 497.152344 276.207031 497.710938 275.792969 498.191406 275.453125 C 500.023438 274.15625 501.890625 272.957031 504.101562 272.304688 C 506.292969 271.664062 508.339844 270.71875 510.191406 269.253906 C 512.34375 267.566406 515.015625 267.066406 517.417969 266.8125 Z M 517.417969 266.8125 " fill-opacity="1" fill-rule="nonzero"/><path fill="#000000" d="M 448.238281 263.902344 C 450.652344 264.292969 453 265.097656 454.730469 267.167969 C 454.886719 267.359375 455.046875 267.574219 455.121094 267.800781 C 455.335938 268.441406 454.90625 268.988281 454.21875 268.917969 C 453.769531 268.878906 453.308594 268.769531 452.902344 268.585938 C 451.203125 267.816406 449.515625 267.023438 447.835938 266.203125 C 447.511719 266.046875 447.253906 265.746094 446.980469 265.496094 C 446.679688 265.226562 446.539062 264.910156 446.707031 264.496094 C 446.875 264.09375 447.179688 263.949219 447.59375 263.949219 C 447.753906 263.949219 447.921875 263.925781 448.238281 263.902344 Z M 448.238281 263.902344 " fill-opacity="1" fill-rule="nonzero"/><path fill="#000000" d="M 554.226562 246.585938 C 555.28125 246.957031 556.40625 247.199219 557.375 247.734375 C 558.898438 248.570312 560.375 248.464844 561.960938 248.042969 C 563.789062 247.558594 565.488281 246.902344 567.019531 245.714844 C 568.871094 244.289062 571.023438 244.519531 573.136719 245.050781 C 573.449219 245.132812 573.816406 245.582031 573.871094 245.917969 C 573.914062 246.160156 573.550781 246.566406 573.265625 246.75 C 572.117188 247.480469 570.808594 247.769531 569.488281 247.988281 C 568.089844 248.21875 566.691406 248.4375 565.289062 248.613281 C 563.898438 248.785156 562.625 249.273438 561.398438 249.914062 C 558.136719 251.628906 557.15625 251.542969 554.261719 249.269531 C 553.796875 248.90625 553.332031 248.554688 552.90625 248.160156 C 552.714844 247.980469 552.453125 247.644531 552.507812 247.480469 C 552.609375 247.21875 552.910156 246.972656 553.183594 246.851562 C 553.476562 246.726562 553.835938 246.753906 554.167969 246.714844 C 554.1875 246.667969 554.207031 246.625 554.226562 246.585938 Z M 554.226562 246.585938 " fill-opacity="1" fill-rule="nonzero"/><path fill="#000000" d="M 474.984375 256.949219 C 473.605469 256.824219 472.445312 256.375 471.527344 255.335938 C 471.003906 254.746094 470.390625 254.234375 469.882812 253.636719 C 469.667969 253.378906 469.441406 252.871094 469.558594 252.667969 C 469.730469 252.375 470.210938 252.078125 470.539062 252.097656 C 471.234375 252.140625 471.917969 252.371094 472.59375 252.558594 C 473.273438 252.75 473.929688 253.027344 474.613281 253.191406 C 475.851562 253.496094 477.027344 253.113281 478.128906 252.636719 C 479.308594 252.128906 480.425781 251.484375 481.550781 250.859375 C 482.984375 250.054688 484.519531 249.832031 486.128906 250.015625 C 486.363281 250.042969 486.761719 250.335938 486.742188 250.457031 C 486.703125 250.734375 486.515625 251.113281 486.28125 251.214844 C 485.601562 251.515625 484.882812 251.828125 484.15625 251.902344 C 482.363281 252.09375 480.917969 252.832031 479.730469 254.191406 C 478.910156 255.136719 477.945312 255.945312 476.761719 256.417969 C 476.1875 256.644531 475.582031 256.773438 474.984375 256.949219 Z M 474.984375 256.949219 " fill-opacity="1" fill-rule="nonzero"/><path fill="#000000" d="M 445.582031 248.316406 C 445.195312 249.015625 444.46875 249.054688 443.84375 249.003906 C 442.550781 248.898438 441.519531 249.378906 440.460938 250.03125 C 439.65625 250.519531 438.726562 250.859375 437.816406 251.105469 C 436.429688 251.480469 435.199219 251.109375 434.132812 250.105469 C 433.3125 249.332031 432.8125 248.390625 432.535156 247.328125 C 432.464844 247.0625 432.566406 246.601562 432.761719 246.453125 C 432.964844 246.300781 433.417969 246.320312 433.675781 246.445312 C 434.082031 246.632812 434.457031 246.9375 434.777344 247.257812 C 435.789062 248.285156 437.03125 248.675781 438.417969 248.585938 C 439.859375 248.492188 441.296875 248.550781 442.636719 247.679688 C 443.691406 246.996094 444.957031 247.40625 445.582031 248.316406 Z M 445.582031 248.316406 " fill-opacity="1" fill-rule="nonzero"/><path fill="#000000" d="M 591.929688 268.367188 C 590.433594 268.097656 589.125 267.726562 588.042969 266.789062 C 586.980469 265.863281 585.953125 264.882812 584.84375 264.003906 C 584.203125 263.492188 583.457031 263.105469 582.726562 262.71875 C 581.773438 262.210938 580.777344 261.777344 579.820312 261.277344 C 578.953125 260.824219 578.570312 260.289062 578.714844 259.796875 C 578.84375 259.351562 579.535156 259.140625 580.492188 259.535156 C 581.554688 259.96875 582.792969 260.394531 583.488281 261.214844 C 585.0625 263.070312 587.058594 264.140625 589.1875 265.117188 C 590.050781 265.515625 590.859375 266.039062 591.679688 266.53125 C 591.953125 266.699219 592.238281 266.921875 592.40625 267.1875 C 592.539062 267.402344 592.609375 267.769531 592.515625 267.976562 C 592.429688 268.183594 592.085938 268.273438 591.929688 268.367188 Z M 591.929688 268.367188 " fill-opacity="1" fill-rule="nonzero"/><path fill="#000000" d="M 598.472656 264.578125 C 598.355469 264.363281 598.113281 264.128906 598.136719 263.929688 C 598.167969 263.621094 598.320312 263.273438 598.53125 263.035156 C 599.488281 261.9375 600.4375 260.832031 601.476562 259.808594 C 602.375 258.921875 603.191406 258.011719 603.738281 256.855469 C 604.472656 255.3125 605.574219 254.078125 607.046875 253.191406 C 607.191406 253.105469 607.320312 252.992188 607.472656 252.929688 C 607.847656 252.773438 608.257812 252.511719 608.621094 252.910156 C 609.03125 253.363281 608.746094 253.824219 608.445312 254.140625 C 607.636719 254.980469 606.8125 255.8125 605.910156 256.550781 C 604.695312 257.542969 603.710938 258.609375 603.207031 260.179688 C 602.554688 262.199219 600.761719 263.28125 599.09375 264.390625 C 598.953125 264.476562 598.773438 264.492188 598.472656 264.578125 Z M 598.472656 264.578125 " fill-opacity="1" fill-rule="nonzero"/></svg>