<svg xmlns="http://www.w3.org/2000/svg" xmlns:xlink="http://www.w3.org/1999/xlink" width="1366" zoomAndPan="magnify" viewBox="0 0 1024.5 524.25" height="699" preserveAspectRatio="xMidYMid meet" version="1.0"><defs><clipPath id="54a8dd0e12"><path d="M 453.367188 157.050781 L 570.949219 157.050781 L 570.949219 366.75 L 453.367188 366.75 Z M 453.367188 157.050781 " clip-rule="nonzero"/></clipPath></defs><path fill="#000000" d="M 508.140625 306.257812 C 507.902344 306.515625 507.660156 306.769531 507.40625 307.007812 C 507.035156 307.363281 507.023438 307.949219 507.378906 308.320312 C 507.558594 308.507812 507.804688 308.609375 508.050781 308.609375 C 508.296875 308.609375 508.511719 308.523438 508.695312 308.347656 C 508.972656 308.078125 509.246094 307.804688 509.511719 307.515625 C 509.855469 307.140625 509.835938 306.550781 509.457031 306.203125 C 509.078125 305.859375 508.492188 305.882812 508.140625 306.257812 Z M 508.140625 306.257812 " fill-opacity="1" fill-rule="nonzero"/><path fill="#000000" d="M 507.007812 309.894531 C 507.070312 309.78125 507.113281 309.65625 507.125 309.539062 C 507.246094 309.242188 507.230469 308.902344 507.027344 308.628906 C 506.714844 308.214844 506.132812 308.140625 505.726562 308.445312 C 504.3125 309.507812 502.757812 310.347656 501.09375 310.949219 C 493.035156 313.863281 484 310.753906 478.609375 303.191406 C 478.308594 302.769531 477.734375 302.671875 477.316406 302.972656 C 476.894531 303.273438 476.796875 303.855469 477.097656 304.265625 C 481.5 310.4375 488.160156 313.886719 494.941406 313.886719 C 496.878906 313.886719 498.832031 313.585938 500.742188 312.996094 C 500.050781 313.417969 499.414062 313.753906 498.929688 313.921875 C 496.480469 314.808594 493.90625 315.148438 491.273438 314.917969 C 490.746094 314.863281 490.3125 315.253906 490.265625 315.765625 C 490.222656 316.277344 490.601562 316.722656 491.113281 316.773438 C 491.691406 316.820312 492.273438 316.847656 492.847656 316.847656 C 495.144531 316.847656 497.398438 316.449219 499.558594 315.667969 C 501.351562 315.015625 505.644531 312.261719 507.015625 309.894531 Z M 507.007812 309.894531 " fill-opacity="1" fill-rule="nonzero"/><path fill="#000000" d="M 496.285156 289.195312 C 496.4375 289.390625 496.675781 289.503906 496.914062 289.503906 C 497.003906 289.503906 497.097656 289.488281 497.1875 289.453125 L 507.695312 285.644531 C 508.421875 285.378906 508.96875 284.800781 509.183594 284.042969 C 509.414062 283.269531 509.253906 282.414062 508.757812 281.773438 L 506.371094 278.640625 C 505.878906 277.992188 505.105469 277.648438 504.304688 277.648438 C 503.515625 277.675781 502.816406 278.082031 502.386719 278.746094 L 496.222656 288.265625 C 496.03125 288.554688 496.054688 288.929688 496.269531 289.203125 Z M 503.753906 279.613281 C 503.949219 279.3125 504.230469 279.261719 504.375 279.257812 C 504.382812 279.257812 504.398438 279.257812 504.402344 279.257812 C 504.667969 279.257812 504.921875 279.382812 505.089844 279.613281 L 507.476562 282.746094 C 507.664062 282.988281 507.722656 283.304688 507.636719 283.589844 C 507.59375 283.742188 507.46875 284.015625 507.140625 284.128906 L 498.882812 287.121094 L 503.746094 279.613281 Z M 503.753906 279.613281 " fill-opacity="1" fill-rule="nonzero"/><path fill="#000000" d="M 508.148438 296.125 L 497.417969 292.683594 C 497.082031 292.574219 496.71875 292.699219 496.515625 292.984375 C 496.3125 293.269531 496.320312 293.65625 496.53125 293.933594 L 503.523438 303.113281 C 503.996094 303.742188 504.726562 304.105469 505.496094 304.105469 L 505.585938 304.105469 C 506.378906 304.078125 507.078125 303.671875 507.503906 303.007812 L 509.507812 299.917969 C 509.933594 299.253906 510.023438 298.445312 509.75 297.6875 C 509.476562 296.933594 508.898438 296.367188 508.140625 296.125 Z M 508.148438 299.046875 L 506.148438 302.140625 C 505.949219 302.441406 505.671875 302.492188 505.523438 302.5 C 505.222656 302.566406 504.984375 302.378906 504.804688 302.140625 L 499.355469 294.996094 L 507.652344 297.652344 C 507.925781 297.738281 508.132812 297.953125 508.234375 298.226562 C 508.335938 298.507812 508.300781 298.808594 508.148438 299.046875 Z M 508.148438 299.046875 " fill-opacity="1" fill-rule="nonzero"/><path fill="#000000" d="M 507.996094 286.464844 L 497.433594 290.292969 C 497.109375 290.414062 496.902344 290.71875 496.902344 291.0625 C 496.90625 291.40625 497.132812 291.707031 497.460938 291.816406 L 508.351562 295.304688 C 508.597656 295.382812 508.847656 295.425781 509.101562 295.425781 C 509.617188 295.425781 510.121094 295.257812 510.542969 294.929688 C 511.179688 294.4375 511.535156 293.664062 511.5 292.84375 L 511.3125 288.757812 C 511.277344 287.9375 510.851562 287.183594 510.179688 286.734375 C 509.519531 286.300781 508.730469 286.199219 508 286.464844 Z M 509.695312 288.832031 L 509.882812 292.921875 C 509.898438 293.222656 509.78125 293.488281 509.554688 293.65625 C 509.4375 293.746094 509.175781 293.886719 508.839844 293.773438 L 500.195312 291.007812 L 508.546875 287.980469 C 508.882812 287.859375 509.140625 287.988281 509.273438 288.078125 C 509.527344 288.246094 509.679688 288.523438 509.703125 288.832031 Z M 509.695312 288.832031 " fill-opacity="1" fill-rule="nonzero"/><path fill="#000000" d="M 492.191406 294.5 L 486.023438 304.015625 C 485.589844 304.679688 485.503906 305.496094 485.777344 306.257812 C 486.050781 307.019531 486.644531 307.585938 487.410156 307.824219 L 491.085938 308.964844 C 491.328125 309.039062 491.574219 309.074219 491.8125 309.074219 C 492.328125 309.074219 492.832031 308.90625 493.261719 308.578125 C 493.890625 308.089844 494.246094 307.3125 494.210938 306.503906 L 493.679688 294.914062 C 493.667969 294.566406 493.429688 294.265625 493.085938 294.171875 C 492.75 294.082031 492.386719 294.222656 492.195312 294.507812 Z M 492.265625 307.300781 C 492.148438 307.390625 491.902344 307.53125 491.554688 307.425781 L 487.878906 306.285156 C 487.605469 306.203125 487.386719 305.992188 487.289062 305.714844 C 487.183594 305.433594 487.21875 305.132812 487.375 304.894531 L 492.175781 297.488281 L 492.597656 306.566406 C 492.609375 306.867188 492.492188 307.132812 492.265625 307.300781 Z M 492.265625 307.300781 " fill-opacity="1" fill-rule="nonzero"/><path fill="#000000" d="M 491.488281 293.027344 C 491.273438 292.753906 490.910156 292.65625 490.585938 292.769531 L 480.074219 296.578125 C 479.351562 296.84375 478.808594 297.421875 478.582031 298.179688 C 478.351562 298.953125 478.511719 299.808594 479.003906 300.457031 L 481.382812 303.589844 C 481.859375 304.210938 482.59375 304.574219 483.355469 304.574219 L 483.449219 304.574219 C 484.230469 304.546875 484.929688 304.140625 485.367188 303.476562 L 491.53125 293.964844 C 491.722656 293.675781 491.699219 293.300781 491.484375 293.027344 Z M 484.023438 302.601562 C 483.824219 302.902344 483.546875 302.960938 483.390625 302.964844 C 483.378906 302.964844 483.371094 302.964844 483.363281 302.964844 C 483.097656 302.964844 482.847656 302.839844 482.671875 302.609375 L 480.289062 299.484375 C 480.101562 299.234375 480.046875 298.925781 480.128906 298.632812 C 480.171875 298.480469 480.296875 298.207031 480.628906 298.09375 L 488.886719 295.101562 L 484.023438 302.609375 Z M 484.023438 302.601562 " fill-opacity="1" fill-rule="nonzero"/><path fill="#000000" d="M 494.984375 294.132812 C 494.652344 294.25 494.4375 294.570312 494.457031 294.921875 L 494.988281 306.511719 C 495.023438 307.328125 495.453125 308.078125 496.128906 308.53125 C 496.542969 308.804688 497.011719 308.949219 497.480469 308.949219 C 497.753906 308.949219 498.027344 308.902344 498.300781 308.804688 L 501.871094 307.511719 C 502.597656 307.246094 503.144531 306.664062 503.359375 305.910156 C 503.59375 305.132812 503.429688 304.28125 502.933594 303.628906 L 495.898438 294.398438 C 495.691406 294.117188 495.324219 294.011719 494.984375 294.132812 Z M 501.652344 304.609375 C 501.84375 304.855469 501.898438 305.167969 501.8125 305.453125 C 501.765625 305.609375 501.644531 305.882812 501.316406 305.992188 L 497.746094 307.285156 C 497.425781 307.398438 497.152344 307.273438 497.019531 307.1875 C 496.765625 307.019531 496.613281 306.742188 496.59375 306.433594 L 496.179688 297.417969 L 501.644531 304.601562 Z M 501.652344 304.609375 " fill-opacity="1" fill-rule="nonzero"/><path fill="#000000" d="M 491.875 287.820312 C 492.027344 288.023438 492.265625 288.140625 492.519531 288.140625 C 492.609375 288.140625 492.699219 288.125 492.792969 288.09375 C 493.121094 287.972656 493.335938 287.652344 493.324219 287.300781 L 492.792969 275.710938 C 492.757812 274.894531 492.328125 274.148438 491.652344 273.691406 C 490.972656 273.238281 490.214844 273.152344 489.480469 273.417969 L 485.917969 274.714844 C 485.191406 274.972656 484.652344 275.558594 484.425781 276.308594 C 484.195312 277.082031 484.359375 277.933594 484.847656 278.585938 L 491.882812 287.828125 Z M 485.96875 276.761719 C 486.007812 276.605469 486.136719 276.339844 486.464844 276.222656 L 490.027344 274.929688 C 490.117188 274.894531 490.210938 274.878906 490.292969 274.878906 C 490.496094 274.878906 490.664062 274.964844 490.753906 275.027344 C 491.007812 275.195312 491.160156 275.476562 491.183594 275.78125 L 491.59375 284.792969 L 486.128906 277.613281 C 485.941406 277.363281 485.882812 277.054688 485.96875 276.761719 Z M 485.96875 276.761719 " fill-opacity="1" fill-rule="nonzero"/><path fill="#000000" d="M 494.695312 288.0625 C 494.765625 288.085938 494.835938 288.09375 494.90625 288.09375 C 495.171875 288.09375 495.429688 287.960938 495.578125 287.722656 L 501.742188 278.207031 C 502.179688 277.542969 502.269531 276.71875 501.988281 275.964844 C 501.714844 275.210938 501.121094 274.644531 500.363281 274.40625 L 496.691406 273.265625 C 495.925781 273.027344 495.144531 273.175781 494.515625 273.652344 C 493.882812 274.140625 493.527344 274.914062 493.5625 275.734375 L 494.09375 287.324219 C 494.109375 287.671875 494.347656 287.972656 494.6875 288.0625 Z M 495.507812 274.921875 C 495.589844 274.851562 495.757812 274.761719 495.96875 274.761719 C 496.046875 274.761719 496.125 274.777344 496.214844 274.804688 L 499.894531 275.941406 C 500.167969 276.027344 500.386719 276.238281 500.484375 276.515625 C 500.582031 276.796875 500.554688 277.097656 500.398438 277.335938 L 495.597656 284.742188 L 495.179688 275.664062 C 495.164062 275.363281 495.285156 275.097656 495.507812 274.929688 Z M 495.507812 274.921875 " fill-opacity="1" fill-rule="nonzero"/><path fill="#000000" d="M 477.601562 295.488281 C 478.015625 295.761719 478.484375 295.898438 478.953125 295.898438 C 479.226562 295.898438 479.507812 295.851562 479.773438 295.753906 L 490.285156 291.941406 C 490.613281 291.824219 490.824219 291.511719 490.816406 291.167969 C 490.8125 290.824219 490.578125 290.515625 490.25 290.417969 L 479.410156 287.0625 C 478.644531 286.828125 477.863281 286.972656 477.230469 287.449219 C 476.601562 287.9375 476.246094 288.714844 476.28125 289.53125 L 476.460938 293.460938 C 476.496094 294.277344 476.925781 295.03125 477.597656 295.480469 Z M 478.226562 288.726562 C 478.308594 288.65625 478.476562 288.566406 478.6875 288.566406 C 478.765625 288.566406 478.84375 288.582031 478.933594 288.609375 L 487.488281 291.257812 L 479.226562 294.25 C 478.882812 294.367188 478.625 294.242188 478.5 294.152344 C 478.246094 293.984375 478.09375 293.703125 478.070312 293.398438 L 477.890625 289.46875 C 477.875 289.167969 477.996094 288.902344 478.21875 288.734375 Z M 478.226562 288.726562 " fill-opacity="1" fill-rule="nonzero"/><path fill="#000000" d="M 479.5625 286.238281 L 490.40625 289.59375 C 490.480469 289.617188 490.566406 289.628906 490.644531 289.628906 C 490.902344 289.628906 491.148438 289.503906 491.300781 289.289062 C 491.503906 289 491.488281 288.617188 491.28125 288.335938 L 484.246094 279.097656 C 483.75 278.445312 483 278.117188 482.179688 278.109375 C 481.398438 278.136719 480.695312 278.542969 480.261719 279.207031 L 478.171875 282.4375 C 477.734375 283.101562 477.652344 283.917969 477.925781 284.679688 C 478.199219 285.441406 478.792969 286.007812 479.550781 286.238281 Z M 479.535156 283.3125 L 481.621094 280.082031 C 481.816406 279.78125 482.097656 279.726562 482.25 279.71875 C 482.59375 279.648438 482.796875 279.835938 482.972656 280.066406 L 488.480469 287.308594 L 480.039062 284.695312 C 479.765625 284.609375 479.554688 284.402344 479.449219 284.121094 C 479.347656 283.84375 479.382812 283.542969 479.535156 283.304688 Z M 479.535156 283.3125 " fill-opacity="1" fill-rule="nonzero"/><path fill="#000000" d="M 502.5 298.367188 C 502.652344 298.960938 503.941406 299.933594 504.171875 299.003906 C 504.199219 298.277344 502.4375 297.171875 502.5 298.367188 Z M 502.5 298.367188 " fill-opacity="1" fill-rule="nonzero"/><path fill="#000000" d="M 505.3125 298.464844 C 505.550781 299.03125 506.957031 299.808594 507.054688 298.84375 C 506.980469 298.117188 505.089844 297.277344 505.3125 298.464844 Z M 505.3125 298.464844 " fill-opacity="1" fill-rule="nonzero"/><path fill="#000000" d="M 504.265625 300.09375 C 504.398438 300.6875 505.644531 301.722656 505.914062 300.800781 C 505.972656 300.078125 504.257812 298.890625 504.265625 300.09375 Z M 504.265625 300.09375 " fill-opacity="1" fill-rule="nonzero"/><path fill="#000000" d="M 485.449219 284.246094 C 485.335938 283.644531 484.121094 282.578125 483.820312 283.492188 C 483.742188 284.210938 485.421875 285.449219 485.449219 284.246094 Z M 485.449219 284.246094 " fill-opacity="1" fill-rule="nonzero"/><path fill="#000000" d="M 483.425781 284.234375 C 483.230469 283.652344 481.878906 282.773438 481.710938 283.722656 C 481.734375 284.449219 483.566406 285.429688 483.425781 284.234375 Z M 483.425781 284.234375 " fill-opacity="1" fill-rule="nonzero"/><path fill="#000000" d="M 483.8125 282.402344 C 483.71875 281.800781 482.550781 280.675781 482.214844 281.570312 C 482.109375 282.28125 483.742188 283.597656 483.8125 282.402344 Z M 483.8125 282.402344 " fill-opacity="1" fill-rule="nonzero"/><path fill="#000000" d="M 498.125 303.296875 C 498.550781 302.730469 497.699219 300.792969 497.082031 301.792969 C 496.878906 302.359375 497.410156 303.910156 498.125 303.296875 Z M 498.125 303.296875 " fill-opacity="1" fill-rule="nonzero"/><path fill="#000000" d="M 500.617188 304.882812 C 500.960938 304.253906 499.847656 302.457031 499.378906 303.539062 C 499.257812 304.132812 500 305.59375 500.617188 304.882812 Z M 500.617188 304.882812 " fill-opacity="1" fill-rule="nonzero"/><path fill="#000000" d="M 497.59375 304.21875 C 497.371094 304.777344 497.832031 306.34375 498.574219 305.761719 C 499.019531 305.21875 498.25 303.246094 497.59375 304.21875 Z M 497.59375 304.21875 " fill-opacity="1" fill-rule="nonzero"/><path fill="#000000" d="M 489.824219 278.765625 C 489.355469 279.296875 490.070312 281.289062 490.753906 280.339844 C 490.992188 279.792969 490.578125 278.207031 489.824219 278.765625 Z M 489.824219 278.765625 " fill-opacity="1" fill-rule="nonzero"/><path fill="#000000" d="M 489.082031 279.125 C 489.242188 278.542969 488.605469 277.035156 487.941406 277.699219 C 487.554688 278.300781 488.535156 280.164062 489.082031 279.125 Z M 489.082031 279.125 " fill-opacity="1" fill-rule="nonzero"/><path fill="#000000" d="M 490.425781 277.886719 C 490.691406 277.347656 490.335938 275.753906 489.558594 276.273438 C 489.066406 276.78125 489.699219 278.800781 490.425781 277.886719 Z M 490.425781 277.886719 " fill-opacity="1" fill-rule="nonzero"/><path fill="#000000" d="M 490.144531 301.234375 C 489.648438 301.546875 489.167969 303.078125 490.105469 303.058594 C 490.78125 302.882812 491.238281 300.847656 490.144531 301.234375 Z M 490.144531 301.234375 " fill-opacity="1" fill-rule="nonzero"/><path fill="#000000" d="M 490.972656 304.027344 C 490.523438 304.414062 490.265625 306.015625 491.183594 305.847656 C 491.824219 305.574219 491.992188 303.484375 490.972656 304.027344 Z M 490.972656 304.027344 " fill-opacity="1" fill-rule="nonzero"/><path fill="#000000" d="M 489.125 303.433594 C 488.613281 303.726562 488.058594 305.238281 489.003906 305.253906 C 489.691406 305.113281 490.238281 303.097656 489.125 303.433594 Z M 489.125 303.433594 " fill-opacity="1" fill-rule="nonzero"/><path fill="#000000" d="M 497.699219 280.589844 C 498.214844 280.320312 498.8125 278.824219 497.875 278.78125 C 497.179688 278.898438 496.578125 280.898438 497.699219 280.589844 Z M 497.699219 280.589844 " fill-opacity="1" fill-rule="nonzero"/><path fill="#000000" d="M 497.054688 278.597656 C 497.523438 278.25 497.910156 276.675781 496.96875 276.773438 C 496.304688 277 495.992188 279.066406 497.054688 278.597656 Z M 497.054688 278.597656 " fill-opacity="1" fill-rule="nonzero"/><path fill="#000000" d="M 498.875 278.480469 C 499.40625 278.230469 500.0625 276.769531 499.125 276.683594 C 498.425781 276.773438 497.746094 278.738281 498.875 278.480469 Z M 498.875 278.480469 " fill-opacity="1" fill-rule="nonzero"/><path fill="#000000" d="M 504.941406 292.175781 C 505.40625 292.566406 506.980469 292.601562 506.636719 291.683594 C 506.246094 291.070312 504.214844 291.214844 504.941406 292.175781 Z M 504.941406 292.175781 " fill-opacity="1" fill-rule="nonzero"/><path fill="#000000" d="M 508.835938 289.820312 C 508.367188 289.265625 506.378906 289.714844 507.230469 290.550781 C 507.742188 290.875 509.296875 290.671875 508.835938 289.820312 Z M 508.835938 289.820312 " fill-opacity="1" fill-rule="nonzero"/><path fill="#000000" d="M 507.324219 292.539062 C 507.761719 292.949219 509.34375 293.054688 509.039062 292.125 C 508.671875 291.496094 506.636719 291.550781 507.324219 292.539062 Z M 507.324219 292.539062 " fill-opacity="1" fill-rule="nonzero"/><path fill="#000000" d="M 483.378906 290.789062 C 482.945312 290.363281 481.367188 290.210938 481.648438 291.148438 C 481.992188 291.789062 484.035156 291.796875 483.378906 290.789062 Z M 483.378906 290.789062 " fill-opacity="1" fill-rule="nonzero"/><path fill="#000000" d="M 480.101562 292.605469 C 480.535156 293.195312 482.542969 292.894531 481.753906 292 C 481.269531 291.636719 479.695312 291.726562 480.101562 292.605469 Z M 480.101562 292.605469 " fill-opacity="1" fill-rule="nonzero"/><path fill="#000000" d="M 481.027344 290.246094 C 480.613281 289.796875 479.046875 289.582031 479.28125 290.523438 C 479.605469 291.179688 481.640625 291.28125 481.027344 290.246094 Z M 481.027344 290.246094 " fill-opacity="1" fill-rule="nonzero"/><path fill="#000000" d="M 502.703125 284.953125 C 503.289062 285.039062 504.613281 284.183594 503.851562 283.597656 C 503.207031 283.289062 501.605469 284.539062 502.703125 284.953125 Z M 502.703125 284.953125 " fill-opacity="1" fill-rule="nonzero"/><path fill="#000000" d="M 503.753906 282.289062 C 504.339844 282.289062 505.523438 281.242188 504.691406 280.773438 C 504.011719 280.5625 502.605469 282.046875 503.753906 282.289062 Z M 503.753906 282.289062 " fill-opacity="1" fill-rule="nonzero"/><path fill="#000000" d="M 504.859375 283.941406 C 505.441406 284.050781 506.796875 283.253906 506.0625 282.632812 C 505.433594 282.296875 503.773438 283.476562 504.859375 283.941406 Z M 504.859375 283.941406 " fill-opacity="1" fill-rule="nonzero"/><path fill="#000000" d="M 485.050781 297.011719 C 484.46875 296.886719 483.089844 297.632812 483.8125 298.277344 C 484.433594 298.632812 486.128906 297.507812 485.050781 297.011719 Z M 485.050781 297.011719 " fill-opacity="1" fill-rule="nonzero"/><path fill="#000000" d="M 483.292969 300.394531 C 483.957031 300.660156 485.46875 299.28125 484.34375 298.953125 C 483.753906 298.914062 482.496094 299.863281 483.292969 300.394531 Z M 483.292969 300.394531 " fill-opacity="1" fill-rule="nonzero"/><path fill="#000000" d="M 482.824219 297.855469 C 482.25 297.703125 480.835938 298.386719 481.53125 299.066406 C 482.140625 299.449219 483.882812 298.402344 482.824219 297.855469 Z M 482.824219 297.855469 " fill-opacity="1" fill-rule="nonzero"/><path fill="#000000" d="M 526.976562 282.589844 C 526.640625 283.90625 526.632812 285.597656 526.207031 286.796875 C 525.464844 288.042969 524.140625 287.492188 522.691406 287.511719 C 521.691406 287.46875 520.683594 287.460938 519.675781 287.476562 C 519.234375 287.476562 519.1875 288.15625 519.621094 288.21875 C 521.054688 288.46875 522.652344 288.644531 524.105469 288.777344 C 524.539062 288.824219 525.28125 288.902344 525.871094 288.636719 C 528.238281 287.609375 527.53125 284.695312 527.71875 282.660156 C 527.734375 282.21875 527.054688 282.148438 526.976562 282.582031 Z M 526.976562 282.589844 " fill-opacity="1" fill-rule="nonzero"/><path fill="#000000" d="M 527.402344 254.722656 C 527.878906 255.988281 528.839844 257.386719 529.175781 258.613281 C 529.28125 260.0625 527.871094 260.355469 526.695312 261.207031 C 525.851562 261.746094 525.015625 262.3125 524.199219 262.898438 C 523.835938 263.144531 524.175781 263.738281 524.574219 263.542969 C 530.113281 260.753906 532.484375 260.328125 528.054688 254.371094 C 527.816406 254 527.214844 254.335938 527.402344 254.734375 Z M 527.402344 254.722656 " fill-opacity="1" fill-rule="nonzero"/><g clip-path="url(#54a8dd0e12)"><path fill="#000000" d="M 566.878906 157.238281 C 566.566406 157.015625 566.152344 156.988281 565.808594 157.164062 L 538.292969 170.90625 C 533.046875 173.527344 529.273438 178.53125 528.195312 184.296875 L 523.699219 208.425781 C 516.21875 207.910156 508.617188 207.714844 502.792969 207.714844 C 501.402344 207.714844 500.027344 207.726562 498.671875 207.742188 C 499.386719 202.527344 499.203125 196.355469 497.503906 189.105469 C 497.433594 188.804688 497.230469 188.546875 496.957031 188.40625 C 496.675781 188.269531 496.355469 188.253906 496.066406 188.378906 C 495.554688 188.597656 483.519531 193.789062 479.191406 205.777344 C 478.976562 206.378906 478.820312 207 478.652344 207.609375 C 470.679688 196.703125 456.351562 197.648438 455.710938 197.691406 C 455.402344 197.710938 455.113281 197.871094 454.933594 198.125 C 454.75 198.375 454.6875 198.695312 454.765625 198.992188 C 456.03125 204.042969 457.773438 208.140625 459.761719 211.523438 C 455.703125 212.640625 453.726562 213.894531 453.492188 215.480469 C 453.476562 215.589844 453.433594 215.695312 453.433594 215.816406 C 453.433594 215.828125 453.433594 215.84375 453.433594 215.855469 C 453.433594 215.871094 453.433594 215.886719 453.433594 215.890625 L 463.765625 347.570312 C 463.765625 347.84375 463.847656 348.09375 463.914062 348.351562 C 463.878906 348.472656 463.855469 348.597656 463.863281 348.722656 L 464.347656 356.414062 C 464.347656 363.117188 484.15625 366.738281 502.785156 366.738281 C 521.417969 366.738281 541.226562 363.121094 541.226562 356.476562 L 541.703125 348.367188 C 541.703125 348.367188 541.6875 348.3125 541.6875 348.277344 C 541.730469 348.066406 541.808594 347.863281 541.808594 347.652344 L 552.144531 215.890625 C 552.144531 215.890625 552.144531 215.863281 552.144531 215.855469 C 552.144531 215.84375 552.144531 215.828125 552.144531 215.816406 C 552.144531 215.703125 552.113281 215.597656 552.097656 215.488281 C 551.542969 212.445312 543.566406 210.511719 533.589844 209.328125 L 537.59375 187.164062 C 538.121094 184.25 540.023438 181.710938 542.683594 180.382812 L 570.28125 166.597656 C 570.609375 166.429688 570.835938 166.101562 570.863281 165.730469 C 570.875 165.507812 571.207031 160.222656 566.894531 157.230469 Z M 568.621094 163.871094 C 567.292969 162.496094 566.921875 160.867188 566.816406 159.984375 C 567.945312 161.246094 568.425781 162.738281 568.621094 163.871094 Z M 502.785156 209.816406 C 510.542969 209.816406 517.394531 210.078125 523.316406 210.488281 L 521.308594 221.28125 C 515.855469 221.617188 509.695312 221.828125 502.785156 221.828125 C 499.625 221.828125 496.648438 221.777344 493.785156 221.695312 C 495.703125 218.570312 497.398438 214.65625 498.320312 209.847656 C 499.792969 209.824219 501.28125 209.8125 502.785156 209.8125 Z M 548.386719 236.847656 C 545.421875 234.722656 538.085938 233.253906 529.425781 232.324219 L 531.191406 222.574219 C 539.234375 221.742188 546.316406 220.464844 549.824219 218.5625 Z M 534.527344 258.839844 L 527.746094 245.832031 C 529.988281 245.613281 532.148438 245.355469 534.199219 245.070312 L 537.574219 251.542969 C 537.726562 251.835938 537.742188 252.183594 537.636719 252.441406 L 534.535156 258.84375 Z M 539.269531 269.136719 L 537.140625 285.769531 C 537.097656 286.101562 536.914062 286.386719 536.679688 286.539062 L 530.46875 290.035156 L 532.464844 274.417969 C 532.507812 274.097656 532.476562 273.785156 532.386719 273.476562 L 539.253906 269.023438 C 539.253906 269.058594 539.269531 269.09375 539.261719 269.128906 Z M 513.796875 283.898438 C 513.308594 282.554688 512.671875 281.285156 511.96875 280.058594 L 513.007812 271.953125 C 513.027344 271.757812 513.132812 271.582031 513.285156 271.460938 C 513.441406 271.34375 513.644531 271.28125 513.832031 271.316406 L 530.222656 273.40625 C 530.421875 273.425781 530.59375 273.53125 530.722656 273.683594 C 530.839844 273.839844 530.894531 274.035156 530.867188 274.230469 L 528.777344 290.601562 C 528.746094 290.796875 528.648438 290.972656 528.496094 291.089844 C 528.339844 291.210938 528.144531 291.273438 527.949219 291.238281 L 515.140625 289.601562 C 514.925781 287.6875 514.484375 285.769531 513.804688 283.898438 Z M 531.421875 272.195312 C 531.121094 272 530.792969 271.847656 530.425781 271.804688 L 515.34375 269.882812 L 520.699219 265.914062 C 520.914062 265.773438 521.175781 265.710938 521.453125 265.738281 L 538.121094 267.863281 L 531.429688 272.195312 Z M 526.691406 264.78125 L 521.65625 264.136719 C 521.011719 264.054688 520.371094 264.199219 519.78125 264.585938 L 516.632812 266.917969 L 509.855469 253.925781 C 509.667969 253.5625 509.808594 253.113281 510.171875 252.925781 L 523.058594 246.230469 C 524.050781 246.152344 525.039062 246.074219 526.011719 245.992188 L 533.449219 260.265625 C 533.542969 260.4375 533.5625 260.640625 533.5 260.832031 C 533.4375 261.019531 533.3125 261.171875 533.136719 261.265625 L 526.933594 264.488281 C 526.808594 264.550781 526.757812 264.675781 526.683594 264.789062 Z M 492.925781 268.367188 C 490.601562 268.351562 488.285156 268.730469 486.042969 269.535156 C 484.148438 270.21875 482.398438 271.191406 480.828125 272.386719 C 479.660156 271.972656 478.269531 271.691406 477.28125 271.160156 C 476.160156 270.238281 476.910156 269.015625 477.105469 267.582031 C 477.300781 266.597656 477.464844 265.605469 477.597656 264.613281 C 477.667969 264.179688 477 264.023438 476.875 264.445312 C 475.195312 270.050781 473.914062 272.132812 479.949219 273.113281 C 479.597656 273.414062 479.242188 273.707031 478.914062 274.035156 L 473.964844 272.761719 C 473.566406 272.65625 473.328125 272.253906 473.429688 271.859375 L 477.554688 255.882812 C 477.601562 255.691406 477.730469 255.53125 477.898438 255.425781 C 478.066406 255.324219 478.273438 255.300781 478.457031 255.351562 L 494.457031 259.46875 C 494.851562 259.574219 495.09375 259.976562 494.988281 260.371094 Z M 468.925781 264.394531 C 468.804688 264.15625 468.785156 263.886719 468.847656 263.625 L 473.03125 247.382812 L 476.503906 254.546875 C 476.265625 254.820312 476.078125 255.121094 475.988281 255.476562 L 472.191406 270.183594 L 468.917969 264.390625 Z M 478.855469 253.792969 C 478.542969 253.707031 478.226562 253.699219 477.910156 253.75 L 474.339844 246.390625 C 474.375 246.390625 474.410156 246.390625 474.445312 246.390625 L 490.714844 250.570312 C 491.027344 250.652344 491.292969 250.871094 491.421875 251.121094 L 494.113281 257.707031 L 478.855469 253.785156 Z M 457.632812 238.992188 C 457.632812 237.398438 466.230469 234.792969 482.816406 233.554688 L 483.859375 238.105469 C 483.972656 238.59375 484.40625 238.925781 484.890625 238.925781 C 484.964844 238.925781 485.042969 238.917969 485.128906 238.894531 C 485.695312 238.769531 486.050781 238.203125 485.917969 237.636719 L 484.953125 233.417969 C 490.1875 233.082031 496.109375 232.863281 502.800781 232.863281 C 508.828125 232.863281 514.230469 233.03125 519.082031 233.316406 L 517.90625 239.644531 C 517.898438 239.691406 517.90625 239.742188 517.90625 239.789062 L 512.507812 242.601562 C 511.941406 242.902344 511.488281 243.390625 511.222656 244.035156 L 510.890625 245.011719 C 508.308594 245.082031 505.644531 245.125 502.800781 245.125 C 473.152344 245.125 457.640625 241.132812 457.640625 238.992188 Z M 455.757812 218.5625 C 458.480469 220.039062 463.359375 221.140625 469.175781 221.945312 C 473.464844 224.921875 477.589844 226.078125 480.171875 226.53125 C 480.78125 228.097656 481.460938 229.675781 482.292969 231.285156 L 482.40625 231.765625 C 471.179688 232.613281 460.855469 234.226562 457.191406 236.855469 L 455.757812 218.570312 Z M 489.984375 223.65625 C 487.824219 226.363281 485.667969 228.117188 484.28125 229.074219 C 484.21875 227.1875 484.226562 225.265625 484.300781 223.371094 C 486.210938 223.484375 488.117188 223.582031 489.984375 223.65625 Z M 484.492188 231.445312 C 485.917969 230.535156 489.277344 228.105469 492.421875 223.75 C 496.179688 223.875 499.734375 223.929688 502.785156 223.929688 C 507.890625 223.929688 514.355469 223.777344 520.910156 223.390625 L 519.394531 231.507812 C 513.679688 231.164062 507.890625 231.003906 502.78125 231.003906 C 497.179688 231.003906 490.769531 231.191406 484.519531 231.605469 L 484.484375 231.4375 Z M 482.34375 226.378906 C 481.902344 225.292969 481.523438 224.222656 481.199219 223.167969 C 481.601562 223.195312 481.992188 223.226562 482.390625 223.253906 C 482.347656 224.300781 482.335938 225.34375 482.34375 226.378906 Z M 479.332031 224.21875 C 477.988281 223.910156 476.363281 223.398438 474.59375 222.601562 C 476.035156 222.75 477.503906 222.882812 478.988281 223 C 479.101562 223.40625 479.199219 223.804688 479.332031 224.21875 Z M 526.773438 235.164062 L 520.230469 238.566406 L 521.179688 233.449219 C 523.230469 233.589844 525.179688 233.746094 526.996094 233.917969 L 526.773438 235.171875 Z M 512.71875 244.59375 C 512.824219 244.347656 513.007812 244.144531 513.242188 244.019531 L 526.417969 237.167969 L 525.347656 243.105469 L 525.121094 243.640625 C 524.765625 243.640625 524.40625 243.710938 524.078125 243.886719 L 523.078125 244.40625 C 519.878906 244.648438 516.386719 244.835938 512.585938 244.964844 L 512.710938 244.59375 Z M 519.054688 246.5 L 510.585938 250.90625 L 511.957031 246.828125 C 514.292969 246.753906 516.671875 246.648438 519.046875 246.507812 Z M 527.3125 244.035156 L 527.796875 241.355469 L 529.75 236.582031 C 529.75 236.582031 529.796875 236.632812 529.8125 236.660156 L 533.289062 243.335938 C 531.46875 243.585938 529.460938 243.816406 527.304688 244.027344 Z M 531.246094 235.925781 C 530.796875 235.058594 529.945312 234.589844 529.035156 234.511719 L 529.105469 234.136719 C 541.527344 235.492188 547.953125 237.625 547.953125 238.992188 C 547.953125 240.132812 543.53125 241.78125 534.984375 243.089844 Z M 527.328125 232.117188 C 525.429688 231.933594 523.484375 231.78125 521.523438 231.640625 L 523.085938 223.253906 C 525.078125 223.121094 527.066406 222.964844 529.011719 222.785156 L 527.328125 232.109375 Z M 523.476562 221.140625 L 525.429688 210.648438 C 527.425781 210.808594 529.347656 210.976562 531.113281 211.167969 L 529.40625 220.632812 C 527.542969 220.8125 525.582031 220.988281 523.484375 221.132812 Z M 495.730469 190.875 C 498.902344 205.714844 495.550781 215.527344 491.46875 221.632812 C 489.003906 221.546875 486.679688 221.429688 484.457031 221.289062 C 484.964844 215.164062 486.289062 208.859375 490.097656 203.996094 C 490.285156 203.773438 490.273438 203.4375 490.054688 203.234375 C 489.832031 203.023438 489.480469 203.03125 489.265625 203.253906 C 484.847656 208.230469 483.082031 214.648438 482.542969 221.183594 C 481.878906 221.132812 481.269531 221.085938 480.632812 221.035156 C 479.394531 215.851562 479.550781 210.984375 481.160156 206.511719 C 484.40625 197.480469 492.679688 192.46875 495.730469 190.882812 Z M 478.03125 210.488281 C 477.792969 212.054688 477.671875 213.648438 477.722656 215.285156 C 476.699219 213.894531 475.609375 212.558594 474.398438 211.308594 C 472.269531 209.308594 469.839844 207.449219 466.972656 206.589844 C 466.328125 206.386719 465.957031 207.355469 466.570312 207.628906 C 471.617188 210.027344 475.089844 214.648438 478.121094 219.210938 C 478.210938 219.757812 478.289062 220.304688 478.414062 220.855469 C 475.28125 220.582031 472.480469 220.261719 469.972656 219.910156 C 465.101562 216.394531 460.054688 210.320312 457.136719 199.757812 C 460.9375 199.800781 472.242188 200.785156 478.023438 210.480469 Z M 460.921875 213.398438 C 462.484375 215.738281 464.164062 217.6875 465.878906 219.28125 C 459.125 218.109375 455.570312 216.773438 455.546875 215.835938 L 455.546875 215.816406 C 455.5625 215.765625 455.996094 214.683594 460.929688 213.398438 Z M 482.8125 363.179688 C 482.914062 362.542969 482.683594 361.691406 482.46875 361.171875 C 481.691406 360.171875 481.082031 361.730469 481.160156 362.90625 C 480.445312 362.773438 479.765625 362.640625 479.101562 362.5 C 479.191406 361.234375 479.085938 359.96875 478.777344 358.699219 C 477.582031 357.125 477.421875 360.789062 477.464844 362.128906 C 476.628906 361.933594 475.839844 361.722656 475.089844 361.515625 C 475.175781 359.859375 475.070312 358.203125 474.769531 356.546875 C 473.507812 354.769531 473.425781 359.265625 473.460938 361.027344 C 472.585938 360.738281 471.800781 360.445312 471.078125 360.152344 C 471.121094 358.410156 471.03125 356.671875 470.757812 354.929688 C 469.597656 353.230469 469.441406 357.109375 469.441406 359.398438 C 467.503906 358.375 466.445312 357.335938 466.445312 356.382812 L 466.132812 351.308594 C 471.953125 355.621094 487.730469 357.921875 502.785156 357.921875 C 512.839844 357.921875 523.191406 356.894531 530.722656 354.945312 L 530.722656 361.472656 C 529.972656 361.691406 529.167969 361.898438 528.328125 362.101562 C 528.382812 360.292969 528.292969 358.480469 528.003906 356.679688 C 526.527344 354.523438 526.675781 361.3125 526.710938 362.480469 C 525.941406 362.640625 525.148438 362.800781 524.316406 362.949219 C 524.371094 361.394531 524.28125 359.84375 523.996094 358.292969 C 522.609375 356.335938 522.644531 361.976562 522.699219 363.207031 C 521.921875 363.332031 521.132812 363.449219 520.3125 363.5625 C 520.363281 362.394531 520.269531 361.222656 519.992188 360.054688 C 518.703125 358.371094 518.621094 362.695312 518.691406 363.773438 C 514.050781 364.324219 508.738281 364.667969 502.792969 364.667969 C 495.019531 364.667969 488.304688 364.085938 482.816406 363.199219 Z M 534.886719 353.636719 L 534.886719 359.992188 C 534.128906 360.320312 533.277344 360.632812 532.332031 360.949219 L 532.332031 354.484375 C 533.242188 354.21875 534.089844 353.929688 534.886719 353.636719 Z M 539.128906 356.425781 C 539.128906 357.300781 538.21875 358.265625 536.503906 359.214844 L 536.503906 353 C 537.65625 352.492188 538.617188 351.929688 539.421875 351.34375 Z M 539.707031 347.582031 C 539.707031 351.015625 525.667969 355.796875 502.792969 355.796875 C 479.921875 355.796875 465.878906 351.007812 465.878906 347.5 L 457.550781 241.378906 C 460.265625 243.089844 465.871094 244.355469 472.65625 245.242188 C 472.121094 245.605469 471.695312 246.136719 471.527344 246.800781 L 467.292969 263.226562 C 467.132812 263.851562 467.195312 264.515625 467.503906 265.144531 L 472.058594 273.210938 C 472.136719 273.34375 472.25 273.449219 472.375 273.519531 C 472.683594 273.886719 473.074219 274.203125 473.570312 274.328125 L 477.679688 275.382812 C 476.972656 276.214844 476.351562 277.117188 475.777344 278.074219 C 475.769531 278.082031 475.753906 278.089844 475.75 278.097656 C 470.351562 284.234375 468.847656 293.136719 471.816406 301.316406 C 472.179688 302.324219 472.613281 303.316406 473.128906 304.324219 L 474.929688 307.257812 C 478.050781 311.632812 482.511719 314.785156 487.480469 316.144531 C 487.5625 316.164062 487.648438 316.171875 487.722656 316.171875 C 488.128906 316.171875 488.507812 315.898438 488.621094 315.484375 C 488.753906 314.988281 488.460938 314.480469 487.96875 314.347656 C 483.417969 313.109375 479.324219 310.207031 476.484375 306.238281 L 474.753906 303.414062 C 474.300781 302.535156 473.902344 301.617188 473.566406 300.6875 C 472.164062 296.84375 471.851562 292.839844 472.523438 289.078125 C 472.410156 292.167969 472.886719 295.304688 473.992188 298.332031 C 474.355469 299.339844 474.789062 300.324219 475.28125 301.273438 C 475.449219 301.597656 475.769531 301.777344 476.105469 301.777344 C 476.253906 301.777344 476.390625 301.742188 476.53125 301.671875 C 476.988281 301.4375 477.167969 300.875 476.929688 300.421875 C 476.476562 299.542969 476.078125 298.625 475.742188 297.695312 C 473.808594 292.382812 473.902344 286.707031 475.988281 281.710938 C 478.058594 276.738281 481.867188 273.035156 486.703125 271.289062 C 492.351562 269.238281 498.59375 270.140625 503.835938 273.761719 C 504.25 274.054688 504.835938 273.949219 505.132812 273.523438 C 505.417969 273.105469 505.320312 272.523438 504.894531 272.230469 C 501.703125 270.03125 498.167969 268.785156 494.589844 268.472656 L 496.570312 260.773438 C 496.691406 260.320312 496.621094 259.875 496.480469 259.453125 C 496.480469 259.363281 496.515625 259.277344 496.480469 259.195312 L 492.910156 250.480469 C 492.5625 249.75 491.910156 249.21875 491.132812 249.023438 L 479.226562 245.964844 C 487.046875 246.667969 495.597656 246.984375 502.808594 246.984375 C 505.171875 246.984375 507.6875 246.949219 510.269531 246.878906 L 508.265625 252.804688 C 508.246094 252.863281 508.28125 252.910156 508.28125 252.96875 C 508.128906 253.519531 508.164062 254.128906 508.441406 254.679688 L 515.335938 267.90625 L 512.355469 270.113281 C 512.320312 270.140625 512.320312 270.191406 512.292969 270.21875 C 511.832031 270.589844 511.507812 271.121094 511.429688 271.75 L 510.640625 277.941406 C 509.660156 276.578125 508.582031 275.300781 507.351562 274.183594 C 506.972656 273.839844 506.382812 273.867188 506.035156 274.246094 C 505.691406 274.621094 505.71875 275.210938 506.097656 275.558594 C 508.75 277.96875 510.816406 281.074219 512.066406 284.539062 C 514.546875 291.363281 513.671875 298.773438 509.714844 304.351562 C 509.421875 304.769531 509.519531 305.351562 509.941406 305.644531 C 510.109375 305.753906 510.289062 305.8125 510.480469 305.8125 C 510.765625 305.8125 511.058594 305.679688 511.242188 305.421875 C 514.148438 301.324219 515.484375 296.324219 515.253906 291.238281 L 527.769531 292.832031 C 527.871094 292.84375 527.96875 292.851562 528.070312 292.851562 C 528.390625 292.851562 528.699219 292.761719 528.992188 292.636719 C 529.105469 292.628906 529.214844 292.609375 529.316406 292.550781 L 537.523438 287.929688 C 538.203125 287.492188 538.652344 286.785156 538.75 285.980469 L 540.878906 269.34375 C 540.96875 268.625 540.773438 267.90625 540.324219 267.332031 C 539.875 266.757812 539.234375 266.386719 538.511719 266.296875 L 529.246094 265.117188 L 533.898438 262.695312 C 534.269531 262.5 534.542969 262.195312 534.765625 261.851562 C 534.863281 261.773438 534.957031 261.699219 535.011719 261.578125 L 539.121094 253.105469 C 539.429688 252.359375 539.386719 251.527344 539.015625 250.808594 L 535.902344 244.824219 C 541.339844 243.972656 545.742188 242.839844 548.050781 241.382812 L 539.722656 347.589844 Z M 550.039062 215.816406 L 550.039062 215.828125 C 550.003906 217.085938 543.628906 219.074219 531.582031 220.414062 L 533.207031 211.417969 C 544.1875 212.746094 550.011719 214.613281 550.03125 215.808594 Z M 541.730469 178.507812 C 538.484375 180.132812 536.160156 183.226562 535.515625 186.800781 L 531.484375 209.097656 C 529.636719 208.902344 527.734375 208.734375 525.816406 208.582031 L 529.851562 186.875 C 531.164062 187.171875 532.492188 187.367188 533.855469 187.386719 C 535.726562 186.546875 531.933594 185.617188 530.15625 185.277344 L 530.265625 184.6875 C 530.378906 184.082031 530.53125 183.488281 530.707031 182.898438 C 532.050781 183.445312 533.4375 183.863281 534.894531 184.101562 C 536.980469 183.515625 532.800781 181.894531 531.265625 181.367188 C 531.574219 180.621094 531.933594 179.894531 532.34375 179.203125 C 533.542969 180.0625 534.789062 180.84375 536.140625 181.488281 C 538.238281 181.460938 534.914062 178.992188 533.25 177.851562 C 533.746094 177.175781 534.296875 176.546875 534.894531 175.953125 C 535.824219 177.113281 536.832031 178.210938 537.980469 179.195312 C 540.042969 179.734375 537.371094 176.355469 536.089844 174.847656 C 536.648438 174.386719 537.25 173.964844 537.867188 173.582031 C 538.707031 174.839844 539.644531 176.042969 540.722656 177.140625 C 542.691406 177.832031 540.464844 174.425781 539.289062 172.769531 L 564.703125 160.085938 C 564.828125 161.328125 565.367188 163.738281 567.460938 165.675781 L 541.722656 178.53125 Z M 541.730469 178.507812 " fill-opacity="1" fill-rule="nonzero"/></g><path fill="#000000" d="M 538.378906 305.832031 C 537.210938 317.21875 536.273438 328.667969 535.363281 340.082031 C 535.152344 341.964844 535.460938 343.683594 534.023438 344.871094 C 528.195312 348.359375 521.089844 349.640625 514.308594 349.625 C 513.691406 349.609375 513.664062 350.554688 514.265625 350.589844 C 520.707031 351.007812 527.304688 349.8125 533.171875 347.039062 C 535.164062 346.386719 536.851562 344.242188 536.746094 342.097656 C 537.742188 330.054688 538.652344 317.96875 539.34375 305.910156 C 539.386719 305.289062 538.433594 305.246094 538.378906 305.832031 Z M 538.378906 305.832031 " fill-opacity="1" fill-rule="nonzero"/><path fill="#000000" d="M 478.519531 349.652344 C 475.523438 349.136719 472.457031 347.808594 470.007812 346.117188 C 469.546875 345.738281 469.265625 345.25 469.21875 344.5625 C 468.960938 342.152344 468.625 339.753906 468.203125 337.363281 C 468.117188 336.792969 467.214844 336.875 467.246094 337.460938 C 467.285156 339.078125 467.363281 340.691406 467.480469 342.304688 C 467.664062 344.066406 467.417969 346.117188 469 347.367188 C 471.890625 349.28125 475 350.519531 478.441406 350.617188 C 479.03125 350.636719 479.109375 349.730469 478.527344 349.652344 Z M 478.519531 349.652344 " fill-opacity="1" fill-rule="nonzero"/><path fill="#000000" d="M 522.945312 310.957031 C 525.191406 310.957031 527.019531 309.132812 527.019531 306.886719 C 527.019531 304.644531 525.191406 302.820312 522.945312 302.820312 C 520.699219 302.820312 518.871094 304.644531 518.871094 306.886719 C 518.871094 309.132812 520.699219 310.957031 522.945312 310.957031 Z M 522.945312 304.425781 C 524.304688 304.425781 525.410156 305.53125 525.410156 306.886719 C 525.410156 308.242188 524.304688 309.347656 522.945312 309.347656 C 521.585938 309.347656 520.480469 308.242188 520.480469 306.886719 C 520.480469 305.53125 521.585938 304.425781 522.945312 304.425781 Z M 522.945312 304.425781 " fill-opacity="1" fill-rule="nonzero"/><path fill="#000000" d="M 505.070312 336.945312 C 502.820312 336.945312 500.996094 338.769531 500.996094 341.011719 C 500.996094 343.257812 502.820312 345.082031 505.070312 345.082031 C 507.316406 345.082031 509.140625 343.257812 509.140625 341.011719 C 509.140625 338.769531 507.316406 336.945312 505.070312 336.945312 Z M 505.070312 343.472656 C 503.710938 343.472656 502.605469 342.371094 502.605469 341.011719 C 502.605469 339.65625 503.710938 338.550781 505.070312 338.550781 C 506.425781 338.550781 507.53125 339.65625 507.53125 341.011719 C 507.53125 342.371094 506.425781 343.472656 505.070312 343.472656 Z M 505.070312 343.472656 " fill-opacity="1" fill-rule="nonzero"/><path fill="#000000" d="M 474.382812 324.542969 C 476.628906 324.542969 478.457031 322.71875 478.457031 320.476562 C 478.457031 318.234375 476.628906 316.410156 474.382812 316.410156 C 472.136719 316.410156 470.308594 318.234375 470.308594 320.476562 C 470.308594 322.71875 472.136719 324.542969 474.382812 324.542969 Z M 474.382812 318.015625 C 475.742188 318.015625 476.847656 319.121094 476.847656 320.476562 C 476.847656 321.832031 475.742188 322.9375 474.382812 322.9375 C 473.027344 322.9375 471.917969 321.832031 471.917969 320.476562 C 471.917969 319.121094 473.027344 318.015625 474.382812 318.015625 Z M 474.382812 318.015625 " fill-opacity="1" fill-rule="nonzero"/><path fill="#000000" d="M 518.464844 331.414062 C 519.824219 331.414062 520.929688 330.3125 520.929688 328.957031 C 520.929688 327.597656 519.824219 326.496094 518.464844 326.496094 C 517.109375 326.496094 516 327.597656 516 328.957031 C 516 330.3125 517.109375 331.414062 518.464844 331.414062 Z M 518.464844 327.726562 C 519.144531 327.726562 519.691406 328.269531 519.691406 328.949219 C 519.691406 329.625 519.144531 330.171875 518.464844 330.171875 C 517.785156 330.171875 517.242188 329.625 517.242188 328.949219 C 517.242188 328.269531 517.785156 327.726562 518.464844 327.726562 Z M 518.464844 327.726562 " fill-opacity="1" fill-rule="nonzero"/><path fill="#000000" d="M 483.125 335.742188 C 481.769531 335.742188 480.660156 336.847656 480.660156 338.203125 C 480.660156 339.558594 481.769531 340.664062 483.125 340.664062 C 484.484375 340.664062 485.589844 339.558594 485.589844 338.203125 C 485.589844 336.847656 484.484375 335.742188 483.125 335.742188 Z M 483.125 339.433594 C 482.445312 339.433594 481.902344 338.886719 481.902344 338.210938 C 481.902344 337.53125 482.445312 336.988281 483.125 336.988281 C 483.804688 336.988281 484.351562 337.53125 484.351562 338.210938 C 484.351562 338.886719 483.804688 339.433594 483.125 339.433594 Z M 483.125 339.433594 " fill-opacity="1" fill-rule="nonzero"/><path fill="#000000" d="M 469.671875 278.558594 C 469.671875 277.203125 468.566406 276.097656 467.210938 276.097656 C 465.851562 276.097656 464.746094 277.203125 464.746094 278.558594 C 464.746094 279.914062 465.851562 281.019531 467.210938 281.019531 C 468.566406 281.019531 469.671875 279.914062 469.671875 278.558594 Z M 467.210938 279.78125 C 466.53125 279.78125 465.984375 279.234375 465.984375 278.558594 C 465.984375 277.878906 466.53125 277.335938 467.210938 277.335938 C 467.886719 277.335938 468.433594 277.878906 468.433594 278.558594 C 468.433594 279.234375 467.886719 279.78125 467.210938 279.78125 Z M 467.210938 279.78125 " fill-opacity="1" fill-rule="nonzero"/><path fill="#000000" d="M 507.007812 263.074219 C 507.007812 261.71875 505.902344 260.613281 504.542969 260.613281 C 503.1875 260.613281 502.078125 261.71875 502.078125 263.074219 C 502.078125 264.429688 503.1875 265.535156 504.542969 265.535156 C 505.902344 265.535156 507.007812 264.429688 507.007812 263.074219 Z M 504.542969 264.296875 C 503.871094 264.296875 503.320312 263.753906 503.320312 263.074219 C 503.320312 262.398438 503.863281 261.851562 504.542969 261.851562 C 505.222656 261.851562 505.769531 262.398438 505.769531 263.074219 C 505.769531 263.753906 505.222656 264.296875 504.542969 264.296875 Z M 504.542969 264.296875 " fill-opacity="1" fill-rule="nonzero"/></svg>